<svg width="60" height="60" viewBox="0 0 60 60" fill="none" xmlns="http://www.w3.org/2000/svg">
<path d="M7.98552 32.988C5.88892 29.4536 5.15467 25.2754 5.92066 21.238C6.68664 17.2006 8.90016 13.5816 12.1456 11.0608C15.391 8.53987 19.445 7.29045 23.5465 7.54711C27.6479 7.80377 31.5145 9.54884 34.4204 12.4547C37.3262 15.3605 39.0713 19.2271 39.3279 23.3285C39.5846 27.43 38.3352 31.484 35.8144 34.7294C33.2935 37.9748 29.6746 40.1884 25.6371 40.9544C21.5997 41.7204 17.4215 40.9862 13.8872 38.8896L13.8872 38.8894L8.05889 40.5546C7.81776 40.6235 7.56259 40.6267 7.31982 40.5638C7.07706 40.5009 6.85553 40.3742 6.6782 40.1969C6.50087 40.0195 6.37419 39.798 6.31128 39.5552C6.24837 39.3125 6.25153 39.0573 6.32043 38.8162L7.98566 32.9879L7.98552 32.988Z" stroke="#212121" stroke-width="5" stroke-linecap="round" stroke-linejoin="round"/>
<path d="M21.5764 41.2249C22.406 43.5799 23.7475 45.7216 25.5043 47.4958C27.2612 49.27 29.3896 50.6324 31.7364 51.4851C34.0831 52.3377 36.5898 52.6593 39.0757 52.4266C41.5617 52.194 43.9652 51.4129 46.113 50.1397L46.1129 50.1395L51.9412 51.8047C52.1824 51.8736 52.4375 51.8768 52.6803 51.8139C52.9231 51.751 53.1446 51.6243 53.3219 51.4469C53.4992 51.2696 53.6259 51.0481 53.6888 50.8053C53.7517 50.5625 53.7486 50.3074 53.6797 50.0662L52.0145 44.2379L52.0146 44.238C53.4942 41.7428 54.3057 38.9083 54.3708 36.008C54.436 33.1078 53.7526 30.2397 52.3865 27.6805C51.0205 25.1213 49.0179 22.9574 46.5721 21.3975C44.1262 19.8375 41.3196 18.9343 38.423 18.7749" stroke="#212121" stroke-width="5" stroke-linecap="round" stroke-linejoin="round"/>
</svg>
