<svg width="339" height="98" viewBox="0 0 339 98" fill="none" xmlns="http://www.w3.org/2000/svg">
<path d="M55.7431 16.8203H67.8919V79.8444H55.7431V74.2751C52.1431 78.954 46.971 81.1785 40.447 81.1785C34.1525 81.1785 28.7509 78.954 24.2549 74.0517C19.7619 69.376 17.5107 63.3631 17.5107 56.466C17.5107 49.5595 19.7588 43.77 24.258 39.0943C28.7541 34.4155 34.1557 31.9675 40.4502 31.9675C46.9742 31.9675 52.1462 34.1952 55.7463 38.8709V16.8203H55.7431ZM42.7045 69.5995C46.5277 69.5995 49.675 68.4856 51.9262 66.0376C54.4006 63.5865 55.523 60.2481 55.523 56.4597C55.523 52.6745 54.4006 49.5563 51.9262 47.1084C50.7201 45.8922 49.2826 44.9303 47.6987 44.2796C46.1148 43.6289 44.4166 43.3026 42.7045 43.32C38.8812 43.32 35.7309 44.4339 33.2564 47.1084C30.7852 49.5563 29.6596 52.6745 29.6596 56.4597C29.6596 60.245 30.7852 63.3631 33.2564 66.0376C35.7309 68.4856 38.8812 69.5995 42.7045 69.5995ZM91.0577 41.0954C93.3089 35.0825 98.9306 32.1877 105.451 32.1877V45.5477C101.855 45.1041 98.481 45.768 95.557 47.7754C92.6329 49.7797 91.281 52.8979 91.281 57.3502V79.621H79.1384V33.0782H91.2841V41.0954H91.0577ZM107.25 78.7306C106.503 78.0087 105.909 77.1437 105.503 76.1871C105.098 75.2305 104.888 74.202 104.888 73.1628C104.888 72.1237 105.098 71.0952 105.503 70.1386C105.909 69.1821 106.503 68.317 107.25 67.5951C107.987 66.8538 108.863 66.2654 109.828 65.864C110.793 65.4625 111.828 65.2559 112.873 65.2559C113.918 65.2559 114.953 65.4625 115.918 65.864C116.883 66.2654 117.759 66.8538 118.496 67.5951C119.243 68.317 119.837 69.1821 120.243 70.1386C120.649 71.0952 120.858 72.1237 120.858 73.1628C120.858 74.202 120.649 75.2305 120.243 76.1871C119.837 77.1437 119.243 78.0087 118.496 78.7306C117.759 79.4719 116.883 80.0603 115.918 80.4617C114.953 80.8631 113.918 81.0698 112.873 81.0698C111.828 81.0698 110.793 80.8631 109.828 80.4617C108.863 80.0603 107.987 79.4719 107.25 78.7306ZM131.768 74.0549C127.045 69.3761 124.797 63.5865 124.797 56.4597C124.797 49.3361 127.045 43.7668 131.771 38.8677C136.493 34.1921 142.565 31.7409 149.535 31.7409C158.76 31.7409 166.856 36.4166 170.679 43.7668L160.335 49.7797C158.533 45.9945 154.487 43.5434 149.538 43.5434C142.338 43.5434 136.943 48.8893 136.943 56.2395C136.943 59.8013 138.068 62.9195 140.54 65.3674C142.791 67.5951 145.938 68.9324 149.538 68.9324C154.487 68.9324 158.533 66.7047 160.332 62.6961L170.906 68.709C166.856 76.0592 158.76 80.7349 149.538 80.7349C142.565 81.1817 136.716 78.7306 131.771 74.0549H131.768ZM212.282 33.0782H224.428V79.621H212.282V74.0517C208.685 78.7305 203.51 80.9583 196.989 80.9583C190.691 80.9583 185.293 78.7306 180.797 73.8315C176.298 69.1558 174.05 63.1429 174.05 56.2395C174.05 49.3361 176.298 43.5434 180.797 38.8677C185.293 34.1921 190.691 31.7409 196.989 31.7409C203.513 31.7409 208.685 33.9687 212.282 38.6443V33.0751V33.0782ZM199.24 69.5995C203.067 69.5995 206.214 68.4856 208.462 66.0376C210.936 63.5865 212.285 60.2481 212.285 56.4597C212.285 52.6745 211.163 49.5563 208.462 47.1084C207.256 45.8926 205.818 44.9312 204.234 44.2811C202.65 43.6309 200.952 43.3052 199.24 43.3232C195.417 43.3232 192.27 44.4339 190.022 47.1084C187.547 49.5563 186.422 52.6777 186.422 56.4597C186.422 60.2481 187.547 63.3631 190.022 66.0376C192.493 68.4856 195.643 69.5995 199.24 69.5995ZM255.017 51.5607C261.99 52.8979 270.762 56.2363 270.762 66.2579C270.762 70.9367 268.964 74.7219 265.364 77.3964C261.767 79.8444 257.268 81.1785 251.869 81.1785C242.198 81.1785 235.677 77.3933 232.077 70.0463L242.648 64.2567C244 68.2622 247.147 70.2665 251.869 70.2665C256.145 70.2665 258.393 68.9324 258.393 66.2579C258.393 63.8099 254.57 62.2493 249.848 61.1354C242.874 59.3545 234.102 56.4597 234.102 46.8818C234.102 42.2062 235.901 38.6443 239.274 35.973C242.648 33.2985 246.924 31.9643 252.096 31.9643C259.742 31.9643 266.266 35.5262 270.09 41.7625L259.745 47.3318C258.167 44.2105 255.696 42.653 252.319 42.653C249.172 42.653 246.924 44.2105 246.924 46.4382C246.474 48.8893 250.071 50.4468 255.02 51.5607H255.017ZM317.317 37.0837C320.691 40.4284 322.489 45.1072 322.489 51.3373V80.0647H310.344V52.6745C310.344 46.4382 306.747 43.0998 301.122 43.0998C294.824 43.0998 290.778 46.885 290.778 54.6788V79.8444H278.629V16.8203H290.775V38.4209C293.699 33.9687 298.421 31.9643 304.719 31.9643C309.891 31.9643 314.164 33.5219 317.314 37.0868L317.317 37.0837Z" fill="white"/>
</svg>
