<svg width="83" height="81" viewBox="0 0 83 81" fill="none" xmlns="http://www.w3.org/2000/svg">
<path d="M43.768 16.172C43.2386 16.1021 43.6262 15.7501 44.3864 15.7725C45.1466 15.795 45.0271 15.524 44.0805 15.1775C42.8844 14.7396 35.398 13.6865 32.1611 14.3545C28.9242 15.0225 31.6231 13.0657 34.0743 12.5568C34.4989 12.4686 34.9518 12.3615 35.4414 12.2457C37.7776 11.6932 40.9479 10.9435 45.8617 11.1146C46.8581 11.1493 47.127 10.8145 47.044 10.7274C46.9609 10.6402 47.0129 10.4492 47.3379 10.5135C47.5346 10.5524 47.6207 10.4185 47.8409 10.4495C48.061 10.4804 51.6725 11.4127 49.7275 10.4452C47.7123 9.44288 43.6864 9.01135 42.5546 9.0768C41.4228 9.14225 38.6546 8.70792 40.6029 8.26308C42.5512 7.81823 44.0282 7.53177 51.0426 8.4286C52.9212 8.66879 54.6699 9.54835 56.3481 10.4246C63.5814 14.2014 69.4229 20.6731 72.2288 29.022C77.9889 46.1605 68.7762 64.7196 51.6518 70.4749C35.279 75.9776 17.6018 67.7835 11.0471 52.0744C10.9683 51.8084 10.872 51.5042 10.7538 51.1526C9.64433 47.8513 8.80041 38.1622 10.5474 33.061C12.2943 27.9599 14.7969 23.2347 15.9879 21.7847C17.1788 20.3347 16.1781 22.3506 15.7085 23.1383C15.6517 23.2336 15.5578 23.3874 15.4372 23.585C14.5609 25.0206 12.2755 28.7646 12.5805 29.1235C12.8035 29.3858 12.921 29.0767 13.0845 28.6467C13.2644 28.1738 13.5118 27.7505 13.756 27.3095C14.6584 25.6796 17.0304 21.3953 19.4081 19.1655C22.1994 16.5478 22.7975 16.7667 21.4489 18.0597C20.1003 19.3528 15.6169 24.1139 13.7114 28.7434C12.4782 31.7395 12.4752 31.86 12.451 32.8262C12.4378 33.3529 12.4183 34.131 12.1898 35.7633C11.5421 40.39 12.1847 45.4229 12.44 46.8067C12.6953 48.1906 12.9121 46.963 12.7518 45.8621C12.5916 44.7612 13.3421 43.2493 13.4424 45.4201C13.5426 47.5909 14.8107 51.3638 15.5698 52.9982C16.3289 54.6327 19.3884 58.1184 20.8697 59.4052C22.3511 60.6919 23.2935 60.3752 22.0649 59.5284C20.8363 58.6816 20.647 58.4303 20.5202 58.053C20.3934 57.6757 21.2433 58.0199 20.928 57.706C20.6127 57.392 20.2743 57.0827 19.9965 56.8091C18.8829 55.7123 16.9244 53.7834 15.9082 50.2601C14.6384 45.8579 14.1929 43.9081 14.6007 43.5611C14.7523 43.4321 14.7678 42.769 14.7913 41.7603C14.8312 40.0547 14.8941 37.3611 15.6768 34.5914C16.9226 30.1836 19.1134 26.403 20.7121 24.6059C22.3108 22.8089 26.1372 19.2135 29.0262 17.8226C31.2832 16.736 29.6867 17.9155 29.404 18.0105C29.1213 18.1055 27.7738 18.858 27.7085 18.8953C26.7672 19.4333 26.575 19.8748 24.9393 21.37C17.21 27.4711 13.6909 37.7329 16.9063 47.3002C21.0381 59.5941 34.7254 66.0859 47.4776 61.8001C60.2298 57.5142 67.218 44.0737 63.0862 31.7798C60.1725 23.1101 52.5067 17.3259 43.768 16.172Z" fill="#1B68E6"/>
<path d="M19.5499 43.9817C21.5699 43.9817 23.5365 43.9817 25.5231 43.9817C25.6702 45.0383 26.4595 45.4997 27.3425 45.7405C29.2689 46.2688 31.222 46.3089 33.1418 45.707C34.9545 45.1386 36.0247 43.7142 36.1317 41.8216C36.1585 41.3803 36.1384 40.9322 36.1384 40.4708C35.8976 40.3905 35.7304 40.424 35.5899 40.6915C35.1618 41.4806 34.4528 41.9554 33.6501 42.3098C32.5264 42.8047 31.3291 42.9919 30.1117 43.0922C28.5063 43.226 26.9077 43.226 25.309 42.9719C23.7505 42.7244 22.2856 42.2429 21.075 41.1596C19.6636 39.8957 19.1485 38.2907 19.2957 36.445C19.5365 33.4557 21.376 31.8574 24.0582 31.0081C25.5097 30.5467 27.0147 30.3661 28.5331 30.2992C30.9344 30.1922 33.3224 30.2992 35.6434 31.0014C38.9544 31.9978 40.8742 34.2314 41.4829 37.6153C41.8641 39.7352 41.8441 41.8551 41.3156 43.9482C40.5063 47.1716 38.4126 49.1443 35.2287 49.9936C33.2354 50.5219 31.2087 50.6022 29.1619 50.5019C27.5699 50.4283 25.9913 50.2344 24.4662 49.7328C23.3492 49.365 22.2856 48.8835 21.3826 48.1078C20.2589 47.1381 19.6301 45.9076 19.5432 44.4163C19.5432 44.2826 19.5499 44.1489 19.5499 43.9817ZM30.4461 39.4677C31.1752 39.4075 31.911 39.374 32.6401 39.2804C33.3959 39.1868 34.1317 39.0062 34.7739 38.5649C35.8441 37.8226 35.8842 36.338 34.8073 35.609C34.3591 35.3081 33.8173 35.0874 33.2889 34.967C31.5899 34.5792 29.8642 34.5992 28.1385 34.84C27.4094 34.9403 26.6936 35.1275 26.0783 35.5689C25.008 36.3313 25.0013 37.8159 26.085 38.5649C26.3793 38.7722 26.7271 38.9193 27.0749 39.033C28.1652 39.3807 29.3023 39.4209 30.4461 39.4677ZM43.0553 43.9817C45.0486 43.9817 47.0219 43.9817 49.0085 43.9817C49.1556 45.0383 49.9449 45.4997 50.8279 45.7405C52.7543 46.2688 54.7074 46.3089 56.6272 45.707C58.4399 45.1386 59.5101 43.7142 59.6171 41.8216C59.6439 41.3803 59.6238 40.9322 59.6238 40.4708C59.383 40.3905 59.2158 40.424 59.0753 40.6915C58.6472 41.4806 57.9382 41.9554 57.1355 42.3098C56.0118 42.8047 54.8145 42.9919 53.5971 43.0922C51.9917 43.226 50.3931 43.226 48.7944 42.9719C47.2359 42.7244 45.771 42.2429 44.5603 41.1596C43.149 39.8957 42.6272 38.2907 42.7811 36.445C43.0219 33.4557 44.8613 31.8574 47.5436 31.0081C48.9951 30.5467 50.5001 30.3661 52.0185 30.2992C54.4198 30.1922 56.8078 30.2992 59.1288 31.0014C62.4398 31.9978 64.3595 34.2314 64.9682 37.6153C65.3495 39.7352 65.3294 41.8551 64.801 43.9482C63.9917 47.1716 61.898 49.1443 58.7141 49.9936C56.7208 50.5219 54.6941 50.6022 52.6472 50.5019C51.0553 50.4283 49.4767 50.2344 47.9516 49.7328C46.8346 49.365 45.771 48.8835 44.868 48.1078C43.7443 47.1381 43.1155 45.9076 43.0286 44.4163C43.0219 44.316 43.0219 44.2157 43.0286 44.1154C43.0353 44.082 43.042 44.0485 43.0553 43.9817ZM53.9248 39.4677C54.6539 39.4075 55.3897 39.374 56.1188 39.2804C56.8746 39.1868 57.6104 39.0062 58.2526 38.5649C59.3228 37.8226 59.3629 36.3513 58.2994 35.6024C57.9248 35.3415 57.4833 35.1342 57.0352 35.0205C55.2158 34.5591 53.3763 34.5792 51.5302 34.8467C50.8346 34.947 50.159 35.1342 49.5703 35.5489C48.4801 36.3179 48.4867 37.8159 49.5904 38.5582C49.8914 38.7588 50.2392 38.9059 50.5871 39.0196C51.6707 39.3807 52.7944 39.4209 53.9248 39.4677Z" fill="#1B68E6"/>
</svg>
