<svg width="60" height="60" viewBox="0 0 60 60" fill="none" xmlns="http://www.w3.org/2000/svg">
<path d="M52.8412 30H45.3412C44.3466 30 43.3928 30.3951 42.6896 31.0984C41.9863 31.8016 41.5912 32.7555 41.5912 33.75V43.125C41.5912 44.1196 41.9863 45.0734 42.6896 45.7767C43.3928 46.4799 44.3466 46.875 45.3412 46.875H49.0912C50.0858 46.875 51.0396 46.4799 51.7429 45.7767C52.4461 45.0734 52.8412 44.1196 52.8412 43.125V30ZM52.8412 30C52.8412 27.0309 52.2536 24.0912 51.1121 21.3502C49.9707 18.6093 48.2981 16.1214 46.1907 14.0299C44.0833 11.9384 41.5827 10.2847 38.8332 9.16409C36.0837 8.04348 33.1396 7.47814 30.1706 7.50065C27.2016 7.47814 24.2575 8.04348 21.508 9.16409C18.7585 10.2847 16.2579 11.9384 14.1505 14.0299C12.0431 16.1214 10.3705 18.6093 9.22907 21.3502C8.08765 24.0912 7.5 27.0309 7.5 30V43.125C7.5 44.1196 7.89509 45.0734 8.59835 45.7767C9.30161 46.4799 10.2554 46.875 11.25 46.875H15C15.9946 46.875 16.9484 46.4799 17.6516 45.7767C18.3549 45.0734 18.75 44.1196 18.75 43.125V33.75C18.75 32.7555 18.3549 31.8016 17.6516 31.0984C16.9484 30.3951 15.9946 30 15 30H7.5" stroke="#212121" stroke-width="5" stroke-linecap="round" stroke-linejoin="round"/>
<path d="M52.8412 43.125V48.75C52.8412 50.7391 52.051 52.6468 50.6445 54.0533C49.238 55.4598 47.3303 56.25 45.3412 56.25H31.875" stroke="#212121" stroke-width="5" stroke-linecap="round" stroke-linejoin="round"/>
</svg>
