<svg width="611" height="112" viewBox="0 0 611 112" fill="none" xmlns="http://www.w3.org/2000/svg">
<rect x="99.6147" y="61" width="95.7719" height="24.5906" rx="12.2953" transform="rotate(15.502 99.6147 61)" fill="#FFDD00"/>
<path d="M118.558 75.8093L115.057 80.0705C114.628 80.5919 114.265 80.9559 113.97 81.1624C113.675 81.3658 113.364 81.4892 113.037 81.5326C112.713 81.5768 112.343 81.5415 111.929 81.4266C111.568 81.3264 111.246 81.1868 110.964 81.0079L111.242 80.0035C111.514 80.2096 111.816 80.3589 112.149 80.4513C112.433 80.5299 112.688 80.527 112.916 80.4427C113.148 80.3561 113.392 80.1538 113.648 79.8357L112.518 74.1339L113.723 74.4682L114.441 78.3551C114.501 78.7205 114.533 78.9624 114.537 79.0809L114.584 79.0939C114.625 79.0181 114.707 78.9018 114.831 78.745L117.391 75.4854L118.558 75.8093ZM123.005 80.2574C122.835 80.8678 122.376 81.138 121.628 81.0679L121.617 81.1052C122.003 81.2625 122.273 81.4733 122.428 81.7376C122.583 82.0019 122.615 82.2975 122.524 82.6246C122.389 83.1135 122.097 83.4385 121.65 83.5996C121.207 83.7584 120.63 83.7394 119.92 83.5424L117.454 82.8583L118.887 77.6914L121.344 78.373C122.696 78.7479 123.249 79.376 123.005 80.2574ZM121.417 82.2469C121.486 81.9977 121.438 81.795 121.273 81.6387C121.11 81.4792 120.835 81.3459 120.448 81.2388L119.182 80.8877L118.777 82.3499L120.071 82.7088C120.825 82.9179 121.273 82.7639 121.417 82.2469ZM121.881 80.0463C121.938 79.8408 121.898 79.6704 121.761 79.5352C121.628 79.3977 121.403 79.2849 121.085 79.1968L119.754 78.8275L119.409 80.0701L120.577 80.3941C120.945 80.496 121.236 80.5266 121.452 80.4859C121.669 80.442 121.812 80.2955 121.881 80.0463ZM125.468 85.1817C124.664 84.9588 124.1 84.5507 123.775 83.9574C123.453 83.3619 123.407 82.653 123.635 81.8308C123.869 80.9868 124.263 80.3817 124.818 80.0156C125.372 79.6495 126.017 79.5684 126.752 79.7722C127.434 79.9614 127.915 80.318 128.196 80.8419C128.476 81.3658 128.516 81.9906 128.315 82.7163L128.15 83.3096L124.707 82.3546C124.584 82.8604 124.612 83.2841 124.792 83.6259C124.973 83.9646 125.296 84.1983 125.76 84.327C126.065 84.4116 126.356 84.4622 126.634 84.4787C126.915 84.493 127.225 84.475 127.564 84.4249L127.317 85.3172C127.013 85.3706 126.717 85.3858 126.429 85.3627C126.14 85.3396 125.82 85.2793 125.468 85.1817ZM126.521 80.6038C126.172 80.507 125.861 80.5399 125.588 80.7022C125.318 80.8655 125.104 81.1533 124.946 81.5656L127.291 82.2161C127.403 81.7877 127.39 81.4368 127.251 81.1635C127.113 80.8871 126.87 80.7005 126.521 80.6038ZM132.996 87.1692L131.889 86.8621L133.084 82.5548L131.659 82.1596C131.264 83.2442 130.906 84.0772 130.583 84.6586C130.264 85.2409 129.945 85.642 129.626 85.862C129.31 86.0829 128.961 86.1407 128.581 86.0353C128.342 85.9688 128.15 85.8788 128.007 85.7654L128.246 84.9058C128.349 84.9813 128.458 85.0351 128.573 85.0671C128.891 85.1552 129.239 84.8677 129.618 84.2046C130 83.5392 130.447 82.4842 130.958 81.0396L134.429 82.0023L132.996 87.1692ZM137.055 82.7305L136.32 85.3794C136.235 85.6877 136.084 86.1339 135.868 86.7181L139.573 83.4289L140.913 83.8008L139.48 88.9677L138.425 88.6748L139.146 86.0727C139.186 85.9295 139.258 85.6996 139.363 85.3831C139.47 85.0675 139.551 84.8383 139.604 84.6953L135.911 87.9777L134.571 87.6058L136.004 82.439L137.055 82.7305ZM143.446 84.5031L142.922 86.3905C142.775 86.9199 142.976 87.2607 143.524 87.4127C143.789 87.4861 144.057 87.522 144.329 87.5203C144.602 87.5156 144.906 87.4724 145.241 87.3907L145.856 85.1717L146.954 85.4762L145.521 90.6431L144.423 90.3386L145.031 88.1476C144.677 88.2506 144.346 88.308 144.037 88.3197C143.733 88.3292 143.414 88.2877 143.081 88.1953C142.542 88.0458 142.16 87.7906 141.935 87.4297C141.71 87.0656 141.668 86.6328 141.807 86.1314L142.343 84.1973L143.446 84.5031ZM149.049 88.281L150.343 88.6399C151.785 89.0398 152.368 89.7381 152.091 90.7347C151.945 91.2611 151.65 91.6103 151.207 91.7824C150.764 91.9515 150.189 91.9379 149.482 91.7418L147.091 91.0784L148.524 85.9116L149.621 86.2161L149.049 88.281ZM150.981 90.457C151.053 90.1985 151.005 89.9906 150.837 89.8334C150.669 89.6762 150.406 89.548 150.048 89.4486L148.819 89.1078L148.414 90.5701L149.661 90.916C150.022 91.0162 150.315 91.0268 150.538 90.9479C150.764 90.8697 150.912 90.7061 150.981 90.457ZM160.029 88.2373C159.387 88.0593 158.819 88.1467 158.326 88.4995C157.832 88.8523 157.474 89.4289 157.252 90.2293C157.02 91.0671 157.02 91.7497 157.253 92.2771C157.489 92.8053 157.941 93.1623 158.611 93.3481C158.901 93.4284 159.189 93.4781 159.475 93.4972C159.763 93.5132 160.065 93.5166 160.383 93.5075L160.117 94.4652C159.525 94.519 158.89 94.4518 158.211 94.2635C157.211 93.9862 156.528 93.4712 156.159 92.7184C155.792 91.9625 155.765 91.0208 156.078 89.8934C156.275 89.1833 156.576 88.5978 156.982 88.137C157.392 87.677 157.882 87.3735 158.452 87.2266C159.023 87.0796 159.64 87.0982 160.303 87.2822C161.001 87.4757 161.605 87.8009 162.116 88.2577L161.456 89.076C161.256 88.903 161.038 88.7402 160.802 88.5876C160.57 88.4326 160.312 88.3159 160.029 88.2373ZM163.89 95.7379L162.773 95.4282L164.402 89.556L162.393 88.9988L162.659 88.0411L167.793 89.4651L167.527 90.4228L165.519 89.8656L163.89 95.7379ZM169.079 93.2431L169.855 93.4582C170.375 93.6024 170.779 93.6104 171.066 93.4821C171.353 93.3538 171.549 93.0996 171.655 92.7197C171.762 92.3335 171.713 92.0213 171.507 91.7832C171.301 91.545 170.945 91.3555 170.437 91.2147L169.699 91.01L169.079 93.2431ZM168.823 94.1681L168.066 96.8963L166.95 96.5866L168.844 89.7567L170.773 90.2918C171.655 90.5363 172.262 90.8823 172.594 91.3299C172.926 91.7775 172.999 92.3346 172.814 93.0011C172.578 93.8513 171.968 94.3344 170.983 94.4503L172.075 98.008L170.804 97.6556L169.925 94.4738L168.823 94.1681Z" fill="#212121"/>
<rect x="225.042" y="82.9346" width="137.772" height="24.5906" rx="12.2953" transform="rotate(-4.1353 225.042 82.9346)" fill="#FF595A"/>
<path d="M244.082 91.6842C243.546 91.7229 242.979 91.9032 242.381 92.2252L241.896 91.3027C242.522 90.9528 243.233 90.7491 244.029 90.6915C245.08 90.6155 245.919 90.8741 246.545 91.4672C247.171 92.0571 247.524 92.9113 247.605 94.0299C247.691 95.2162 247.462 96.1498 246.918 96.8307C246.377 97.5082 245.554 97.8869 244.448 97.9668C243.713 98.0199 243.048 97.9627 242.453 97.7951L242.381 96.8039C242.71 96.8741 243.027 96.9289 243.331 96.9685C243.635 97.0049 243.947 97.0115 244.266 96.9884C245.007 96.9348 245.556 96.704 245.912 96.2958C246.271 95.8843 246.437 95.3068 246.409 94.5635L243.14 94.7999L243.069 93.8183L246.328 93.5827C246.237 92.9412 245.991 92.4535 245.591 92.1195C245.191 91.7855 244.688 91.6404 244.082 91.6842ZM252.207 91.9327L253.455 91.8425L251.431 94.5796L254.03 97.1768L252.724 97.2712L250.217 94.7257L250.413 97.4383L249.277 97.5205L248.89 92.1726L250.026 92.0904L250.214 94.687L252.207 91.9327ZM259.464 94.0863C259.527 94.9599 259.353 95.6578 258.94 96.1802C258.527 96.7026 257.921 96.9927 257.122 97.0505C256.622 97.0866 256.172 97.0057 255.772 96.8078C255.373 96.6099 255.054 96.3073 254.817 95.8999C254.58 95.4925 254.442 95.01 254.402 94.4523C254.339 93.5851 254.512 92.8921 254.922 92.3732C255.332 91.8543 255.941 91.5655 256.75 91.507C257.524 91.4511 258.154 91.6567 258.642 92.1237C259.129 92.5875 259.403 93.2417 259.464 94.0863ZM255.572 94.3677C255.661 95.6023 256.162 96.1867 257.074 96.1207C257.977 96.0555 258.383 95.4055 258.294 94.1709C258.206 92.9491 257.707 92.3711 256.798 92.4368C256.321 92.4713 255.986 92.6543 255.793 92.9859C255.603 93.3172 255.529 93.7778 255.572 94.3677ZM261.718 91.2451L261.874 93.392L264.393 93.2098L264.238 91.0629L265.374 90.9808L265.761 96.3287L264.624 96.4109L264.457 94.1044L261.938 94.2865L262.105 96.593L260.969 96.6752L260.582 91.3272L261.718 91.2451ZM271.94 93.1843C272.003 94.0579 271.828 94.7559 271.415 95.2783C271.003 95.8006 270.397 96.0907 269.597 96.1485C269.097 96.1847 268.648 96.1038 268.248 95.9059C267.848 95.7079 267.529 95.4053 267.293 94.9979C267.056 94.5905 266.917 94.108 266.877 93.5503C266.814 92.6832 266.988 91.9901 267.397 91.4712C267.807 90.9523 268.416 90.6636 269.226 90.6051C269.999 90.5491 270.63 90.7547 271.117 91.2217C271.604 91.6855 271.878 92.3397 271.94 93.1843ZM268.047 93.4657C268.136 94.7004 268.637 95.2847 269.549 95.2187C270.452 95.1535 270.859 94.5035 270.769 93.2689C270.681 92.0472 270.182 91.4691 269.273 91.5349C268.796 91.5694 268.461 91.7524 268.268 92.0839C268.078 92.4152 268.004 92.8758 268.047 93.4657ZM276.436 94.4632L276.482 94.2266C276.579 93.7367 276.667 93.3593 276.745 93.0945L277.733 90.0872L279.247 89.9778L279.633 95.3257L278.584 95.4016L278.272 91.0836L278.206 91.38C278.098 91.9095 278.003 92.3003 277.921 92.5525L276.959 95.519L276.099 95.5813L274.719 92.7646C274.527 92.3572 274.345 91.8957 274.171 91.38L274.484 95.698L273.444 95.7732L273.057 90.4253L274.561 90.3165L275.926 93.0662C276.049 93.3198 276.218 93.7855 276.436 94.4632ZM282.162 91.9154L283.502 91.8186C284.994 91.7106 285.778 92.1725 285.852 93.204C285.892 93.7488 285.731 94.1768 285.371 94.488C285.011 94.7959 284.465 94.9763 283.734 95.0293L281.258 95.2082L280.871 89.8603L282.008 89.7781L282.162 91.9154ZM284.713 93.3155C284.694 93.048 284.579 92.8683 284.368 92.7766C284.157 92.685 283.866 92.6525 283.496 92.6793L282.224 92.7713L282.333 94.2847L283.624 94.1914C283.998 94.1644 284.277 94.0761 284.461 93.9268C284.648 93.7772 284.732 93.5734 284.713 93.3155ZM290.557 89.1601L290.712 91.307L293.231 91.1248L293.076 88.9779L294.212 88.8958L294.599 94.2437L293.462 94.3259L293.296 92.0194L290.776 92.2015L290.943 94.508L289.807 94.5902L289.42 89.2422L290.557 89.1601ZM299.574 93.884L299.293 93.1557L299.255 93.1585C299.02 93.5028 298.777 93.744 298.524 93.8821C298.272 94.017 297.941 94.0993 297.531 94.1289C297.006 94.1669 296.585 94.0548 296.267 93.7925C295.954 93.5301 295.778 93.1393 295.74 92.6203C295.7 92.0691 295.875 91.6385 296.264 91.3284C296.653 91.0184 297.266 90.8201 298.102 90.7337L299.024 90.638L299.003 90.3527C298.978 90.011 298.879 89.7621 298.706 89.6062C298.536 89.4467 298.283 89.3791 297.948 89.4034C297.674 89.4232 297.414 89.4825 297.168 89.5812C296.923 89.68 296.688 89.7926 296.464 89.919L296.037 89.1332C296.317 88.9607 296.626 88.8233 296.965 88.721C297.304 88.6155 297.627 88.5516 297.933 88.5295C298.613 88.4803 299.137 88.5916 299.503 88.8632C299.873 89.1346 300.08 89.5878 300.126 90.2229L300.387 93.8252L299.574 93.884ZM297.826 93.2327C298.239 93.2028 298.561 93.0645 298.793 92.8177C299.027 92.5674 299.129 92.2343 299.099 91.8185L299.066 91.3543L298.381 91.433C297.848 91.491 297.464 91.6094 297.231 91.7883C297 91.9638 296.897 92.2159 296.921 92.5447C296.938 92.7832 297.022 92.9635 297.174 93.0854C297.325 93.2041 297.542 93.2532 297.826 93.2327ZM307.476 87.9368L308.723 87.8466L306.7 90.5836L309.298 93.1809L307.993 93.2753L305.485 90.7298L305.682 93.4424L304.545 93.5246L304.159 88.1766L305.295 88.0945L305.483 90.6911L307.476 87.9368ZM314.733 90.0903C314.796 90.9639 314.621 91.6619 314.209 92.1843C313.796 92.7067 313.19 92.9968 312.39 93.0546C311.891 93.0907 311.441 93.0098 311.041 92.8119C310.641 92.614 310.323 92.3113 310.086 91.904C309.849 91.4966 309.71 91.0141 309.67 90.4564C309.607 89.5892 309.781 88.8962 310.191 88.3773C310.6 87.8583 311.21 87.5696 312.019 87.5111C312.792 87.4552 313.423 87.6607 313.91 88.1278C314.398 88.5916 314.672 89.2458 314.733 90.0903ZM310.84 90.3718C310.93 91.6064 311.43 92.1907 312.343 92.1248C313.245 92.0595 313.652 91.4096 313.563 90.1749C313.474 88.9532 312.976 88.3752 312.067 88.4409C311.589 88.4754 311.254 88.6584 311.061 88.99C310.871 89.3212 310.798 89.7819 310.84 90.3718ZM319.229 91.3693L319.275 91.1326C319.373 90.6428 319.46 90.2654 319.538 90.0005L320.526 86.9932L322.04 86.8838L322.426 92.2318L321.377 92.3076L321.065 87.9896L320.999 88.286C320.891 88.8155 320.797 89.2064 320.714 89.4586L319.753 92.4251L318.892 92.4873L317.512 89.6707C317.32 89.2633 317.138 88.8017 316.965 88.2861L317.277 92.6041L316.237 92.6792L315.851 87.3313L317.354 87.2226L318.72 89.9722C318.842 90.2259 319.012 90.6916 319.229 91.3693ZM327.397 91.8724L327.116 91.1441L327.077 91.1469C326.843 91.4912 326.6 91.7324 326.347 91.8705C326.095 92.0054 325.763 92.0877 325.354 92.1173C324.829 92.1553 324.407 92.0432 324.09 91.7809C323.776 91.5185 323.601 91.1277 323.563 90.6087C323.523 90.0575 323.698 89.6269 324.087 89.3168C324.476 89.0068 325.089 88.8085 325.925 88.7222L326.847 88.6264L326.826 88.3411C326.801 87.9994 326.702 87.7505 326.529 87.5946C326.359 87.4351 326.106 87.3675 325.771 87.3918C325.497 87.4116 325.237 87.4709 324.991 87.5696C324.746 87.6684 324.511 87.781 324.287 87.9074L323.86 87.1216C324.14 86.9491 324.449 86.8117 324.788 86.7094C325.127 86.6039 325.45 86.5401 325.756 86.5179C326.436 86.4687 326.96 86.58 327.326 86.8516C327.696 87.123 327.903 87.5762 327.949 88.2113L328.21 91.8136L327.397 91.8724ZM325.649 91.2211C326.062 91.1912 326.384 91.0529 326.615 90.8061C326.85 90.5558 326.952 90.2227 326.922 89.8069L326.889 89.3427L326.204 89.4214C325.67 89.4794 325.287 89.5979 325.054 89.7767C324.823 89.9522 324.72 90.2043 324.744 90.5331C324.761 90.7717 324.845 90.9519 324.997 91.0738C325.148 91.1925 325.365 91.2416 325.649 91.2211ZM330.545 86.2689L330.701 88.4158L333.22 88.2336L333.065 86.0867L334.201 86.0046L334.588 91.3525L333.451 91.4347L333.284 89.1282L330.765 89.3103L330.932 91.6168L329.796 91.699L329.409 86.351L330.545 86.2689ZM341.484 92.7544L340.425 92.831L340.288 90.9403L336.623 91.2053L336.76 93.096L335.711 93.1718L335.51 90.4012L335.945 90.3697C336.286 89.7974 336.54 89.118 336.707 88.3315C336.877 87.5415 336.95 86.7001 336.928 85.8074L340.177 85.5725L340.5 90.0404L341.284 89.9837L341.484 92.7544ZM339.383 90.1211L339.123 86.5236L337.973 86.6068C337.959 87.2753 337.878 87.939 337.728 88.5979C337.581 89.2566 337.383 89.8186 337.135 90.2837L339.383 90.1211ZM344.681 90.72C343.849 90.7801 343.181 90.5854 342.675 90.1359C342.173 89.6829 341.89 89.0309 341.829 88.1799C341.766 87.3063 341.934 86.6039 342.333 86.0728C342.732 85.5417 343.312 85.2486 344.073 85.1936C344.779 85.1426 345.352 85.3166 345.792 85.7158C346.232 86.1149 346.48 86.69 346.534 87.4411L346.579 88.0552L343.015 88.3129C343.069 88.8307 343.238 89.2203 343.522 89.4816C343.807 89.7398 344.189 89.8515 344.669 89.8167C344.985 89.7939 345.276 89.7437 345.543 89.6661C345.813 89.585 346.099 89.4639 346.401 89.3026L346.468 90.2262C346.2 90.3784 345.927 90.4922 345.647 90.5675C345.367 90.6428 345.045 90.6936 344.681 90.72ZM344.135 86.0543C343.774 86.0804 343.492 86.2158 343.289 86.4606C343.09 86.7051 342.985 87.048 342.975 87.4895L345.402 87.314C345.364 86.8728 345.233 86.5468 345.011 86.3361C344.788 86.1222 344.496 86.0282 344.135 86.0543Z" fill="#212121"/>
<rect x="151.201" width="134.772" height="24.5906" rx="12.2953" transform="rotate(21.866 151.201 0)" fill="#01C08B"/>
<path d="M165.988 21.194C165.458 22.5138 164.348 22.8343 162.656 22.1554L160.744 21.388L163.383 14.8101L167.397 16.4207L167.027 17.343L164.089 16.164L163.386 17.9142L164.169 18.2283C165.897 18.9217 166.503 19.9103 165.988 21.194ZM162.182 20.9152L162.956 21.2257C163.472 21.4328 163.883 21.5005 164.191 21.4288C164.499 21.3541 164.729 21.1278 164.881 20.7499C165.027 20.3869 165.01 20.0772 164.831 19.8207C164.656 19.5625 164.268 19.313 163.669 19.0722L163.025 18.814L162.182 20.9152ZM171.806 22.9282C171.48 23.741 171.017 24.2918 170.417 24.5804C169.817 24.869 169.145 24.864 168.401 24.5655C167.936 24.3789 167.568 24.109 167.295 23.7558C167.022 23.4026 166.869 22.991 166.834 22.5211C166.8 22.0511 166.887 21.5567 167.095 21.0377C167.419 20.2309 167.879 19.684 168.475 19.3972C169.07 19.1104 169.745 19.1181 170.497 19.4202C171.217 19.7091 171.694 20.1703 171.927 20.8037C172.162 21.4342 172.121 22.1423 171.806 22.9282ZM168.184 21.4747C167.723 22.6235 167.917 23.3682 168.766 23.7089C169.606 24.0459 170.256 23.64 170.717 22.4912C171.173 21.3544 170.979 20.6163 170.133 20.2768C169.689 20.0987 169.307 20.1163 168.989 20.3296C168.673 20.5441 168.404 20.9258 168.184 21.4747ZM176.113 27.5558L175.047 27.1279L176.712 22.9796L175.339 22.4289C174.827 23.463 174.378 24.2512 173.993 24.7933C173.612 25.3366 173.25 25.6999 172.908 25.8832C172.57 26.0676 172.217 26.0864 171.851 25.9396C171.62 25.8469 171.44 25.7363 171.311 25.6077L171.643 24.7798C171.737 24.8663 171.84 24.9319 171.951 24.9764C172.256 25.0992 172.634 24.8521 173.084 24.235C173.538 23.6161 174.099 22.6172 174.767 21.2381L178.11 22.5797L176.113 27.5558ZM179.886 25.6011L181.132 26.1013C182.521 26.6586 183.022 27.4172 182.637 28.377C182.434 28.8839 182.102 29.1984 181.642 29.3203C181.184 29.4392 180.614 29.362 179.933 29.0888L177.629 28.1643L179.626 23.1882L180.684 23.6125L179.886 25.6011ZM181.565 27.9779C181.664 27.7289 181.64 27.5171 181.491 27.3422C181.341 27.1674 181.094 27.0108 180.749 26.8724L179.566 26.3975L179.001 27.8058L180.202 28.2879C180.55 28.4275 180.839 28.4704 181.07 28.4167C181.303 28.3641 181.468 28.2179 181.565 27.9779ZM190.241 33.2254L183.19 30.396L185.187 25.4199L186.245 25.8442L184.584 29.9835L186.523 30.7617L188.184 26.6224L189.241 27.0467L187.58 31.186L189.515 31.9624L191.176 27.8231L192.238 28.2492L190.241 33.2254ZM193.894 34.7959C193.12 34.4854 192.604 34.0172 192.347 33.3916C192.094 32.7641 192.126 32.0545 192.444 31.2626C192.77 30.4497 193.229 29.8921 193.821 29.5897C194.412 29.2872 195.062 29.2781 195.77 29.5622C196.427 29.8258 196.865 30.2335 197.086 30.7853C197.307 31.3371 197.277 31.9624 196.997 32.6613L196.768 33.2327L193.452 31.902C193.273 32.3909 193.254 32.8152 193.395 33.1749C193.538 33.5316 193.832 33.7996 194.279 33.9789C194.573 34.0969 194.857 34.1794 195.131 34.2266C195.408 34.2719 195.719 34.2884 196.061 34.2762L195.717 35.1356C195.409 35.155 195.113 35.1373 194.829 35.0824C194.545 35.0274 194.233 34.9319 193.894 34.7959ZM195.448 30.363C195.112 30.2282 194.8 30.2263 194.51 30.3575C194.224 30.4898 193.979 30.7521 193.777 31.1444L196.035 32.0508C196.194 31.6374 196.22 31.2872 196.112 31.0002C196.005 30.7102 195.784 30.4978 195.448 30.363ZM205.265 34.9555C205.029 35.5434 204.543 35.761 203.807 35.6083L203.792 35.6443C204.158 35.8434 204.403 36.0828 204.528 36.3626C204.652 36.6425 204.651 36.9398 204.525 37.2548C204.336 37.7257 204.01 38.0164 203.548 38.1269C203.09 38.2357 202.519 38.1528 201.835 37.8783L199.46 36.925L201.457 31.9488L203.823 32.8986C205.125 33.421 205.606 34.1066 205.265 34.9555ZM203.466 36.7567C203.562 36.5167 203.537 36.3099 203.391 36.1363C203.246 35.9597 202.988 35.7967 202.616 35.6475L201.396 35.1582L200.831 36.5664L202.077 37.0666C202.803 37.3579 203.266 37.2546 203.466 36.7567ZM204.171 34.6211C204.251 34.4232 204.23 34.2494 204.109 34.0998C203.992 33.9485 203.781 33.8114 203.475 33.6886L202.193 33.174L201.712 34.3708L202.837 34.8222C203.191 34.9642 203.478 35.027 203.697 35.0104C203.917 34.9909 204.075 34.8611 204.171 34.6211ZM210.446 38.4345C210.119 39.2474 209.656 39.7981 209.056 40.0867C208.456 40.3753 207.785 40.3703 207.041 40.0718C206.576 39.8852 206.207 39.6154 205.934 39.2621C205.662 38.9089 205.508 38.4973 205.474 38.0274C205.44 37.5574 205.527 37.063 205.735 36.5441C206.059 35.7372 206.518 35.1904 207.114 34.9035C207.71 34.6167 208.384 34.6244 209.137 34.9265C209.857 35.2154 210.333 35.6766 210.567 36.31C210.801 36.9405 210.761 37.6486 210.446 38.4345ZM206.824 36.981C206.363 38.1298 206.557 38.8745 207.405 39.2152C208.245 39.5522 208.896 39.1463 209.357 37.9975C209.813 36.8607 209.618 36.1226 208.772 35.7832C208.328 35.605 207.947 35.6226 207.628 35.8359C207.312 36.0504 207.044 36.4321 206.824 36.981ZM216.468 39.4514C216.232 40.0393 215.746 40.2569 215.01 40.1042L214.995 40.1402C215.361 40.3393 215.606 40.5787 215.731 40.8585C215.855 41.1384 215.854 41.4357 215.728 41.7507C215.539 42.2216 215.213 42.5123 214.751 42.6228C214.293 42.7315 213.722 42.6487 213.038 42.3742L210.663 41.4209L212.66 36.4447L215.026 37.3945C216.328 37.9169 216.809 38.6025 216.468 39.4514ZM214.669 41.2525C214.765 41.0126 214.74 40.8058 214.594 40.6322C214.449 40.4556 214.191 40.2926 213.819 40.1434L212.599 39.6541L212.034 41.0623L213.281 41.5625C214.006 41.8538 214.469 41.7505 214.669 41.2525ZM215.375 39.117C215.454 38.9191 215.433 38.7453 215.312 38.5957C215.195 38.4443 214.984 38.3073 214.678 38.1845L213.396 37.6699L212.915 38.8667L214.04 39.3181C214.394 39.4601 214.681 39.5229 214.9 39.5063C215.12 39.4868 215.278 39.357 215.375 39.117ZM220.323 45.2975L219.256 44.8695L220.921 40.7212L219.549 40.1705C219.036 41.2047 218.588 41.9928 218.203 42.5349C217.821 43.0782 217.459 43.4415 217.118 43.6248C216.779 43.8092 216.427 43.8281 216.061 43.6812C215.83 43.5885 215.65 43.4779 215.52 43.3493L215.852 42.5214C215.946 42.608 216.049 42.6735 216.16 42.718C216.466 42.8408 216.844 42.5937 217.293 41.9766C217.747 41.3577 218.308 40.3588 218.977 38.9798L222.32 40.3213L220.323 45.2975ZM223.976 46.868C223.202 46.5575 222.686 46.0893 222.429 45.4637C222.176 44.8362 222.208 44.1266 222.526 43.3347C222.852 42.5218 223.311 41.9642 223.903 41.6618C224.494 41.3593 225.144 41.3502 225.852 41.6343C226.508 41.8979 226.947 42.3056 227.168 42.8574C227.389 43.4092 227.359 44.0345 227.079 44.7334L226.849 45.3048L223.533 43.9741C223.355 44.463 223.336 44.8873 223.477 45.247C223.62 45.6037 223.914 45.8717 224.361 46.051C224.655 46.169 224.939 46.2515 225.213 46.2987C225.49 46.344 225.801 46.3605 226.143 46.3483L225.798 47.2077C225.491 47.2271 225.195 47.2094 224.911 47.1545C224.626 47.0995 224.315 47.004 223.976 46.868ZM225.53 42.4351C225.194 42.3003 224.882 42.2985 224.592 42.4296C224.306 42.5619 224.061 42.8242 223.858 43.2165L226.117 44.1229C226.276 43.7095 226.302 43.3593 226.194 43.0723C226.087 42.7823 225.866 42.5699 225.53 42.4351ZM230.076 43.4341L229.347 45.2518C229.142 45.7617 229.304 46.1226 229.832 46.3345C230.087 46.4368 230.349 46.5022 230.62 46.5307C230.892 46.5562 231.199 46.547 231.54 46.5029L232.398 44.3658L233.455 44.7901L231.458 49.7663L230.401 49.342L231.248 47.2318C230.885 47.295 230.549 47.3154 230.241 47.2928C229.937 47.2685 229.625 47.1919 229.304 47.0631C228.785 46.8548 228.434 46.5589 228.25 46.1751C228.068 45.7884 228.073 45.3536 228.267 44.8707L229.014 43.008L230.076 43.4341ZM235.107 51.335C234.333 51.0245 233.817 50.5564 233.56 49.9307C233.307 49.3032 233.339 48.5936 233.657 47.8017C233.983 46.9888 234.442 46.4312 235.034 46.1288C235.625 45.8264 236.275 45.8172 236.983 46.1013C237.64 46.3649 238.078 46.7726 238.299 47.3244C238.52 47.8762 238.49 48.5015 238.21 49.2004L237.981 49.7718L234.665 48.4411C234.486 48.93 234.467 49.3543 234.608 49.714C234.751 50.0707 235.045 50.3387 235.492 50.518C235.786 50.636 236.07 50.7185 236.344 50.7657C236.621 50.811 236.932 50.8275 237.274 50.8153L236.93 51.6747C236.622 51.6941 236.326 51.6764 236.042 51.6215C235.758 51.5665 235.446 51.471 235.107 51.335ZM236.661 46.9021C236.325 46.7673 236.013 46.7655 235.723 46.8966C235.437 47.0289 235.192 47.2912 234.99 47.6835L237.248 48.5899C237.407 48.1765 237.433 47.8264 237.325 47.5394C237.218 47.2493 236.997 47.0369 236.661 46.9021ZM241.333 47.9517L240.532 49.9493L242.876 50.8901L243.677 48.8924L244.735 49.3167L242.738 54.2929L241.68 53.8685L242.542 51.7224L240.198 50.7817L239.336 52.9278L238.279 52.5035L240.276 47.5274L241.333 47.9517ZM247.263 50.3314L246.24 52.8825C246.12 53.1795 245.921 53.6062 245.642 54.1629L249.688 51.3046L250.98 51.8228L248.983 56.799L247.966 56.3909L248.972 53.8849C249.027 53.7469 249.124 53.5264 249.263 53.2235C249.405 52.9218 249.51 52.7028 249.579 52.5667L245.545 55.4195L244.254 54.9013L246.251 49.9252L247.263 50.3314ZM252.627 58.3659C251.853 58.0554 251.338 57.5873 251.08 56.9616C250.827 56.3341 250.859 55.6245 251.177 54.8326C251.503 54.0198 251.962 53.4621 252.554 53.1597C253.145 52.8573 253.795 52.8481 254.503 53.1322C255.16 53.3958 255.598 53.8035 255.819 54.3553C256.04 54.9071 256.01 55.5325 255.73 56.2313L255.501 56.8027L252.185 55.472C252.006 55.961 251.987 56.3853 252.128 56.7449C252.271 57.1016 252.565 57.3696 253.012 57.549C253.306 57.6669 253.59 57.7495 253.864 57.7966C254.142 57.8419 254.452 57.8585 254.794 57.8462L254.45 58.7056C254.142 58.7251 253.846 58.7073 253.562 58.6524C253.278 58.5974 252.966 58.502 252.627 58.3659ZM254.181 53.933C253.845 53.7982 253.533 53.7964 253.243 53.9275C252.957 54.0598 252.712 54.3221 252.51 54.7144L254.768 55.6208C254.927 55.2074 254.953 54.8573 254.845 54.5703C254.738 54.2803 254.517 54.0679 254.181 53.933Z" fill="#212121"/>
<rect x="412" y="87.207" width="163.772" height="24.5906" rx="12.2953" transform="rotate(-6.03105 412 87.207)" fill="#01C08B"/>
<path d="M435.057 94.0298L433.364 99.2786C433.156 99.9214 432.952 100.393 432.753 100.694C432.554 100.991 432.31 101.22 432.022 101.38C431.736 101.54 431.38 101.643 430.952 101.688C430.579 101.728 430.229 101.716 429.9 101.653L429.791 100.617C430.119 100.709 430.455 100.736 430.799 100.7C431.092 100.669 431.328 100.573 431.51 100.411C431.694 100.245 431.846 99.9671 431.968 99.5773L428.823 94.6884L430.067 94.557L432.162 97.9091C432.351 98.227 432.47 98.4404 432.517 98.5491L432.565 98.5441C432.576 98.4584 432.61 98.32 432.668 98.1286L433.852 94.1571L435.057 94.0298ZM440.826 96.5354C440.892 97.1654 440.565 97.5852 439.842 97.7947L439.847 97.8333C440.263 97.838 440.592 97.9349 440.833 98.124C441.074 98.313 441.212 98.5763 441.248 98.9137C441.301 99.4184 441.149 99.8276 440.792 100.142C440.438 100.452 439.895 100.646 439.162 100.723L436.617 100.992L436.053 95.66L438.589 95.3921C439.984 95.2447 440.73 95.6258 440.826 96.5354ZM440.079 98.969C440.051 98.7119 439.933 98.5408 439.722 98.4558C439.511 98.3676 439.207 98.3445 438.808 98.3866L437.502 98.5246L437.661 100.034L438.996 99.8926C439.774 99.8104 440.135 99.5025 440.079 98.969ZM439.703 96.7516C439.681 96.5394 439.581 96.3956 439.404 96.32C439.23 96.2409 438.979 96.2187 438.651 96.2533L437.277 96.3985L437.412 97.6809L438.618 97.5536C438.997 97.5135 439.28 97.4349 439.465 97.3178C439.651 97.1974 439.73 97.0087 439.703 96.7516ZM444.924 100.212C444.095 100.3 443.42 100.127 442.9 99.6947C442.383 99.2586 442.079 98.6163 441.989 97.7677C441.897 96.8967 442.042 96.1892 442.423 95.6452C442.805 95.1011 443.375 94.789 444.133 94.7089C444.837 94.6345 445.416 94.7895 445.869 95.1739C446.322 95.5582 446.589 96.1248 446.668 96.8737L446.732 97.486L443.179 97.8614C443.25 98.3772 443.432 98.761 443.725 99.0128C444.018 99.2613 444.403 99.3603 444.882 99.3097C445.197 99.2764 445.487 99.2166 445.751 99.1302C446.017 99.0403 446.299 98.9098 446.597 98.7386L446.694 99.6595C446.431 99.8204 446.162 99.9432 445.884 100.028C445.607 100.112 445.287 100.174 444.924 100.212ZM444.224 95.5671C443.864 95.6051 443.587 95.7498 443.392 96.0011C443.201 96.252 443.107 96.5983 443.112 97.0398L445.532 96.7841C445.479 96.3444 445.338 96.023 445.108 95.8197C444.879 95.6132 444.584 95.529 444.224 95.5671ZM452.657 99.2976L451.514 99.4183L451.044 94.9732L449.574 95.1285C449.605 96.2823 449.577 97.1887 449.491 97.8478C449.408 98.5066 449.258 98.9969 449.042 99.3188C448.829 99.6403 448.526 99.8218 448.134 99.8632C447.886 99.8893 447.675 99.8759 447.501 99.8228L447.407 98.9357C447.531 98.9682 447.652 98.9781 447.771 98.9655C448.099 98.9309 448.317 98.5357 448.426 97.78C448.537 97.0207 448.566 95.8753 448.511 94.3438L452.093 93.9654L452.657 99.2976ZM454.803 93.6791L455.092 96.4127C455.125 96.7309 455.149 97.2013 455.163 97.8238L457.401 93.4046L458.785 93.2584L459.349 98.5906L458.259 98.7057L457.975 96.0203C457.96 95.8725 457.942 95.6322 457.923 95.2994C457.908 94.9663 457.898 94.7236 457.895 94.5711L455.665 98.9797L454.281 99.1259L453.718 93.7937L454.803 93.6791ZM461.398 92.9823L461.604 94.93C461.662 95.4764 461.973 95.7198 462.539 95.66C462.812 95.6311 463.075 95.566 463.328 95.4646C463.58 95.3599 463.847 95.2082 464.128 95.0095L463.886 92.7195L465.019 92.5998L465.582 97.932L464.449 98.0517L464.21 95.7905C463.919 96.0163 463.632 96.1913 463.349 96.3154C463.07 96.436 462.758 96.5144 462.414 96.5507C461.858 96.6095 461.409 96.5123 461.067 96.2592C460.724 96.0028 460.526 95.6159 460.471 95.0985L460.26 93.1025L461.398 92.9823ZM467.997 94.4399L469.332 94.2988C470.821 94.1415 471.619 94.5772 471.728 95.6057C471.785 96.1489 471.639 96.5819 471.29 96.9049C470.94 97.2246 470.4 97.423 469.671 97.5L467.202 97.7608L466.639 92.4286L467.772 92.3089L467.997 94.4399ZM470.593 95.7549C470.565 95.4881 470.444 95.3124 470.23 95.2277C470.016 95.143 469.725 95.1202 469.355 95.1593L468.087 95.2932L468.247 96.8022L469.534 96.6662C469.907 96.6269 470.182 96.5295 470.361 96.3741C470.543 96.2184 470.62 96.012 470.593 95.7549ZM480.173 93.6848C480.265 94.5559 480.113 95.2592 479.718 95.795C479.323 96.3307 478.727 96.6407 477.93 96.7249C477.432 96.7776 476.979 96.7116 476.573 96.527C476.167 96.3424 475.839 96.0505 475.589 95.6512C475.338 95.2519 475.184 94.7742 475.125 94.2181C475.034 93.3535 475.184 92.6551 475.577 92.1229C475.969 91.5907 476.568 91.282 477.375 91.1968C478.146 91.1153 478.783 91.2999 479.286 91.7505C479.788 92.198 480.084 92.8427 480.173 93.6848ZM476.292 94.0949C476.422 95.3259 476.942 95.8933 477.851 95.7972C478.751 95.7021 479.136 95.0391 479.006 93.8081C478.878 92.5899 478.36 92.0287 477.454 92.1245C476.978 92.1748 476.649 92.3688 476.467 92.7065C476.288 93.0439 476.23 93.5067 476.292 94.0949ZM482.66 93.3733L480.596 90.954L481.888 90.8175L483.3 92.5549L484.328 90.5597L485.61 90.4242L484.092 93.222L486.265 95.7468L484.983 95.8823L483.456 94.0254L482.355 96.1599L481.073 96.2954L482.66 93.3733ZM491.41 91.1911C491.476 91.8211 491.148 92.2409 490.426 92.4504L490.43 92.489C490.847 92.4937 491.176 92.5906 491.417 92.7797C491.658 92.9687 491.796 93.232 491.832 93.5694C491.885 94.0741 491.733 94.4833 491.376 94.7973C491.022 95.1077 490.479 95.3016 489.746 95.379L487.2 95.648L486.637 90.3157L489.173 90.0478C490.568 89.9004 491.314 90.2816 491.41 91.1911ZM490.662 93.6247C490.635 93.3676 490.516 93.1965 490.306 93.1115C490.095 93.0233 489.79 93.0002 489.392 93.0423L488.085 93.1804L488.245 94.6894L489.58 94.5483C490.358 94.4661 490.719 94.1583 490.662 93.6247ZM490.287 91.4073C490.264 91.1951 490.165 91.0513 489.988 90.9757C489.814 90.8966 489.563 90.8744 489.235 90.909L487.861 91.0542L487.996 92.3367L489.202 92.2093C489.581 92.1692 489.863 92.0906 490.049 91.9735C490.235 91.8531 490.314 91.6644 490.287 91.4073ZM496.505 94.6649L496.2 93.9464L496.162 93.9504C495.939 94.3022 495.704 94.5513 495.456 94.6978C495.208 94.841 494.88 94.9342 494.471 94.9773C493.947 95.0326 493.523 94.9345 493.197 94.6829C492.875 94.431 492.686 94.0463 492.632 93.5288C492.574 92.9792 492.734 92.543 493.112 92.2202C493.491 91.8975 494.097 91.6791 494.93 91.5651L495.848 91.4389L495.818 91.1544C495.782 90.8137 495.674 90.5683 495.496 90.4182C495.321 90.2644 495.066 90.2053 494.731 90.2406C494.458 90.2694 494.201 90.3373 493.958 90.4441C493.716 90.551 493.485 90.6712 493.265 90.805L492.813 90.0337C493.087 89.8521 493.391 89.7046 493.727 89.5911C494.062 89.4744 494.383 89.3999 494.688 89.3677C495.366 89.296 495.893 89.3899 496.268 89.6492C496.646 89.9083 496.869 90.3544 496.936 90.9875L497.315 94.5793L496.505 94.6649ZM494.736 94.0718C495.148 94.0283 495.465 93.8794 495.689 93.6251C495.915 93.3672 496.006 93.0309 495.962 92.6163L495.913 92.1534L495.232 92.2547C494.7 92.3303 494.321 92.4614 494.094 92.6479C493.869 92.8309 493.774 93.0863 493.809 93.4141C493.834 93.652 493.924 93.8293 494.08 93.9462C494.235 94.0598 494.454 94.1017 494.736 94.0718ZM502.34 88.6567L502.433 89.5438L500.698 89.7272L501.167 94.1723L500.03 94.2925L499.56 89.8474L497.824 90.0308L497.731 89.1437L502.34 88.6567ZM509.831 93.257L509.526 92.5385L509.488 92.5426C509.265 92.8943 509.029 93.1435 508.782 93.2899C508.533 93.4331 508.205 93.5263 507.797 93.5694C507.273 93.6247 506.848 93.5266 506.523 93.275C506.201 93.0231 506.012 92.6384 505.957 92.1209C505.899 91.5713 506.06 91.1351 506.438 90.8123C506.817 90.4896 507.423 90.2712 508.256 90.1572L509.173 90.031L509.143 89.7465C509.107 89.4058 509 89.1604 508.822 89.0103C508.646 88.8566 508.391 88.7974 508.057 88.8327C507.784 88.8615 507.526 88.9294 507.284 89.0362C507.042 89.1431 506.811 89.2634 506.591 89.3971L506.139 88.6258C506.412 88.4442 506.717 88.2967 507.053 88.1832C507.388 88.0665 507.708 87.992 508.014 87.9598C508.692 87.8881 509.219 87.982 509.594 88.2413C509.972 88.5004 510.195 88.9465 510.262 89.5796L510.641 93.1714L509.831 93.257ZM508.062 92.6639C508.474 92.6204 508.791 92.4715 509.014 92.2172C509.241 91.9593 509.332 91.623 509.288 91.2084L509.239 90.7455L508.558 90.8468C508.026 90.9225 507.647 91.0535 507.419 91.2401C507.195 91.423 507.1 91.6784 507.135 92.0063C507.16 92.2441 507.25 92.4214 507.405 92.5383C507.56 92.6519 507.779 92.6938 508.062 92.6639ZM510.849 87.7577L512.083 87.6273L513.487 90.5356C513.697 90.9489 513.849 91.3424 513.944 91.7159L513.982 91.7118C513.992 91.532 514.023 91.3126 514.074 91.0538C514.124 90.7917 514.405 89.5497 514.918 87.3278L516.143 87.1984L514.501 93.4803C514.203 94.633 513.571 95.2604 512.603 95.3626C512.352 95.3891 512.105 95.3876 511.862 95.3581L511.767 94.4613C511.941 94.4819 512.138 94.4807 512.356 94.4576C512.903 94.3998 513.253 94.0427 513.408 93.3861L513.553 92.8638L510.849 87.7577ZM522.831 93.7897L521.775 93.9013L521.576 92.0162L517.921 92.4023L518.12 94.2874L517.074 94.3979L516.782 91.6354L517.216 91.5895C517.538 91.0063 517.769 90.3188 517.91 89.5272C518.053 88.7321 518.099 87.8887 518.047 86.9972L521.287 86.6549L521.758 91.1097L522.539 91.0272L522.831 93.7897ZM520.644 91.2274L520.265 87.6404L519.118 87.7616C519.126 88.4302 519.067 89.0962 518.939 89.7598C518.814 90.423 518.635 90.9911 518.402 91.4642L520.644 91.2274ZM524.141 86.3534L524.43 89.087C524.464 89.4052 524.487 89.8756 524.501 90.4981L526.74 86.0788L528.123 85.9326L528.687 91.2649L527.597 91.38L527.313 88.6946C527.298 88.5467 527.281 88.3064 527.262 87.9737C527.246 87.6406 527.237 87.3978 527.233 87.2454L525.003 91.654L523.62 91.8002L523.056 86.468L524.141 86.3534ZM533.745 85.3387L533.839 86.2258L532.103 86.4092L532.573 90.8543L531.435 90.9745L530.965 86.5294L529.23 86.7128L529.136 85.8257L533.745 85.3387ZM539.782 87.387C539.874 88.258 539.722 88.9614 539.327 89.4972C538.932 90.0329 538.336 90.3429 537.539 90.4271C537.041 90.4797 536.589 90.4138 536.182 90.2292C535.776 90.0446 535.448 89.7527 535.198 89.3533C534.947 88.954 534.793 88.4763 534.734 87.9203C534.643 87.0557 534.793 86.3573 535.186 85.8251C535.578 85.2929 536.177 84.9842 536.984 84.899C537.756 84.8175 538.393 85.0021 538.895 85.4527C539.397 85.9001 539.693 86.5449 539.782 87.387ZM535.901 87.797C536.031 89.028 536.551 89.5955 537.46 89.4994C538.36 89.4043 538.745 88.7413 538.615 87.5103C538.487 86.2921 537.969 85.7309 537.063 85.8267C536.587 85.8769 536.258 86.0709 536.076 86.4087C535.897 86.7461 535.839 87.2089 535.901 87.797ZM544.086 89.7354C543.411 89.8067 542.862 89.6194 542.438 89.1734L542.37 89.1806C542.463 89.6258 542.514 89.8966 542.524 89.993L542.755 92.177L541.622 92.2967L540.808 84.5925L541.724 84.4957C541.76 84.5926 541.838 84.8249 541.958 85.1924L542.016 85.1863C542.313 84.609 542.815 84.283 543.522 84.2083C544.187 84.138 544.73 84.3244 545.151 84.7674C545.574 85.2102 545.832 85.867 545.924 86.7381C546.016 87.6091 545.898 88.3089 545.571 88.8375C545.246 89.3658 544.751 89.6651 544.086 89.7354ZM543.325 85.165C542.875 85.2126 542.56 85.3791 542.379 85.6648C542.201 85.9501 542.143 86.382 542.204 86.9605L542.222 87.1293C542.29 87.7785 542.443 88.2385 542.679 88.5093C542.916 88.7768 543.267 88.886 543.733 88.8367C544.125 88.7953 544.41 88.6027 544.588 88.2588C544.766 87.915 544.824 87.4458 544.761 86.8512C544.698 86.2534 544.544 85.813 544.3 85.53C544.058 85.2436 543.734 85.1219 543.325 85.165ZM548.045 83.8279L548.333 86.5615C548.367 86.8797 548.391 87.3501 548.404 87.9727L550.643 83.5534L552.027 83.4072L552.59 88.7394L551.501 88.8545L551.217 86.1691C551.201 86.0213 551.184 85.781 551.165 85.4482C551.149 85.1151 551.14 84.8724 551.137 84.72L548.907 89.1286L547.523 89.2748L546.96 83.9425L548.045 83.8279ZM554.727 83.1219L555.015 85.8556C555.049 86.1738 555.073 86.6441 555.087 87.2667L557.325 82.8474L558.709 82.7012L559.272 88.0334L558.183 88.1485L557.899 85.4632C557.883 85.3153 557.866 85.075 557.847 84.7422C557.832 84.4092 557.822 84.1664 557.819 84.014L555.589 88.4226L554.205 88.5688L553.642 83.2366L554.727 83.1219Z" fill="#212121"/>
<rect x="380.972" y="4" width="229.772" height="24.5906" rx="12.2953" transform="rotate(4.59878 380.972 4)" fill="#2A7DE1"/>
<path d="M400.816 21.9442L400.268 19.9255L397.566 19.7082L396.718 21.6145L395.5 21.5166L398.714 14.6352L399.97 14.7363L402.043 22.0429L400.816 21.9442ZM400.043 18.9055L399.536 16.9289C399.498 16.7962 399.447 16.5878 399.382 16.3037C399.321 16.0199 399.279 15.8123 399.257 15.6809C399.138 16.0701 398.976 16.4932 398.771 16.9501L397.985 18.7399L400.043 18.9055ZM407.83 24.4101L406.772 24.325L406.924 22.4355L403.261 22.1408L403.109 24.0303L402.06 23.946L402.283 21.177L402.718 21.212C403.142 20.6981 403.496 20.0651 403.78 19.313C404.068 18.558 404.268 17.7376 404.382 16.8518L407.629 17.113L407.27 21.5781L408.053 21.6411L407.83 24.4101ZM406.154 21.4883L406.443 17.893L405.293 17.8005C405.178 18.4593 404.997 19.1029 404.748 19.7314C404.503 20.3602 404.223 20.8856 403.907 21.3076L406.154 21.4883ZM412.317 22.8693L412.149 22.1068L412.111 22.1037C411.827 22.4084 411.55 22.6098 411.279 22.708C411.009 22.803 410.669 22.834 410.26 22.8011C409.735 22.7589 409.335 22.5841 409.062 22.2767C408.792 21.9697 408.677 21.5568 408.719 21.0381C408.763 20.4872 409.001 20.0881 409.433 19.8407C409.865 19.5933 410.5 19.4905 411.34 19.5321L412.265 19.5773L412.288 19.2922C412.316 18.9507 412.256 18.6897 412.108 18.5092C411.964 18.3258 411.724 18.2206 411.389 18.1936C411.115 18.1716 410.85 18.1908 410.592 18.2511C410.334 18.3114 410.085 18.387 409.844 18.4779L409.542 17.6365C409.844 17.5084 410.171 17.4196 410.522 17.37C410.873 17.3172 411.202 17.3031 411.508 17.3277C412.187 17.3824 412.688 17.5718 413.009 17.8959C413.333 18.2203 413.469 18.6998 413.418 19.3344L413.128 22.9346L412.317 22.8693ZM410.688 21.96C411.1 21.9932 411.439 21.9054 411.706 21.6966C411.976 21.4849 412.127 21.1712 412.161 20.7556L412.198 20.2917L411.51 20.2655C410.973 20.2418 410.576 20.3007 410.318 20.4421C410.064 20.5805 409.924 20.814 409.897 21.1426C409.878 21.381 409.934 21.572 410.065 21.7154C410.197 21.8557 410.404 21.9372 410.688 21.96ZM419.816 18.0933L419.386 23.4379L418.246 23.3462L418.604 18.9004L416.207 18.7076L415.849 23.1534L414.714 23.0621L415.143 17.7174L419.816 18.0933ZM425.461 18.5473L425.389 19.4365L423.649 19.2965L423.291 23.752L422.151 23.6603L422.509 19.2048L420.769 19.0649L420.841 18.1757L425.461 18.5473ZM427.577 18.7176L427.357 21.4575C427.331 21.7765 427.268 22.2431 427.166 22.8575L430.182 18.9271L431.569 19.0386L431.139 24.3833L430.047 24.2954L430.263 21.6038C430.275 21.4556 430.303 21.2162 430.345 20.8857C430.391 20.5554 430.427 20.3151 430.452 20.1647L427.447 24.0863L426.06 23.9747L426.49 18.6301L427.577 18.7176ZM435.461 24.8282C434.784 24.7738 434.279 24.4883 433.944 23.9718L433.877 23.9663C433.885 24.421 433.886 24.6966 433.878 24.7933L433.702 26.9824L432.566 26.891L433.188 19.1688L434.106 19.2427C434.124 19.3446 434.158 19.5873 434.208 19.9707L434.266 19.9754C434.664 19.4627 435.217 19.2348 435.926 19.2918C436.593 19.3455 437.092 19.6288 437.423 20.1418C437.758 20.6551 437.891 21.3483 437.82 22.2214C437.75 23.0944 437.505 23.7605 437.086 24.2196C436.669 24.679 436.128 24.8818 435.461 24.8282ZM435.556 20.1959C435.105 20.1596 434.764 20.2652 434.534 20.5125C434.306 20.7601 434.169 21.1738 434.123 21.7537L434.109 21.9228C434.057 22.5736 434.122 23.0539 434.304 23.3636C434.487 23.6701 434.812 23.8422 435.279 23.8798C435.672 23.9114 435.988 23.7747 436.227 23.4696C436.465 23.1646 436.609 22.714 436.657 22.118C436.705 21.5188 436.635 21.0576 436.447 20.7345C436.262 20.4084 435.965 20.2288 435.556 20.1959ZM438.542 19.5995L439.779 19.699L440.623 22.8164C440.752 23.2613 440.829 23.6761 440.853 24.0606L440.892 24.0637C440.935 23.8889 441.006 23.6789 441.103 23.4338C441.201 23.1856 441.707 22.0168 442.62 19.9276L443.848 20.0263L441.075 25.8975C440.57 26.9755 439.833 27.4755 438.863 27.3975C438.612 27.3773 438.369 27.3302 438.135 27.2563L438.207 26.3575C438.375 26.4098 438.568 26.4449 438.788 26.4625C439.335 26.5065 439.746 26.2202 440.019 25.6034L440.258 25.1168L438.542 19.5995ZM445.747 20.1791L445.527 22.9191C445.501 23.238 445.438 23.7047 445.336 24.3191L448.352 20.3886L449.739 20.5002L449.309 25.8448L448.217 25.7569L448.433 23.0653C448.445 22.9171 448.472 22.6777 448.515 22.3472C448.561 22.0169 448.597 21.7766 448.622 21.6262L445.617 25.5478L444.23 25.4363L444.66 20.0916L445.747 20.1791ZM447.215 19.6406C446.532 19.5857 446.041 19.4229 445.742 19.1525C445.446 18.879 445.304 18.4525 445.315 17.873L446.344 17.9558C446.345 18.1893 446.374 18.3732 446.431 18.5075C446.492 18.6421 446.584 18.7435 446.708 18.8119C446.836 18.8773 447.033 18.9207 447.301 18.9422C447.617 18.9676 447.862 18.9177 448.038 18.7924C448.213 18.6638 448.332 18.4399 448.393 18.1206L449.442 18.2049C449.349 18.7552 449.121 19.1454 448.759 19.3757C448.397 19.6059 447.882 19.6942 447.215 19.6406ZM457.243 21.1038L458.49 21.2041L456.075 23.6021L458.249 26.5639L456.944 26.4589L454.852 23.5622L454.634 26.2731L453.498 26.1818L453.928 20.8372L455.064 20.9285L454.855 23.5235L457.243 21.1038ZM464.089 24.3344C464.019 25.2074 463.74 25.8708 463.253 26.3244C462.766 26.7781 462.123 26.9728 461.324 26.9085C460.825 26.8684 460.392 26.7201 460.027 26.4638C459.662 26.2074 459.393 25.8599 459.221 25.4213C459.049 24.9827 458.985 24.4847 459.03 23.9274C459.1 23.0608 459.376 22.4021 459.86 21.9514C460.344 21.5007 460.99 21.3079 461.798 21.3729C462.572 21.4351 463.164 21.734 463.574 22.2697C463.986 22.8021 464.157 23.4903 464.089 24.3344ZM460.199 24.0215C460.1 25.2553 460.506 25.9089 461.418 25.9823C462.32 26.0548 462.821 25.4742 462.92 24.2403C463.018 23.0193 462.613 22.3723 461.704 22.2992C461.228 22.2608 460.869 22.3908 460.627 22.6892C460.389 22.9878 460.247 23.4319 460.199 24.0215ZM466.749 21.8684L466.576 24.014L469.094 24.2165L469.266 22.0709L470.402 22.1622L469.972 27.5069L468.836 27.4155L469.022 25.1105L466.504 24.908L466.319 27.213L465.183 27.1217L465.613 21.777L466.749 21.8684ZM476.046 22.6163L475.975 23.5054L474.235 23.3655L473.877 27.821L472.736 27.7292L473.095 23.2737L471.355 23.1338L471.426 22.2447L476.046 22.6163ZM478.972 28.3281C478.141 28.2612 477.509 27.9673 477.078 27.4462C476.65 26.9221 476.47 26.2349 476.539 25.3844C476.609 24.5113 476.881 23.8426 477.357 23.3782C477.832 22.9139 478.449 22.7123 479.21 22.7734C479.915 22.8302 480.455 23.0892 480.83 23.5506C481.205 24.012 481.362 24.618 481.301 25.3687L481.252 25.9824L477.69 25.6959C477.665 26.2159 477.773 26.6266 478.015 26.9281C478.256 27.2265 478.617 27.3949 479.097 27.4335C479.413 27.4589 479.709 27.4535 479.984 27.4173C480.263 27.3781 480.564 27.3018 480.887 27.1884L480.813 28.1114C480.526 28.2212 480.238 28.2921 479.95 28.3241C479.662 28.356 479.336 28.3574 478.972 28.3281ZM479.14 23.6336C478.78 23.6046 478.48 23.6956 478.243 23.9067C478.009 24.1181 477.853 24.4412 477.776 24.8759L480.202 25.0711C480.231 24.6292 480.151 24.2872 479.963 24.0451C479.776 23.7998 479.501 23.6626 479.14 23.6336ZM483.913 23.2491L483.741 25.3946L486.259 25.5972L486.431 23.4516L487.567 23.5429L487.137 28.8876L486.001 28.7962L486.187 26.4912L483.669 26.2886L483.483 28.5937L482.348 28.5024L482.778 23.1577L483.913 23.2491ZM493.211 23.9969L493.139 24.8861L491.4 24.7462L491.041 29.2016L489.901 29.1099L490.259 24.6544L488.52 24.5145L488.591 23.6253L493.211 23.9969ZM501.484 24.6624L501.054 30.007L499.914 29.9153L500.271 25.4695L497.874 25.2767L497.517 29.7225L496.381 29.6312L496.811 24.2865L501.484 24.6624ZM507.639 27.8374C507.569 28.7104 507.29 29.3738 506.803 29.8274C506.316 30.2811 505.673 30.4758 504.874 30.4115C504.374 30.3714 503.942 30.2231 503.577 29.9668C503.212 29.7104 502.943 29.3629 502.771 28.9243C502.598 28.4857 502.535 27.9877 502.579 27.4304C502.649 26.5638 502.926 25.9051 503.41 25.4544C503.893 25.0037 504.539 24.8109 505.348 24.8759C506.121 24.9381 506.713 25.237 507.124 25.7727C507.535 26.3051 507.707 26.9933 507.639 27.8374ZM503.749 27.5244C503.65 28.7583 504.056 29.4119 504.968 29.4853C505.87 29.5578 506.37 28.9772 506.47 27.7433C506.568 26.5223 506.163 25.8753 505.254 25.8022C504.777 25.7638 504.418 25.8938 504.177 26.1922C503.939 26.4908 503.796 26.9349 503.749 27.5244ZM513.708 32.9266L512.65 32.8414L512.802 30.952L509.139 30.6573L508.987 32.5468L507.938 32.4624L508.161 29.6935L508.596 29.7285C509.02 29.2146 509.374 28.5816 509.658 27.8295C509.946 27.0745 510.146 26.2541 510.26 25.3683L513.507 25.6295L513.148 30.0946L513.931 30.1576L513.708 32.9266ZM512.032 30.0048L512.321 26.4095L511.171 26.317C511.056 26.9757 510.875 27.6194 510.626 28.2479C510.381 28.8766 510.101 29.402 509.785 29.8241L512.032 30.0048ZM520.125 31.6383C519.448 31.5839 518.943 31.2984 518.608 30.7819L518.54 30.7764C518.549 31.2311 518.55 31.5067 518.542 31.6034L518.366 33.7925L517.23 33.7011L517.851 25.9789L518.77 26.0528C518.787 26.1547 518.821 26.3974 518.871 26.7808L518.929 26.7855C519.327 26.2727 519.881 26.0449 520.589 26.1019C521.256 26.1555 521.756 26.4389 522.087 26.9519C522.422 27.4652 522.554 28.1584 522.484 29.0314C522.414 29.9045 522.169 30.5706 521.749 31.0297C521.333 31.4891 520.792 31.6919 520.125 31.6383ZM520.22 27.006C519.769 26.9697 519.428 27.0752 519.198 27.3226C518.97 27.5702 518.833 27.9839 518.786 28.5638L518.773 28.7329C518.72 29.3837 518.786 29.8639 518.968 30.1737C519.151 30.4802 519.476 30.6523 519.943 30.6899C520.336 30.7215 520.652 30.5847 520.891 30.2797C521.129 29.9746 521.272 29.5241 521.32 28.9281C521.368 28.3289 521.299 27.8677 521.111 27.5445C520.926 27.2184 520.629 27.0389 520.22 27.006ZM526.932 32.0885L526.764 31.3261L526.726 31.323C526.442 31.6276 526.165 31.829 525.894 31.9273C525.624 32.0222 525.284 32.0533 524.875 32.0204C524.35 31.9781 523.95 31.8033 523.677 31.496C523.407 31.1889 523.292 30.776 523.334 30.2574C523.378 29.7065 523.616 29.3073 524.048 29.06C524.48 28.8126 525.115 28.7097 525.955 28.7513L526.88 28.7966L526.903 28.5114C526.931 28.17 526.871 27.909 526.723 27.7285C526.579 27.545 526.339 27.4399 526.004 27.4129C525.73 27.3909 525.465 27.41 525.207 27.4704C524.949 27.5307 524.7 27.6063 524.459 27.6972L524.157 26.8558C524.459 26.7277 524.786 26.6388 525.137 26.5892C525.488 26.5364 525.817 26.5223 526.123 26.547C526.802 26.6016 527.303 26.791 527.624 27.1151C527.948 27.4395 528.084 27.919 528.033 28.5537L527.744 32.1538L526.932 32.0885ZM525.303 31.1793C525.715 31.2125 526.054 31.1247 526.321 30.9159C526.591 30.7041 526.742 30.3905 526.776 29.9749L526.813 29.511L526.125 29.4848C525.588 29.4611 525.191 29.5199 524.933 29.6613C524.679 29.7997 524.539 30.0333 524.512 30.3619C524.493 30.6003 524.549 30.7912 524.68 30.9347C524.812 31.075 525.019 31.1565 525.303 31.1793ZM530.766 29.1675C531.284 29.2092 531.671 29.1835 531.925 29.0904C532.179 28.9942 532.315 28.8268 532.335 28.5884C532.37 28.1535 532.001 27.9049 531.227 27.8428C530.712 27.8013 530.176 27.8749 529.619 28.0636L529.32 27.1884C529.962 26.9839 530.659 26.9118 531.409 26.9722C532.073 27.0256 532.579 27.1895 532.926 27.4638C533.274 27.735 533.43 28.0977 533.393 28.552C533.345 29.1512 532.97 29.5166 532.269 29.6483L532.266 29.6869C532.685 29.8374 532.978 30.0279 533.144 30.2585C533.313 30.4894 533.385 30.7643 533.36 31.0832C533.32 31.5729 533.073 31.947 532.618 32.2054C532.166 32.4609 531.555 32.5577 530.785 32.4958C529.944 32.4281 529.31 32.2653 528.884 32.0072L528.963 31.0262C529.53 31.3507 530.129 31.5384 530.761 31.5892C531.215 31.6257 531.569 31.591 531.824 31.485C532.083 31.3761 532.223 31.1912 532.244 30.9302C532.265 30.6629 532.157 30.4564 531.919 30.3108C531.681 30.1652 531.303 30.0715 530.784 30.0298L530.132 29.9773L530.2 29.122L530.766 29.1675ZM536.036 27.4416L535.863 29.5872L538.381 29.7897L538.553 27.6441L539.689 27.7355L539.259 33.0801L538.124 32.9888L538.309 30.6837L535.791 30.4812L535.606 32.7863L534.47 32.6949L534.9 27.3503L536.036 27.4416ZM542.281 30.0937L543.364 30.1808C544.111 30.2409 544.653 30.4142 544.99 30.7007C545.327 30.9872 545.475 31.3882 545.433 31.9036C545.389 32.4545 545.169 32.8551 544.773 33.1053C544.38 33.3526 543.824 33.4473 543.106 33.3895L540.888 33.2111L541.318 27.8665L542.453 27.9578L542.281 30.0937ZM544.305 31.8421C544.327 31.5747 544.242 31.3798 544.051 31.2574C543.863 31.1353 543.583 31.0593 543.213 31.0295L542.213 30.9491L542.091 32.4616L542.946 32.5304C543.404 32.5672 543.739 32.5293 543.952 32.4168C544.166 32.3043 544.283 32.1127 544.305 31.8421ZM547.281 33.7254L546.14 33.6336L546.57 28.289L547.711 28.3807L547.281 33.7254ZM551.236 34.1407C550.405 34.0739 549.773 33.7799 549.342 33.2588C548.914 32.7348 548.734 32.0475 548.802 31.197C548.873 30.324 549.145 29.6553 549.62 29.1909C550.095 28.7265 550.713 28.5249 551.473 28.5861C552.179 28.6428 552.719 28.9019 553.094 29.3633C553.468 29.8247 553.626 30.4307 553.565 31.1813L553.516 31.795L549.954 31.5086C549.929 32.0285 550.037 32.4393 550.278 32.7408C550.52 33.0391 550.881 33.2076 551.361 33.2462C551.677 33.2716 551.972 33.2662 552.248 33.23C552.526 33.1908 552.828 33.1145 553.151 33.0011L553.077 33.9241C552.789 34.0339 552.502 34.1048 552.214 34.1367C551.926 34.1687 551.6 34.17 551.236 34.1407ZM551.404 29.4463C551.043 29.4172 550.744 29.5083 550.507 29.7194C550.273 29.9308 550.117 30.2538 550.04 30.6886L552.466 30.8837C552.495 30.4419 552.415 30.0999 552.227 29.8578C552.039 29.6125 551.765 29.4753 551.404 29.4463ZM559.33 34.7918C558.521 34.7268 557.925 34.4421 557.541 33.9378C557.16 33.4305 557.005 32.7355 557.076 31.8528C557.149 30.954 557.423 30.2806 557.9 29.8326C558.38 29.3849 559.036 29.1944 559.867 29.2613C560.431 29.3066 560.93 29.4521 561.364 29.6978L560.948 30.5835C560.483 30.3581 560.094 30.2328 559.781 30.2076C558.857 30.1333 558.345 30.7098 558.246 31.9372C558.198 32.5365 558.276 32.9967 558.481 33.3179C558.689 33.6362 559.015 33.8132 559.459 33.8489C559.965 33.8896 560.454 33.8025 560.925 33.5875L560.845 34.5781C560.633 34.681 560.408 34.7489 560.172 34.7817C559.939 34.8149 559.659 34.8183 559.33 34.7918ZM566.528 29.8943L566.457 30.7835L564.717 30.6436L564.359 35.099L563.218 35.0073L563.577 30.5518L561.837 30.4119L561.908 29.5227L566.528 29.8943ZM569.831 35.6365C569.154 35.5821 568.649 35.2966 568.314 34.7801L568.247 34.7746C568.255 35.2293 568.256 35.5049 568.248 35.6016L568.072 37.7906L566.936 37.6993L567.558 29.9771L568.476 30.051C568.493 30.1529 568.527 30.3956 568.578 30.779L568.636 30.7837C569.034 30.2709 569.587 30.0431 570.296 30.1001C570.962 30.1537 571.462 30.4371 571.793 30.9501C572.128 31.4634 572.26 32.1566 572.19 33.0296C572.12 33.9027 571.875 34.5688 571.456 35.0279C571.039 35.4873 570.498 35.6901 569.831 35.6365ZM569.926 31.0042C569.475 30.9679 569.134 31.0734 568.904 31.3208C568.676 31.5684 568.539 31.9821 568.493 32.562L568.479 32.7311C568.427 33.3819 568.492 33.8621 568.674 34.1719C568.857 34.4784 569.182 34.6505 569.649 34.688C570.042 34.7197 570.358 34.5829 570.597 34.2779C570.835 33.9728 570.978 33.5223 571.026 32.9263C571.075 32.3271 571.005 31.8659 570.817 31.5427C570.632 31.2166 570.335 31.0371 569.926 31.0042ZM576.638 36.0867L576.471 35.3243L576.432 35.3212C576.148 35.6258 575.871 35.8272 575.6 35.9254C575.33 36.0204 574.99 36.0515 574.581 36.0186C574.056 35.9763 573.657 35.8015 573.383 35.4942C573.113 35.1871 572.998 34.7742 573.04 34.2556C573.084 33.7047 573.322 33.3055 573.754 33.0582C574.186 32.8108 574.821 32.7079 575.661 32.7495L576.586 32.7948L576.609 32.5096C576.637 32.1682 576.577 31.9072 576.429 31.7267C576.285 31.5432 576.045 31.438 575.71 31.4111C575.437 31.3891 575.171 31.4082 574.913 31.4686C574.655 31.5289 574.406 31.6045 574.165 31.6954L573.863 30.854C574.165 30.7259 574.492 30.637 574.843 30.5874C575.194 30.5346 575.523 30.5205 575.829 30.5452C576.508 30.5998 577.009 30.7892 577.33 31.1133C577.654 31.4377 577.79 31.9172 577.739 32.5519L577.45 36.152L576.638 36.0867ZM575.009 35.1775C575.421 35.2107 575.76 35.1229 576.027 34.9141C576.297 34.7023 576.449 34.3887 576.482 33.9731L576.519 33.5092L575.831 33.483C575.294 33.4593 574.897 33.5181 574.64 33.6595C574.385 33.7979 574.245 34.0315 574.218 34.3601C574.199 34.5985 574.255 34.7894 574.386 34.9329C574.518 35.0732 574.725 35.1547 575.009 35.1775ZM580.6 31.0262L580.428 33.1718L582.945 33.3743L583.118 31.2287L584.253 31.3201L583.824 36.6647L582.688 36.5734L582.873 34.2683L580.356 34.0658L580.17 36.3709L579.035 36.2795L579.465 30.9349L580.6 31.0262ZM586.846 33.6783L587.928 33.7654C588.676 33.8255 589.218 33.9988 589.555 34.2853C589.892 34.5718 590.039 34.9728 589.998 35.4883C589.953 36.0392 589.733 36.4397 589.337 36.6899C588.944 36.9372 588.389 37.0319 587.67 36.9741L585.452 36.7957L585.882 31.4511L587.018 31.5424L586.846 33.6783ZM588.87 35.4267C588.891 35.1593 588.806 34.9644 588.615 34.842C588.427 34.7199 588.148 34.6439 587.777 34.6141L586.777 34.5337L586.655 36.0462L587.511 36.115C587.968 36.1518 588.304 36.114 588.517 36.0014C588.73 35.8889 588.848 35.6973 588.87 35.4267ZM591.845 37.31L590.705 37.2182L591.135 31.8736L592.275 31.9653L591.845 37.31Z" fill="#212121"/>
<rect x="458.299" y="38" width="94.7719" height="24.5906" rx="12.2953" transform="rotate(5.36484 458.299 38)" fill="#FF595A"/>
<path d="M479.554 49.244L476.857 54.0549C476.526 54.6438 476.233 55.066 475.979 55.3212C475.725 55.5733 475.44 55.7495 475.126 55.8498C474.814 55.9504 474.445 55.9806 474.017 55.9404C473.643 55.9054 473.302 55.8246 472.992 55.6982L473.09 54.6604C473.393 54.8155 473.717 54.9092 474.062 54.9416C474.355 54.9691 474.606 54.9212 474.815 54.7981C475.028 54.672 475.233 54.4299 475.429 54.0717L473.313 48.658L474.558 48.7749L475.949 52.4747C476.072 52.8239 476.146 53.0565 476.171 53.1724L476.219 53.1769C476.246 53.0951 476.307 52.9661 476.401 52.7899L478.347 49.1307L479.554 49.244ZM484.714 52.8401C484.654 53.4708 484.25 53.8175 483.501 53.8802L483.497 53.9189C483.905 54.0058 484.208 54.1657 484.407 54.3987C484.605 54.6316 484.689 54.917 484.657 55.2549C484.61 55.7601 484.38 56.1313 483.968 56.3686C483.56 56.6029 482.989 56.6856 482.255 56.6167L479.707 56.3774L480.208 51.039L482.747 51.2774C484.144 51.4085 484.799 51.9294 484.714 52.8401ZM483.5 55.0781C483.524 54.8206 483.442 54.6295 483.252 54.5045C483.063 54.3764 482.769 54.2936 482.37 54.2561L481.062 54.1333L480.92 55.6441L482.257 55.7696C483.036 55.8427 483.45 55.6122 483.5 55.0781ZM483.57 52.8301C483.59 52.6177 483.521 52.457 483.362 52.348C483.207 52.2361 482.966 52.1647 482.637 52.1338L481.262 52.0047L481.141 53.2886L482.348 53.4019C482.728 53.4376 483.02 53.4163 483.225 53.3382C483.431 53.2569 483.546 53.0875 483.57 52.8301ZM488.005 57.254C487.174 57.1761 486.547 56.8737 486.123 56.3469C485.702 55.8172 485.531 55.1275 485.611 54.278C485.693 53.406 485.974 52.741 486.456 52.283C486.937 51.825 487.557 51.6317 488.317 51.703C489.021 51.7692 489.558 52.0355 489.926 52.5018C490.295 52.9682 490.444 53.5762 490.373 54.326L490.316 54.939L486.759 54.6049C486.726 55.1245 486.828 55.5367 487.066 55.8414C487.304 56.1429 487.663 56.3162 488.142 56.3612C488.457 56.3908 488.753 56.3894 489.029 56.3568C489.308 56.3214 489.61 56.2491 489.935 56.1401L489.849 57.062C489.56 57.1679 489.271 57.235 488.983 57.2631C488.694 57.2912 488.368 57.2882 488.005 57.254ZM488.236 52.5622C487.875 52.5284 487.575 52.6154 487.335 52.8233C487.098 53.0315 486.938 53.3525 486.855 53.7862L489.278 54.0137C489.313 53.5723 489.238 53.2293 489.053 52.9847C488.869 52.7369 488.596 52.596 488.236 52.5622ZM495.765 57.8854L494.622 57.778L495.039 53.3277L493.567 53.1895C493.37 54.3266 493.163 55.2097 492.948 55.8387C492.737 56.4681 492.493 56.9192 492.218 57.1919C491.945 57.465 491.613 57.5831 491.22 57.5462C490.972 57.523 490.768 57.4681 490.607 57.3816L490.691 56.4935C490.806 56.5497 490.923 56.5834 491.042 56.5946C491.37 56.6254 491.662 56.2811 491.918 55.5618C492.177 54.8395 492.431 53.7223 492.681 52.2102L496.267 52.547L495.765 57.8854ZM498.979 52.8018L498.722 55.5385C498.693 55.8571 498.623 56.3229 498.513 56.9359L501.581 53.0461L502.966 53.1762L502.465 58.5146L501.374 58.4121L501.627 55.7236C501.641 55.5756 501.671 55.3366 501.718 55.0067C501.769 54.6771 501.808 54.4373 501.835 54.2872L498.777 58.1683L497.392 58.0382L497.893 52.6998L498.979 52.8018ZM505.582 53.4218L505.399 55.3719C505.348 55.9189 505.605 56.219 506.172 56.2722C506.445 56.2979 506.716 56.286 506.983 56.2364C507.251 56.1837 507.543 56.0877 507.858 55.9485L508.073 53.6557L509.207 53.7623L508.706 59.1007L507.572 58.9942L507.784 56.7304C507.454 56.8942 507.138 57.0089 506.837 57.0748C506.539 57.1377 506.217 57.153 505.873 57.1206C505.316 57.0683 504.895 56.8844 504.61 56.5687C504.325 56.2497 504.207 55.8312 504.256 55.3132L504.443 53.3149L505.582 53.4218ZM511.763 56.1545L513.1 56.2801C514.59 56.42 515.287 57.0048 515.19 58.0345C515.139 58.5783 514.91 58.974 514.504 59.2215C514.098 59.4658 513.53 59.5536 512.799 59.4851L510.328 59.253L510.829 53.9146L511.963 54.0211L511.763 56.1545ZM514.048 57.9565C514.073 57.6894 513.989 57.4933 513.797 57.368C513.604 57.2428 513.322 57.1628 512.952 57.1281L511.683 57.0089L511.541 58.5196L512.83 58.6407C513.203 58.6757 513.493 58.6347 513.698 58.5177C513.907 58.401 514.024 58.2139 514.048 57.9565ZM520.49 56.3995L521.292 56.4747C521.829 56.5252 522.228 56.462 522.488 56.2852C522.748 56.1083 522.896 55.8236 522.933 55.431C522.971 55.032 522.867 54.7334 522.623 54.5352C522.379 54.3369 521.994 54.2132 521.47 54.1639L520.707 54.0923L520.49 56.3995ZM520.401 57.3552L520.136 60.174L518.982 60.0657L519.645 53.009L521.638 53.1962C522.549 53.2817 523.207 53.5155 523.613 53.8977C524.018 54.2799 524.189 54.8153 524.124 55.5039C524.042 56.3824 523.526 56.9654 522.577 57.2528L524.277 60.5629L522.964 60.4397L521.54 57.4622L520.401 57.3552ZM531.903 57.7098C531.795 58.8586 531.423 59.7245 530.787 60.3075C530.155 60.8909 529.312 61.1332 528.26 61.0343C527.195 60.9343 526.406 60.5421 525.892 59.8576C525.382 59.1702 525.182 58.244 525.291 57.0792C525.4 55.9143 525.771 55.0466 526.402 54.4762C527.037 53.906 527.887 53.6709 528.952 53.7709C530.001 53.8695 530.782 54.2626 531.295 54.9503C531.808 55.638 532.011 56.5578 531.903 57.7098ZM526.516 57.204C526.435 58.0728 526.548 58.7489 526.856 59.2323C527.165 59.7126 527.664 59.985 528.352 60.0497C529.038 60.114 529.575 59.9405 529.964 59.5291C530.357 59.118 530.594 58.4732 530.677 57.5947C530.758 56.7291 530.646 56.0563 530.34 55.5764C530.038 55.0968 529.544 54.8248 528.859 54.7604C528.167 54.6955 527.623 54.87 527.227 55.284C526.834 55.6984 526.597 56.3384 526.516 57.204ZM533.086 61.3902L533.749 54.3334L534.902 54.4418L534.24 61.4985L533.086 61.3902Z" fill="#212121"/>
<rect x="13" y="81.3057" width="137.772" height="24.5906" rx="12.2953" transform="rotate(-28.3602 13 81.3057)" fill="#2A7DE1"/>
<path d="M40.3383 85.0663L39.3144 85.6189L36.4197 80.2564L33.668 81.7417L36.5628 87.1043L35.5431 87.6547L32.1763 81.4176L36.9715 78.8291L40.3383 85.0663ZM44.3177 83.0283C43.7205 83.3507 43.141 83.3862 42.5792 83.1349L42.5195 83.1671C42.7743 83.5438 42.9247 83.7748 42.9707 83.8601L44.0139 85.7927L43.0114 86.3339L39.3314 79.5166L40.142 79.079C40.2123 79.1549 40.3728 79.34 40.6236 79.6344L40.6748 79.6068C40.7297 78.9601 41.07 78.4679 41.6957 78.1301C42.2844 77.8123 42.8575 77.7784 43.4148 78.0285C43.975 78.277 44.4632 78.7867 44.8792 79.5574C45.2953 80.3282 45.4522 81.0203 45.3499 81.6337C45.2505 82.2457 44.9065 82.7105 44.3177 83.0283ZM41.8776 79.0897C41.4795 79.3046 41.2509 79.5786 41.1919 79.9116C41.1358 80.2431 41.2459 80.6648 41.5222 81.1767L41.6028 81.326C41.9129 81.9005 42.2289 82.2681 42.5506 82.4286C42.8708 82.5863 43.2371 82.5539 43.6495 82.3313C43.9965 82.144 44.187 81.8575 44.2212 81.4717C44.2554 81.086 44.1305 80.63 43.8465 80.1039C43.5609 79.5749 43.2514 79.2259 42.9178 79.0571C42.5856 78.8838 42.2388 78.8947 41.8776 79.0897ZM50.229 76.6696C50.645 77.4404 50.7721 78.1486 50.6101 78.7943C50.4481 79.44 50.0145 79.9532 49.3091 80.334C48.8683 80.5719 48.4249 80.6827 47.979 80.6663C47.5331 80.6499 47.1186 80.5046 46.7354 80.2303C46.3523 79.9559 46.0279 79.5728 45.7623 79.0807C45.3493 78.3157 45.2232 77.6125 45.3838 76.9712C45.5445 76.3298 45.9818 75.8165 46.6956 75.4311C47.3782 75.0627 48.0376 74.9914 48.6737 75.2173C49.3083 75.4404 49.8267 75.9245 50.229 76.6696ZM46.7947 78.5234C47.3827 79.6127 48.0792 79.9401 48.884 79.5057C49.6804 79.0758 49.7846 78.3162 49.1966 77.2269C48.6147 76.149 47.9228 75.8265 47.1207 76.2595C46.6998 76.4867 46.4693 76.7911 46.4292 77.1727C46.3919 77.5527 46.5138 78.003 46.7947 78.5234ZM52.4115 75.4364L49.5829 73.9828L50.7263 73.3656L52.6926 74.4363L52.8849 72.2003L54.0197 71.5878L53.6786 74.7524L56.6478 76.2624L55.513 76.8749L53.3949 75.7374L53.1879 78.13L52.0531 78.7426L52.4115 75.4364ZM60.3824 71.1888C60.7985 71.9595 60.9255 72.6678 60.7635 73.3135C60.6016 73.9592 60.1679 74.4724 59.4626 74.8531C59.0217 75.0911 58.5784 75.2019 58.1324 75.1855C57.6865 75.1691 57.272 75.0237 56.8889 74.7494C56.5057 74.4751 56.1813 74.0919 55.9158 73.5999C55.5028 72.8348 55.3766 72.1316 55.5373 71.4903C55.6979 70.849 56.1352 70.3357 56.8491 69.9503C57.5317 69.5818 58.191 69.5106 58.8272 69.7365C59.4618 69.9595 59.9802 70.4436 60.3824 71.1888ZM56.9482 73.0426C57.5362 74.1319 58.2326 74.4593 59.0375 74.0248C59.8338 73.5949 59.938 72.8354 59.35 71.7461C58.7681 70.6682 58.0762 70.3457 57.2742 70.7786C56.8532 71.0058 56.6227 71.3102 56.5826 71.6918C56.5454 72.0719 56.6672 72.5221 56.9482 73.0426ZM68.2434 72.1571L67.3091 72.6615L66.4087 70.9934L63.175 72.739L64.0754 74.407L63.1497 74.9068L61.8301 72.4623L62.2141 72.255C62.2902 71.5932 62.2429 70.8694 62.0723 70.0838C61.9029 69.2937 61.6248 68.4962 61.2381 67.6913L64.1049 66.1438L66.2328 70.0857L66.9239 69.7126L68.2434 72.1571ZM65.2473 70.6177L63.534 67.4436L62.5186 67.9917C62.7808 68.6068 62.9787 69.2455 63.1123 69.908C63.2487 70.569 63.2991 71.1624 63.2635 71.6885L65.2473 70.6177ZM66.6305 64.7805L67.9362 67.1994C68.0882 67.4809 68.2888 67.907 68.5381 68.4777L68.9299 63.5392L70.1543 62.8783L72.7013 67.5967L71.7371 68.1171L70.4544 65.7409C70.3838 65.61 70.2766 65.3943 70.1326 65.0937C69.9916 64.7915 69.8907 64.5706 69.8299 64.4307L69.442 69.3561L68.2176 70.017L65.6706 65.2986L66.6305 64.7805ZM78.5909 63.1779L78.5358 62.9432C78.4237 62.4564 78.3489 62.0763 78.3114 61.8027L77.9784 58.6548L79.3137 57.934L81.8607 62.6524L80.935 63.1521L78.8785 59.3425L78.9399 59.6399C79.0591 60.1669 79.1329 60.5622 79.1614 60.826L79.5015 63.9259L78.7422 64.3358L76.328 62.3334C75.9862 62.0404 75.6305 61.6944 75.2608 61.2953L77.3173 65.105L76.4 65.6001L73.8531 60.8817L75.1798 60.1655L77.5532 62.1128C77.7686 62.294 78.1145 62.6491 78.5909 63.1779ZM86.2011 57.2518C86.6172 58.0226 86.7442 58.7308 86.5823 59.3765C86.4203 60.0222 85.9866 60.5354 85.2813 60.9161C84.8405 61.1541 84.3971 61.2649 83.9512 61.2485C83.5052 61.2321 83.0907 61.0868 82.7076 60.8124C82.3244 60.5381 82.0001 60.1549 81.7345 59.6629C81.3215 58.8978 81.1953 58.1947 81.356 57.5533C81.5167 56.912 81.9539 56.3987 82.6678 56.0133C83.3504 55.6449 84.0097 55.5736 84.6459 55.7995C85.2805 56.0225 85.7989 56.5067 86.2011 57.2518ZM82.7669 59.1056C83.3549 60.1949 84.0513 60.5223 84.8562 60.0878C85.6526 59.658 85.7567 58.8984 85.1687 57.8091C84.5869 56.7312 83.8949 56.4087 83.0929 56.8416C82.672 57.0689 82.4414 57.3733 82.4013 57.7548C82.3641 58.1349 82.4859 58.5851 82.7669 59.1056ZM94.0622 58.2202L93.1279 58.7245L92.2274 57.0564L88.9937 58.802L89.8941 60.4701L88.9684 60.9698L87.6488 58.5253L88.0328 58.318C88.1089 57.6562 88.0617 56.9325 87.891 56.1468C87.7216 55.3567 87.4435 54.5593 87.0568 53.7543L89.9236 52.2068L92.0515 56.1487L92.7426 55.7757L94.0622 58.2202ZM91.066 56.6807L89.3527 53.5067L88.3373 54.0547C88.5996 54.6698 88.7975 55.3086 88.931 55.971C89.0674 56.632 89.1178 57.2255 89.0823 57.7515L91.066 56.6807ZM96.1429 55.053C95.4091 55.4491 94.7195 55.5459 94.0739 55.3435C93.4297 55.1366 92.905 54.6578 92.4997 53.9069C92.0836 53.1362 91.9486 52.4268 92.0946 51.7787C92.2406 51.1306 92.6492 50.6254 93.3204 50.2631C93.9432 49.9268 94.5373 49.8504 95.1027 50.0337C95.6681 50.2169 96.1297 50.6399 96.4874 51.3026L96.7799 51.8444L93.6357 53.5416C93.8971 53.9918 94.2112 54.2777 94.578 54.3993C94.9432 54.518 95.3377 54.463 95.7615 54.2342C96.0402 54.0837 96.2852 53.9184 96.4965 53.7383C96.7091 53.5538 96.9203 53.3259 97.1301 53.0547L97.57 53.8695C97.3883 54.1181 97.1854 54.3342 96.9613 54.5176C96.7371 54.7011 96.4643 54.8796 96.1429 55.053ZM93.7303 51.0224C93.4117 51.1944 93.2103 51.4335 93.1259 51.7398C93.0443 52.0446 93.0895 52.4004 93.2613 52.8072L95.4029 51.6511C95.1869 51.2646 94.9341 51.0209 94.6446 50.92C94.3536 50.8163 94.0488 50.8505 93.7303 51.0224ZM101.51 52.156C100.912 52.4784 100.333 52.5139 99.7712 52.2626L99.7115 52.2948C99.9662 52.6715 100.117 52.9025 100.163 52.9878L101.206 54.9204L100.203 55.4616L96.5234 48.6443L97.3339 48.2067C97.4043 48.2826 97.5648 48.4677 97.8156 48.7621L97.8667 48.7345C97.9217 48.0878 98.262 47.5956 98.8877 47.2578C99.4764 46.94 100.049 46.9061 100.607 47.1562C101.167 47.4047 101.655 47.9144 102.071 48.6851C102.487 49.4559 102.644 50.148 102.542 50.7614C102.443 51.3734 102.098 51.8382 101.51 52.156ZM99.0696 48.2174C98.6714 48.4323 98.4429 48.7063 98.3839 49.0393C98.3278 49.3708 98.4379 49.7925 98.7142 50.3044L98.7948 50.4537C99.1049 51.0282 99.4208 51.3958 99.7426 51.5563C100.063 51.714 100.429 51.6816 100.841 51.459C101.188 51.2717 101.379 50.9852 101.413 50.5994C101.447 50.2137 101.322 49.7577 101.038 49.2316C100.753 48.7026 100.443 48.3536 100.11 48.1848C99.7775 48.0115 99.4308 48.0224 99.0696 48.2174ZM107.466 48.8306L106.911 48.2818L106.877 48.3002C106.804 48.7103 106.681 49.0301 106.508 49.2597C106.333 49.4865 106.065 49.6973 105.703 49.8923C105.24 50.1425 104.81 50.2131 104.413 50.1041C104.019 49.9935 103.698 49.7093 103.451 49.2514C103.189 48.7651 103.171 48.3007 103.399 47.8583C103.626 47.4159 104.104 46.9837 104.831 46.5618L105.632 46.0963L105.496 45.8446C105.333 45.5432 105.141 45.3568 104.919 45.2857C104.698 45.2102 104.44 45.2523 104.144 45.412C103.903 45.5424 103.69 45.7031 103.506 45.894C103.323 46.0848 103.155 46.2839 103.002 46.4911L102.291 45.9494C102.475 45.6776 102.701 45.4254 102.968 45.1929C103.234 44.9575 103.502 44.7669 103.772 44.621C104.373 44.2971 104.895 44.1838 105.341 44.2812C105.789 44.377 106.165 44.7051 106.467 45.2654L108.183 48.4437L107.466 48.8306ZM105.605 48.954C105.969 48.7575 106.206 48.4991 106.316 48.179C106.427 47.8545 106.384 47.5088 106.185 47.1419L105.964 46.7323L105.372 47.0849C104.909 47.3568 104.608 47.6222 104.469 47.8811C104.331 48.1356 104.34 48.4079 104.497 48.698C104.61 48.9085 104.761 49.0383 104.949 49.0873C105.136 49.1335 105.354 49.0891 105.605 48.954ZM113.365 44.6436L114.048 44.2751L115.363 46.7111L114.42 47.22L113.524 45.5605L109.582 47.6883L107.035 42.97L108.038 42.4288L110.156 46.3537L112.353 45.1677L110.235 41.2428L111.237 40.7016L113.365 44.6436ZM113.737 39.3522L115.043 41.7711C115.195 42.0526 115.396 42.4787 115.645 43.0494L116.037 38.1109L117.261 37.45L119.808 42.1684L118.844 42.6888L117.561 40.3126C117.491 40.1817 117.383 39.966 117.239 39.6654C117.098 39.3632 116.997 39.1422 116.937 39.0024L116.549 43.9277L115.324 44.5887L112.777 39.8703L113.737 39.3522ZM126.26 35.6278C126.678 36.4014 126.814 37.1065 126.669 37.743C126.526 38.3751 126.117 38.8731 125.443 39.2369C124.823 39.5716 124.231 39.6559 123.668 39.4899C123.106 39.3196 122.61 38.9092 122.182 38.2589L121.141 38.8208L122.24 40.8557L121.237 41.3969L118.69 36.6785L119.693 36.1374L120.715 38.0315L121.765 37.465C121.498 36.8009 121.455 36.1964 121.634 35.6514C121.817 35.1048 122.212 34.6672 122.821 34.3387C123.475 33.9856 124.112 33.9266 124.731 34.1617C125.348 34.394 125.858 34.8827 126.26 35.6278ZM123.027 37.3734C123.317 37.9109 123.622 38.2716 123.941 38.4554C124.264 38.6376 124.62 38.6235 125.009 38.4132C125.396 38.2044 125.602 37.9153 125.626 37.5457C125.651 37.1762 125.518 36.7227 125.228 36.1851C124.941 35.6533 124.637 35.2977 124.316 35.1183C123.995 34.9389 123.641 34.9536 123.254 35.1624C122.865 35.3727 122.657 35.6612 122.631 36.0279C122.608 36.3931 122.739 36.8416 123.027 37.3734Z" fill="#212121"/>
<rect x="296.762" y="16" width="167.772" height="24.5906" rx="12.2953" transform="rotate(13.5513 296.762 16)" fill="#FFDD00"/>
<path d="M310.958 28.8928L311.99 29.1415L311.127 32.7235C311.037 33.0974 310.936 33.4737 310.825 33.8525C310.714 34.2281 310.638 34.4824 310.596 34.6152L310.638 34.6254L315.483 29.9833L316.797 30.3002L315.137 37.1907L314.1 36.9408L314.956 33.3872C315.087 32.8436 315.276 32.191 315.523 31.4293L315.485 31.4202L310.617 36.1013L309.297 35.7832L310.958 28.8928ZM318.903 38.1983C318.115 38.0082 317.57 37.6342 317.269 37.0762C316.972 36.5159 316.927 35.8053 317.134 34.9444C317.346 34.0677 317.722 33.4453 318.263 33.077C318.807 32.7094 319.484 32.6233 320.295 32.8187C320.844 32.9513 321.315 33.1726 321.705 33.4829L321.156 34.293C320.732 33.9979 320.367 33.8137 320.063 33.7402C319.161 33.5229 318.566 34.0127 318.277 35.2099C318.136 35.7943 318.142 36.261 318.294 36.6102C318.449 36.9569 318.744 37.1825 319.178 37.287C319.671 37.4059 320.167 37.3958 320.666 37.2568L320.433 38.223C320.207 38.2915 319.975 38.3237 319.737 38.3194C319.502 38.3159 319.224 38.2755 318.903 38.1983ZM327.417 34.6351L326.161 39.8477L325.048 39.5797L326.093 35.2436L323.756 34.6802L322.711 39.0162L321.603 38.7493L322.859 33.5366L327.417 34.6351ZM333.003 38.7292C332.798 39.5807 332.419 40.1926 331.867 40.5649C331.315 40.9372 330.65 41.0295 329.871 40.8417C329.384 40.7243 328.98 40.5106 328.659 40.2005C328.338 39.8905 328.126 39.5054 328.025 39.0453C327.923 38.5852 327.937 38.0834 328.068 37.5398C328.272 36.6946 328.648 36.0871 329.196 35.7171C329.744 35.3472 330.412 35.2573 331.201 35.4474C331.955 35.6291 332.493 36.0165 332.816 36.6095C333.139 37.1994 333.201 37.906 333.003 38.7292ZM329.209 37.8148C328.919 39.0181 329.218 39.727 330.107 39.9413C330.987 40.1534 331.572 39.6577 331.862 38.4543C332.149 37.2635 331.85 36.5613 330.964 36.3477C330.499 36.2356 330.124 36.3082 329.839 36.5654C329.557 36.8233 329.347 37.2398 329.209 37.8148ZM337.934 42.6854L336.817 42.4162L337.864 38.0707L336.427 37.7243C336.069 38.8216 335.739 39.6663 335.437 40.2584C335.138 40.8512 334.832 41.263 334.521 41.4937C334.212 41.7252 333.866 41.7948 333.483 41.7024C333.241 41.6441 333.047 41.5607 332.9 41.4522L333.109 40.585C333.215 40.657 333.326 40.707 333.442 40.735C333.762 40.8123 334.1 40.5131 334.456 39.8375C334.816 39.1595 335.226 38.0899 335.688 36.6287L339.19 37.4728L337.934 42.6854ZM341.384 40.2057L342.689 40.5204C344.144 40.871 344.75 41.549 344.508 42.5545C344.38 43.0855 344.097 43.4446 343.66 43.6317C343.223 43.8157 342.648 43.8217 341.935 43.6498L339.522 43.0682L340.778 37.8556L341.886 38.1225L341.384 40.2057ZM343.389 42.3147C343.452 42.0539 343.397 41.8478 343.224 41.6964C343.051 41.545 342.784 41.4258 342.422 41.3387L341.183 41.0399L340.827 42.5151L342.086 42.8184C342.45 42.9062 342.742 42.9069 342.963 42.8204C343.186 42.7346 343.328 42.566 343.389 42.3147ZM347.252 41.62C347.757 41.7419 348.143 41.7767 348.408 41.7242C348.674 41.6687 348.835 41.5247 348.891 41.2921C348.994 40.868 348.668 40.565 347.914 40.3833C347.411 40.2621 346.87 40.2514 346.291 40.3511L346.131 39.44C346.798 39.338 347.497 39.3752 348.229 39.5516C348.876 39.7076 349.35 39.9482 349.651 40.2733C349.952 40.5953 350.049 40.9778 349.943 41.4208C349.802 42.0052 349.375 42.3079 348.662 42.3288L348.652 42.3666C349.043 42.5804 349.303 42.8141 349.431 43.0678C349.562 43.3223 349.591 43.605 349.516 43.9161C349.401 44.3937 349.098 44.7247 348.608 44.9091C348.122 45.0912 347.504 45.0917 346.753 44.9107C345.933 44.7131 345.332 44.4536 344.951 44.1323L345.181 43.1755C345.691 43.5843 346.254 43.8629 346.87 44.0114C347.313 44.1182 347.668 44.1391 347.937 44.0741C348.209 44.0067 348.376 43.8458 348.437 43.5913C348.5 43.3305 348.425 43.1097 348.213 42.9288C348 42.748 347.641 42.5966 347.135 42.4746L346.499 42.3213L346.7 41.4871L347.252 41.62ZM350.827 40.2775L352.033 40.5683L352.381 43.7789C352.44 44.2386 352.451 44.6602 352.416 45.0439L352.453 45.053C352.523 44.887 352.625 44.6905 352.76 44.4636C352.895 44.2336 353.577 43.1578 354.804 41.2362L356.002 41.5248L352.349 46.8929C351.682 47.8792 350.876 48.2584 349.93 48.0304C349.685 47.9714 349.453 47.8871 349.233 47.7776L349.445 46.901C349.602 46.9789 349.788 47.0435 350.001 47.095C350.535 47.2238 350.985 47.0048 351.351 46.438L351.663 45.9945L350.827 40.2775ZM357.854 41.9712L357.21 44.6435C357.135 44.9546 356.999 45.4057 356.804 45.9968L360.394 42.5835L361.747 42.9095L360.49 48.1221L359.425 47.8654L360.058 45.2402C360.093 45.0957 360.157 44.8635 360.251 44.5437C360.348 44.2246 360.42 43.9927 360.468 43.8481L356.89 47.2543L355.537 46.9282L356.793 41.7156L357.854 41.9712ZM359.388 41.6678C358.722 41.5072 358.262 41.2701 358.009 40.9563C357.759 40.6401 357.685 40.1967 357.786 39.6259L358.79 39.8679C358.754 40.0987 358.754 40.2848 358.79 40.4264C358.828 40.5688 358.904 40.6834 359.016 40.7702C359.132 40.8547 359.32 40.9283 359.581 40.9912C359.889 41.0654 360.139 41.0543 360.332 40.9578C360.526 40.8582 360.678 40.6554 360.788 40.3495L361.811 40.5961C361.633 41.1251 361.348 41.4752 360.954 41.6463C360.56 41.8174 360.038 41.8245 359.388 41.6678ZM366.941 44.1613L366.436 46.2539L368.892 46.8458L369.396 44.7532L370.504 45.0201L369.247 50.2328L368.14 49.9658L368.681 47.7177L366.226 47.1258L365.684 49.374L364.577 49.107L365.833 43.8944L366.941 44.1613ZM374.097 51.4017L374.05 50.6225L374.013 50.6134C373.685 50.8701 373.38 51.026 373.097 51.0809C372.815 51.1327 372.475 51.1105 372.076 51.0143C371.564 50.8908 371.196 50.656 370.974 50.3099C370.755 49.9645 370.706 49.5388 370.828 49.0329C370.957 48.4957 371.255 48.1384 371.72 47.9612C372.185 47.7841 372.828 47.7814 373.651 47.9531L374.558 48.1418L374.626 47.8637C374.706 47.5307 374.687 47.2635 374.569 47.0623C374.456 46.8587 374.235 46.7175 373.908 46.6387C373.641 46.5743 373.376 46.5519 373.112 46.5714C372.848 46.5908 372.59 46.6267 372.338 46.679L372.17 45.8009C372.489 45.7214 372.825 45.6844 373.18 45.6901C373.535 45.6925 373.862 45.7298 374.16 45.8017C374.823 45.9615 375.288 46.2264 375.554 46.5965C375.824 46.9674 375.884 47.4623 375.735 48.0813L374.889 51.5925L374.097 51.4017ZM372.629 50.25C373.031 50.3469 373.38 50.313 373.676 50.1482C373.976 49.9811 374.174 49.6949 374.272 49.2895L374.381 48.8371L373.705 48.704C373.179 48.5972 372.777 48.5935 372.501 48.6931C372.228 48.7902 372.053 48.9991 371.976 49.3195C371.92 49.5521 371.945 49.7494 372.052 49.9115C372.16 50.0705 372.353 50.1834 372.629 50.25ZM381.608 47.6965L381.398 48.5637L379.702 48.1547L378.654 52.5002L377.542 52.2321L378.59 47.8866L376.893 47.4777L377.102 46.6105L381.608 47.6965ZM383.672 48.194L383.028 50.8663C382.953 51.1774 382.817 51.6285 382.622 52.2196L386.212 48.8063L387.565 49.1323L386.308 54.345L385.243 54.0882L385.876 51.4631C385.911 51.3185 385.975 51.0864 386.069 50.7665C386.166 50.4474 386.238 50.2156 386.286 50.0709L382.708 53.4771L381.355 53.1511L382.611 47.9384L383.672 48.194ZM393.347 51.9372C393.198 52.5531 392.749 52.8387 391.998 52.7941L391.989 52.8318C392.38 52.9758 392.657 53.1773 392.821 53.4362C392.985 53.6951 393.027 53.9894 392.947 54.3194C392.828 54.8127 392.548 55.1474 392.107 55.3236C391.669 55.4974 391.092 55.498 390.376 55.3253L387.887 54.7255L389.144 49.5129L391.623 50.1104C392.986 50.4391 393.561 51.048 393.347 51.9372ZM391.827 53.9796C391.888 53.7282 391.833 53.5272 391.663 53.3766C391.494 53.2228 391.215 53.099 390.825 53.0051L389.548 52.6972L389.193 54.1724L390.498 54.4871C391.258 54.6703 391.701 54.5012 391.827 53.9796ZM392.216 51.7645C392.266 51.5571 392.221 51.3882 392.079 51.2577C391.942 51.1248 391.713 51.0198 391.392 50.9425L390.049 50.6188L389.747 51.8724L390.925 52.1564C391.296 52.2458 391.588 52.2664 391.803 52.2184C392.018 52.1672 392.156 52.0159 392.216 51.7645ZM396.086 51.1862L395.582 53.2788L398.037 53.8706L398.541 51.778L399.649 52.045L398.393 57.2576L397.285 56.9906L397.827 54.7425L395.371 54.1507L394.83 56.3988L393.722 56.1318L394.978 50.9192L396.086 51.1862ZM401.843 54.7779L402.899 55.0324C403.627 55.2081 404.136 55.4636 404.424 55.799C404.712 56.1345 404.796 56.5535 404.675 57.0563C404.545 57.5936 404.265 57.955 403.835 58.1405C403.408 58.3236 402.845 58.3307 402.144 58.1618L399.981 57.6404L401.237 52.4278L402.345 52.6947L401.843 54.7779ZM403.57 56.8199C403.633 56.5591 403.579 56.3534 403.409 56.2027C403.243 56.0528 402.979 55.9344 402.617 55.8473L401.642 55.6121L401.286 57.0873L402.12 57.2884C402.567 57.3959 402.904 57.4107 403.132 57.3327C403.36 57.2547 403.506 57.0838 403.57 56.8199ZM406.216 59.1433L405.104 58.8752L406.36 53.6626L407.473 53.9307L406.216 59.1433ZM410.121 54.5691L409.477 57.2414C409.402 57.5524 409.267 58.0036 409.071 58.5947L412.662 55.1814L414.014 55.5074L412.758 60.72L411.693 60.4633L412.326 57.8381C412.36 57.6936 412.425 57.4614 412.518 57.1416C412.615 56.8225 412.688 56.5906 412.736 56.446L409.157 59.8521L407.805 59.5261L409.061 54.3135L410.121 54.5691ZM411.656 54.2657C410.99 54.1051 410.53 53.868 410.276 53.5542C410.027 53.238 409.952 52.7946 410.053 52.2238L411.057 52.4658C411.022 52.6966 411.022 52.8827 411.057 53.0243C411.096 53.1667 411.172 53.2813 411.284 53.3681C411.4 53.4526 411.588 53.5262 411.849 53.5891C412.157 53.6633 412.407 53.6522 412.6 53.5557C412.793 53.4561 412.945 53.2533 413.056 52.9474L414.078 53.1939C413.901 53.723 413.615 54.0731 413.222 54.2442C412.828 54.4153 412.306 54.4224 411.656 54.2657ZM417.377 61.8333L416.137 61.5345L418.104 59.7494C417.776 59.564 417.542 59.3183 417.404 59.0122C417.265 58.7029 417.242 58.3566 417.335 57.9733C417.454 57.48 417.722 57.1375 418.141 56.9458C418.56 56.751 419.075 56.727 419.684 56.874L422.06 57.4465L420.803 62.6591L419.691 62.391L420.175 60.3833L419.124 60.13L417.377 61.8333ZM418.412 58.2429C418.347 58.5099 418.399 58.7352 418.568 58.9188C418.74 59.1 418.998 59.2319 419.34 59.3144L420.373 59.5632L420.745 58.0173L419.539 57.7265C419.237 57.6538 418.987 57.6618 418.79 57.7505C418.595 57.8399 418.469 58.0041 418.412 58.2429ZM424.291 60.1885C424.797 60.3104 425.183 60.3452 425.448 60.2928C425.714 60.2372 425.875 60.0932 425.931 59.8607C426.033 59.4365 425.707 59.1335 424.953 58.9518C424.45 58.8306 423.909 58.8199 423.33 58.9197L423.171 58.0086C423.837 57.9065 424.536 57.9437 425.268 58.1201C425.916 58.2762 426.39 58.5167 426.69 58.8418C426.992 59.1638 427.089 59.5463 426.982 59.9894C426.841 60.5738 426.414 60.8765 425.701 60.8974L425.692 60.9351C426.083 61.1489 426.342 61.3827 426.47 61.6364C426.602 61.8908 426.63 62.1736 426.555 62.4846C426.44 62.9622 426.138 63.2932 425.648 63.4777C425.162 63.6597 424.543 63.6603 423.792 63.4793C422.972 63.2816 422.371 63.0221 421.99 62.7008L422.221 61.7441C422.73 62.1529 423.293 62.4315 423.909 62.5799C424.352 62.6867 424.708 62.7076 424.976 62.6426C425.248 62.5753 425.415 62.4143 425.477 62.1598C425.539 61.899 425.465 61.6782 425.252 61.4973C425.04 61.3165 424.681 61.1651 424.175 61.0432L423.539 60.8898L423.74 60.0556L424.291 60.1885ZM429.263 61.387L430.319 61.6414C431.048 61.8171 431.557 62.0727 431.845 62.4081C432.133 62.7435 432.216 63.1626 432.095 63.6653C431.966 64.2026 431.686 64.564 431.255 64.7495C430.829 64.9326 430.265 64.9398 429.565 64.7709L427.401 64.2495L428.658 59.0369L429.765 59.3038L429.263 61.387ZM430.99 63.4289C431.053 63.1681 431 62.9624 430.83 62.8118C430.663 62.6619 430.399 62.5434 430.038 62.4563L429.062 62.2212L428.707 63.6964L429.541 63.8974C429.987 64.005 430.324 64.0198 430.553 63.9418C430.781 63.8638 430.927 63.6929 430.99 63.4289ZM433.637 65.7524L432.525 65.4843L433.781 60.2716L434.893 60.5397L433.637 65.7524ZM439.715 61.7018L440.931 61.9949L438.171 63.9878L439.858 67.2518L438.586 66.9451L436.97 63.7581L436.333 66.4021L435.225 66.1352L436.482 60.9226L437.589 61.1895L436.979 63.7204L439.715 61.7018Z" fill="#212121"/>
</svg>
