<svg width="339" height="149" viewBox="0 0 339 149" fill="none" xmlns="http://www.w3.org/2000/svg">
<path d="M169.483 0.402344L94.7744 129.85H114.037H244.226L169.483 0.402344ZM225.977 108.211H132.286L179.132 27.1099L225.977 108.211ZM176.265 22.111L126.518 108.211H113.023L169.483 10.4002L176.265 22.111ZM103.409 124.851L110.122 113.21H123.616L116.904 124.851H103.409ZM122.707 124.851L129.419 113.21H228.844L235.556 124.851H122.707Z" fill="white"/>
<path d="M320.837 69.2577C319.545 69.2577 315.877 77.955 306.655 84.0571C305.363 79.6383 303.546 75.921 303.546 71.3619C303.546 63.0855 313.467 55.5455 314.619 54.4233C314.619 53.4413 309.24 49.0225 307.948 49.0225C306.376 49.0225 294.744 60.1396 294.744 68.1004C294.744 68.5914 294.848 69.0473 294.883 69.5383C291.879 72.3088 277.558 95.3145 275.182 92.8947C269.069 86.7575 304.559 19.3887 312.349 11.5681C313.641 10.2706 305.118 4.86982 303.407 6.58824C300.717 9.2886 288.072 31.8033 278.151 54.0375C275.881 51.3371 272.772 49.3382 268.93 49.3382C259.568 49.3382 251.639 62.84 247.098 75.6404C241.684 83.2154 233.789 94.6832 232.043 92.9297C227.921 88.7915 241.404 61.4372 245.386 57.4743C246.539 56.3521 239.867 50.9163 237.876 52.4944C237.178 52.9153 236.444 53.792 235.745 54.9142C233.475 52.0736 229.772 49.3732 225.825 49.3732C216.568 49.3732 208.604 62.7348 203.958 75.5001C198.23 83.0401 188.763 94.7884 180.974 94.7884C179.996 94.7884 177.585 93.6662 177.585 89.528C177.585 86.4068 178.144 83.1102 179.157 79.7085C180.45 80.2696 181.847 80.5501 183.698 80.5501C196.623 80.5501 204.412 65.891 204.412 59.1927C204.412 54.6337 200.151 49.3732 195.61 49.3732C185.305 49.3732 175.35 63.4712 170.739 77.6043C165.36 85.0741 158.478 94.6481 157.151 92.9648C150.863 86.6523 186.318 19.564 194.282 11.5681C195.715 10.1303 186.772 5.0101 185.2 6.58824C181.568 10.2355 160.749 48.5316 151.492 75.1494C146.078 82.7245 137.869 94.7183 136.087 92.9297C131.966 88.7915 145.449 61.4372 149.431 57.4743C150.584 56.3521 143.912 50.9163 141.921 52.4944C141.222 52.9153 140.489 53.792 139.79 54.9142C137.52 52.0736 133.817 49.3732 129.87 49.3732C120.683 49.3732 112.754 62.5594 108.108 75.2196C105.383 78.7616 101.576 82.6543 96.5108 83.2856C96.5108 79.8838 96.2313 77.2887 95.5327 76.1664C108.457 47.0937 124.211 17.3196 129.87 11.6383C131.162 10.3407 122.639 4.93996 120.927 6.65838C116.561 10.9369 100.353 41.3423 86.8349 72.9751C84.5993 72.8348 82.224 73.0452 79.9535 73.9921C79.9535 73.9921 73.1769 80.7956 75.9714 82.1283C75.9714 82.1283 77.718 81.0762 82.1891 80.6904C77.2988 87.4238 72.0242 94.4027 70.8715 92.9297C64.5839 86.6523 100.074 19.564 108.003 11.5681C109.435 10.1303 100.493 5.0101 98.921 6.58824C95.2882 10.2355 74.4694 48.5316 65.2127 75.1494C59.7984 82.7245 51.5896 94.7183 49.8082 92.9297C45.6863 88.7915 59.1696 61.4372 63.1518 57.4743C64.3045 56.3521 57.6327 50.9163 55.6416 52.4944C54.943 52.9153 54.2094 53.792 53.5108 54.9142C51.2403 52.0736 47.5376 49.3732 43.5905 49.3732C28.9893 49.3732 17.4971 82.8647 17.4971 94.4027C17.4971 98.8214 21.7586 104.818 24.7278 104.818C28.7099 104.818 35.3817 95.2794 41.0405 85.004C40.2022 88.5811 39.7481 91.7023 39.7481 94.4027C39.7481 98.8214 43.5905 104.818 46.5596 104.818C50.0177 104.818 56.445 96.0509 61.7196 87.2485C61.1258 89.9488 60.7415 92.4388 60.7415 94.4027C60.7415 99.3826 64.7237 104.818 67.5531 104.818C70.103 104.818 74.2249 100.084 78.3118 94.1221C71.6749 111.867 66.9592 128.175 66.9592 138.45C66.9592 142.869 72.0591 148.866 74.4694 148.866C84.9836 148.866 94.4848 110.815 96.1615 89.5981C99.5498 89.1422 102.589 87.2134 105.139 84.7585C104.196 88.5811 103.672 92.0179 103.672 94.4377C103.672 98.8565 107.933 104.853 110.902 104.853C114.884 104.853 121.556 95.3145 127.215 85.0391C126.377 88.6162 125.923 91.7374 125.923 94.4377C125.923 98.8565 129.765 104.853 132.734 104.853C136.192 104.853 142.62 96.086 147.894 87.2835C147.3 89.9839 146.916 92.4738 146.916 94.4377C146.916 99.4176 150.898 104.853 153.728 104.853C157.011 104.853 163.019 96.8575 168.154 88.4759C168.014 89.8436 167.91 91.1763 167.91 92.4738C167.91 100.294 174.581 104.853 176.992 104.853C185.515 104.853 194.387 95.4898 200.64 86.3717C199.941 89.563 199.557 92.3686 199.557 94.4728C199.557 98.8916 203.819 104.888 206.788 104.888C210.77 104.888 217.442 95.3495 223.1 85.0741C222.262 88.6512 221.808 91.7724 221.808 94.4728C221.808 98.8916 225.65 104.888 228.619 104.888C232.043 104.888 238.4 96.2964 243.64 87.5641C243.116 90.2644 242.801 92.6842 242.801 94.5079C242.801 98.9266 247.063 104.924 249.892 104.924C253.875 104.924 260.965 95.1041 266.624 84.4078C265.646 88.546 265.052 91.9478 265.052 94.5079C265.052 99.4878 269.035 104.924 271.864 104.924C277.837 104.924 292.194 79.7435 294.883 71.8529C295.652 78.0602 298.027 83.0401 299.075 87.8446C295.512 89.4228 291.146 89.7033 286.744 90.2644C286.186 90.6853 284.474 92.6842 284.474 94.2624C284.474 97.2433 291.705 105.239 297.538 105.239C301.939 105.239 307.738 99.9787 307.738 91.9829C307.738 91.2815 307.598 90.545 307.598 89.9839C317.868 81.9529 323.527 69.2577 320.837 69.2577ZM197.671 56.317C199.243 57.8951 190.719 74.9741 181.079 74.9741H180.939C186.178 63.5764 195.4 54.0375 197.671 56.317ZM28.1161 93.07C27.9763 93.07 27.8366 92.9297 27.6969 92.7895C27.5572 92.3686 27.4174 91.8075 27.4174 90.7905C27.4174 77.8147 40.4816 55.8962 46.1404 55.8962C47.9918 55.8962 49.389 57.6146 50.9609 59.2979L47.9917 65.2948C42.3329 74.413 32.0982 93.07 28.1161 93.07ZM76.6351 136.942C75.9365 136.241 75.657 135.083 75.657 133.225C75.657 125.264 82.0494 107.308 90.3979 87.6342C88.1274 106.887 80.198 140.484 76.6351 136.942ZM114.395 93.07C114.256 93.07 114.116 92.9297 113.976 92.7895C113.837 92.3686 113.697 91.8075 113.697 90.7905C113.697 77.8147 126.761 55.8962 132.42 55.8962C134.271 55.8962 135.668 57.6146 137.24 59.2979L134.271 65.2948C128.577 74.413 118.378 93.07 114.395 93.07ZM210.316 93.07C210.176 93.07 210.036 92.9297 209.896 92.7895C209.757 92.3686 209.617 91.8075 209.617 90.7905C209.617 77.8147 222.681 55.8962 228.34 55.8962C230.191 55.8962 231.589 57.6146 233.16 59.2979L230.191 65.2948C224.498 74.413 214.298 93.07 210.316 93.07ZM253.595 93.07C253.455 93.07 252.896 92.9297 252.896 90.7905C252.896 77.8147 265.541 55.8962 271.619 55.8962C273.331 55.8962 274.728 57.334 276.021 58.8771L273.331 65.5754C267.498 74.8338 257.403 93.07 253.595 93.07ZM296.735 97.4888C295.442 97.4888 294.045 96.9277 292.613 95.6301C295.303 95.6301 297.573 95.2093 299.983 94.1922C299.844 95.7704 299.145 97.4888 296.735 97.4888Z" fill="white"/>
</svg>
