<svg width="211" height="66" viewBox="0 0 211 66" fill="none" xmlns="http://www.w3.org/2000/svg">
<path d="M34.768 9.17199C34.2386 9.10209 34.6262 8.75007 35.3864 8.77254C36.1466 8.79502 36.0271 8.524 35.0805 8.17748C33.8844 7.73965 26.398 6.68655 23.1611 7.35451C19.9242 8.02248 22.6231 6.06567 25.0743 5.55678C25.4989 5.46862 25.9518 5.36151 26.4414 5.24574C28.7776 4.69324 31.9479 3.94347 36.8617 4.11461C37.8581 4.14932 38.127 3.81453 38.044 3.72737C37.9609 3.6402 38.0129 3.44922 38.3379 3.5135C38.5346 3.55239 38.6207 3.41848 38.8408 3.44945C39.061 3.48042 42.6725 4.41274 40.7275 3.44525C38.7123 2.44288 34.6864 2.01135 33.5546 2.0768C32.4228 2.14225 29.6546 1.70792 31.6029 1.26308C33.5512 0.818235 35.0282 0.531765 42.0426 1.4286C43.9212 1.66879 45.6699 2.54835 47.3481 3.42463C54.5814 7.20144 60.4229 13.6731 63.2288 22.022C68.9889 39.1605 59.7762 57.7196 42.6518 63.4749C26.279 68.9776 8.60175 60.7836 2.04706 45.0744C1.96831 44.8084 1.87202 44.5042 1.75385 44.1526C0.644329 40.8513 -0.199591 31.1622 1.54736 26.061C3.29432 20.9599 5.79694 16.2347 6.98785 14.7847C8.17876 13.3347 7.17806 15.3506 6.70855 16.1383C6.65174 16.2336 6.55782 16.3874 6.43721 16.585C5.56087 18.0206 3.27547 21.7646 3.58048 22.1235C3.80346 22.3858 3.92101 22.0767 4.08454 21.6467C4.26436 21.1738 4.51184 20.7505 4.75599 20.3095C5.65841 18.6796 8.03045 14.3953 10.4081 12.1655C13.1994 9.54776 13.7975 9.76667 12.4489 11.0597C11.1003 12.3528 6.61687 17.1139 4.71141 21.7434C3.47823 24.7395 3.47521 24.86 3.451 25.8262C3.43781 26.3529 3.41831 27.131 3.18979 28.7633C2.54207 33.39 3.18465 38.4229 3.43997 39.8067C3.69529 41.1906 3.91205 39.963 3.75183 38.8621C3.59162 37.7612 4.34215 36.2493 4.44239 38.4201C4.54263 40.5909 5.81065 44.3638 6.56975 45.9982C7.32885 47.6327 10.3884 51.1184 11.8697 52.4052C13.3511 53.6919 14.2935 53.3752 13.0649 52.5284C11.8363 51.6816 11.647 51.4303 11.5202 51.053C11.3934 50.6757 12.2433 51.0199 11.928 50.706C11.6127 50.392 11.2743 50.0827 10.9965 49.8091C9.88294 48.7123 7.9244 46.7834 6.90818 43.2601C5.63844 38.8579 5.19292 36.9081 5.60074 36.5611C5.7523 36.4321 5.76778 35.769 5.79134 34.7603C5.83116 33.0547 5.89405 30.3611 6.67685 27.5914C7.92259 23.1836 10.1133 19.403 11.7121 17.6059C13.3108 15.8089 17.1372 12.2134 20.0262 10.8226C22.2832 9.73596 20.6867 10.9155 20.404 11.0105C20.1213 11.1055 18.7738 11.858 18.7085 11.8953C17.7672 12.4333 17.575 12.8748 15.9393 14.37C8.20995 20.4711 4.69086 30.7329 7.90631 40.3002C12.0381 52.5941 25.7254 59.0859 38.4776 54.8001C51.2298 50.5142 58.218 37.0737 54.0862 24.7798C51.1725 16.1101 43.5067 10.3259 34.768 9.17199Z" fill="#1B68E6"/>
<path d="M10.5499 36.9817C12.5699 36.9817 14.5365 36.9817 16.5231 36.9817C16.6702 38.0383 17.4595 38.4997 18.3425 38.7405C20.2689 39.2688 22.222 39.3089 24.1418 38.707C25.9545 38.1386 27.0247 36.7142 27.1317 34.8216C27.1585 34.3803 27.1384 33.9322 27.1384 33.4708C26.8976 33.3905 26.7304 33.424 26.5899 33.6915C26.1618 34.4806 25.4528 34.9554 24.6501 35.3098C23.5264 35.8047 22.3291 35.9919 21.1117 36.0922C19.5063 36.226 17.9077 36.226 16.309 35.9719C14.7505 35.7244 13.2856 35.2429 12.075 34.1596C10.6636 32.8957 10.1485 31.2907 10.2957 29.445C10.5365 26.4557 12.376 24.8574 15.0582 24.0081C16.5097 23.5467 18.0147 23.3661 19.5331 23.2992C21.9344 23.1922 24.3224 23.2992 26.6434 24.0014C29.9544 24.9978 31.8742 27.2314 32.4829 30.6153C32.8641 32.7352 32.8441 34.8551 32.3156 36.9482C31.5063 40.1716 29.4126 42.1443 26.2287 42.9936C24.2354 43.5219 22.2087 43.6022 20.1619 43.5019C18.5699 43.4283 16.9913 43.2344 15.4662 42.7328C14.3492 42.365 13.2856 41.8835 12.3826 41.1078C11.2589 40.1381 10.6301 38.9076 10.5432 37.4163C10.5432 37.2826 10.5499 37.1489 10.5499 36.9817ZM21.4461 32.4677C22.1752 32.4075 22.911 32.374 23.6401 32.2804C24.3959 32.1868 25.1317 32.0062 25.7739 31.5649C26.8441 30.8226 26.8842 29.338 25.8073 28.609C25.3591 28.3081 24.8173 28.0874 24.2889 27.967C22.5899 27.5792 20.8642 27.5992 19.1385 27.84C18.4094 27.9403 17.6936 28.1275 17.0783 28.5689C16.008 29.3313 16.0013 30.8159 17.085 31.5649C17.3793 31.7722 17.7271 31.9193 18.0749 32.033C19.1652 32.3807 20.3023 32.4209 21.4461 32.4677ZM34.0553 36.9817C36.0486 36.9817 38.0219 36.9817 40.0085 36.9817C40.1556 38.0383 40.9449 38.4997 41.8279 38.7405C43.7543 39.2688 45.7074 39.3089 47.6272 38.707C49.4399 38.1386 50.5101 36.7142 50.6171 34.8216C50.6439 34.3803 50.6238 33.9322 50.6238 33.4708C50.383 33.3905 50.2158 33.424 50.0753 33.6915C49.6472 34.4806 48.9382 34.9554 48.1355 35.3098C47.0118 35.8047 45.8145 35.9919 44.5971 36.0922C42.9917 36.226 41.3931 36.226 39.7944 35.9719C38.2359 35.7244 36.771 35.2429 35.5603 34.1596C34.149 32.8957 33.6272 31.2907 33.7811 29.445C34.0219 26.4557 35.8613 24.8574 38.5436 24.0081C39.9951 23.5467 41.5001 23.3661 43.0185 23.2992C45.4198 23.1922 47.8078 23.2992 50.1288 24.0014C53.4398 24.9978 55.3596 27.2314 55.9682 30.6153C56.3495 32.7352 56.3294 34.8551 55.801 36.9482C54.9917 40.1716 52.898 42.1443 49.7141 42.9936C47.7208 43.5219 45.6941 43.6022 43.6472 43.5019C42.0553 43.4283 40.4767 43.2344 38.9516 42.7328C37.8346 42.365 36.771 41.8835 35.868 41.1078C34.7443 40.1381 34.1155 38.9076 34.0286 37.4163C34.0219 37.316 34.0219 37.2157 34.0286 37.1154C34.0353 37.082 34.042 37.0485 34.0553 36.9817ZM44.9248 32.4677C45.6539 32.4075 46.3897 32.374 47.1188 32.2804C47.8746 32.1868 48.6104 32.0062 49.2526 31.5649C50.3228 30.8226 50.3629 29.3513 49.2994 28.6024C48.9248 28.3415 48.4833 28.1342 48.0352 28.0205C46.2158 27.5591 44.3763 27.5792 42.5302 27.8467C41.8346 27.947 41.159 28.1342 40.5703 28.5489C39.4801 29.3179 39.4867 30.8159 40.5904 31.5582C40.8914 31.7588 41.2392 31.9059 41.5871 32.0196C42.6707 32.3807 43.7944 32.4209 44.9248 32.4677Z" fill="#1B68E6"/>
<path d="M83.0806 39.6158C82.9084 40.2165 82.7364 40.8169 82.5599 41.4151C82.5488 41.4486 82.5365 41.4831 82.524 41.5184C82.5046 41.573 82.4847 41.6292 82.4674 41.6854H75.3959L75.3604 41.5641C73.9067 36.5961 72.4529 31.6279 70.9922 26.6317H77.1175C77.3239 27.521 77.5302 28.4103 77.7365 29.3066C77.8668 29.8734 78.0017 30.4395 78.1366 31.0055C78.4437 32.294 78.7507 33.5821 79.0028 34.8771C79.1504 35.6301 79.207 36.3977 79.2636 37.1669C79.2862 37.4731 79.3088 37.7797 79.3372 38.0856C79.3465 38.1928 79.3436 38.2999 79.3405 38.4151C79.3389 38.4758 79.3372 38.5387 79.3372 38.6049H79.8636C79.8669 38.5934 79.8706 38.5819 79.8743 38.5702C79.8866 38.5317 79.8992 38.4922 79.8992 38.4484C79.8494 36.4849 80.262 34.5925 80.7458 32.7072C81.0906 31.3807 81.4096 30.0509 81.7289 28.7201C81.8839 28.0739 82.039 27.4275 82.1971 26.7811C82.2113 26.7384 82.2256 26.6957 82.2469 26.6388H88.2513C88.3509 27.0443 88.4505 27.4516 88.5501 27.8589C88.6497 28.2662 88.7493 28.6735 88.8489 29.079C88.9887 29.6563 89.1351 30.2322 89.2814 30.808C89.5896 32.0203 89.8977 33.2323 90.1437 34.4573C90.3308 35.3931 90.4396 36.3425 90.5501 37.3079C90.5993 37.737 90.6488 38.1693 90.7057 38.6049H91.1966C91.1966 38.4378 91.1954 38.2713 91.1943 38.1052C91.1914 37.6914 91.1885 37.2803 91.2037 36.8691C91.2521 35.6527 91.5322 34.4776 91.8118 33.3042C91.8609 33.0981 91.91 32.8921 91.9578 32.6859C92.1819 31.7184 92.4078 30.7508 92.6337 29.7833C92.8596 28.8158 93.0854 27.8482 93.3095 26.8807C93.3193 26.827 93.3391 26.7732 93.3598 26.7172C93.3692 26.6916 93.3789 26.6656 93.3878 26.6388H99.4918C99.3148 27.2468 99.1379 27.852 98.9616 28.4548C98.7481 29.1851 98.5355 29.9121 98.3251 30.637C98.0834 31.463 97.8413 32.289 97.5992 33.1151C96.8009 35.8394 96.0022 38.5646 95.2161 41.2941C95.1237 41.6 95.0169 41.7139 94.6684 41.7139C92.5697 41.6925 90.4709 41.6925 88.3722 41.7068C88.109 41.7068 87.981 41.6427 87.9027 41.3724C87.5897 40.2946 87.2695 39.2185 86.9494 38.1425C86.6293 37.0665 86.3091 35.9905 85.9961 34.9127C85.6617 33.7459 85.5764 32.5365 85.5479 31.3271C85.5432 30.9732 85.5447 30.6224 85.5463 30.2644C85.5471 30.0826 85.5479 29.899 85.5479 29.7122H84.9716V30.6939C84.9574 32.444 84.7511 34.1586 84.2104 35.8375C83.8053 37.0865 83.4428 38.3519 83.0806 39.6158Z" fill="#212121"/>
<path d="M111.974 39.5945C111.783 40.2437 111.592 40.8931 111.401 41.5431C111.398 41.5637 111.389 41.5843 111.38 41.6072C111.37 41.6319 111.359 41.6594 111.351 41.6925H104.294L104.289 41.6768C102.825 36.6736 101.361 31.6704 99.8902 26.6388H106.016C106.156 27.2396 106.297 27.8384 106.438 28.4361C106.763 29.813 107.086 31.1837 107.389 32.5578C107.673 33.8384 107.922 35.1261 108.128 36.4209C108.203 36.9138 108.222 37.4206 108.241 37.9365C108.25 38.1578 108.258 38.3807 108.271 38.6049H108.755C108.757 38.5996 108.76 38.5939 108.764 38.5877C108.778 38.5606 108.797 38.5259 108.797 38.4911C108.733 36.3995 109.217 34.3862 109.729 32.3729C110.051 31.119 110.353 29.8618 110.656 28.6036C110.802 27.9986 110.947 27.3934 111.095 26.7882C111.102 26.7384 111.116 26.6957 111.138 26.6388H117.142C117.313 27.3502 117.491 28.0759 117.669 28.7944C117.807 29.3568 117.95 29.9179 118.093 30.4789C118.429 31.7985 118.765 33.1174 119.035 34.4502C119.207 35.2868 119.287 36.1439 119.367 37.0002C119.403 37.3817 119.439 37.7631 119.483 38.1425C119.492 38.2407 119.489 38.3388 119.486 38.443C119.484 38.4974 119.483 38.5535 119.483 38.6121H120.016C120.028 38.3887 120.033 38.1653 120.037 37.9428C120.048 37.471 120.058 37.0034 120.13 36.5489C120.336 35.2399 120.571 33.938 120.856 32.6432C121.153 31.2802 121.474 29.9207 121.796 28.5623C121.929 27.9993 122.062 27.4364 122.193 26.8736C122.202 26.8189 122.22 26.7701 122.239 26.7177C122.25 26.6883 122.261 26.6578 122.272 26.6246H128.376C128.034 27.8127 127.693 28.9794 127.351 30.1461C126.975 31.4394 126.596 32.7318 126.218 34.0239C125.51 36.4422 124.803 38.8595 124.107 41.2799C124.007 41.6214 123.865 41.7068 123.524 41.7068C121.425 41.6925 119.326 41.6925 117.228 41.7068C116.964 41.7068 116.858 41.6285 116.786 41.3795C116.501 40.4012 116.21 39.4257 115.919 38.4506C115.564 37.2629 115.209 36.0757 114.866 34.8842C114.531 33.7317 114.453 32.5294 114.425 31.3342C114.42 30.98 114.421 30.6259 114.423 30.2655C114.424 30.0829 114.425 29.8987 114.425 29.7122H113.848V30.1532C113.846 30.2901 113.843 30.427 113.841 30.5638C113.819 31.9349 113.797 33.3027 113.421 34.6352C112.946 36.2902 112.46 37.9416 111.974 39.5945Z" fill="#212121"/>
<path fill-rule="evenodd" clip-rule="evenodd" d="M182.465 41.6854H188.078V21.0186H182.472C182.472 21.519 182.469 22.0174 182.467 22.5144C182.461 23.6283 182.455 24.7352 182.479 25.842C182.515 27.4498 182.835 29.0221 183.24 30.5659C182.842 30.701 182.686 30.5445 182.558 30.2101C181.967 28.7019 180.928 27.585 179.427 26.9945C176.959 26.0199 174.433 25.9701 171.936 26.8878C169.944 27.6206 168.557 29.0221 167.781 31.0069C167.205 32.4796 167.098 34.0091 167.319 35.5529C167.717 38.2919 169.112 40.3266 171.694 41.4079C174.099 42.411 176.567 42.3684 179.022 41.5573C180.743 40.9882 181.917 39.8072 182.593 38.1283C182.757 37.7157 182.785 37.7014 183.248 37.8295C183.083 38.6325 182.92 39.4354 182.757 40.2419C182.66 40.7216 182.563 41.2025 182.465 41.6854ZM178.223 37.6947C178.022 37.719 177.821 37.7433 177.62 37.7726C176.681 37.7085 175.756 37.6161 174.917 37.2105C173.658 36.6058 172.861 35.6668 172.861 34.2012C172.861 32.7357 173.636 31.7397 174.917 31.199C176.695 30.4449 178.531 30.452 180.309 31.1919C182.017 31.9033 182.807 33.689 182.18 35.311C181.711 36.5276 180.729 37.1821 179.513 37.488C179.09 37.5901 178.657 37.6423 178.223 37.6947Z" fill="#212121"/>
<path d="M210.777 31.5853C210.802 31.7215 210.827 31.8606 210.858 32.0029H210.854C208.913 32.0029 207.022 32.0029 205.117 31.9958C204.854 30.9144 204.021 30.5089 203.061 30.3382C201.531 30.0607 199.994 30.0963 198.472 30.4022C198.123 30.4663 197.768 30.6441 197.49 30.8646C196.992 31.2488 197.063 31.9247 197.654 32.1452C198.187 32.3444 198.771 32.4582 199.34 32.5009C200.341 32.5803 201.345 32.6416 202.349 32.7029C203.235 32.7571 204.123 32.8113 205.01 32.878C206.554 32.9989 208.062 33.255 209.407 34.1087C210.637 34.8842 211.071 36.0367 210.972 37.4169C210.851 39.167 209.777 40.2412 208.297 40.9811C207.045 41.6071 205.672 41.8277 204.291 41.97C202.541 42.1478 200.784 42.1763 199.034 42.0411C197.554 41.9273 196.089 41.7139 194.716 41.1091C193.094 40.3977 191.849 39.3092 191.415 37.5093C191.342 37.2201 191.316 36.9177 191.288 36.6067C191.275 36.4588 191.262 36.309 191.244 36.1576H196.971C196.979 36.2047 196.987 36.2526 196.995 36.3009C197.019 36.4566 197.045 36.6157 197.099 36.7623C197.305 37.3528 197.782 37.673 198.344 37.8295C198.906 37.9931 199.496 38.1069 200.08 38.1567C201.346 38.2634 202.62 38.2492 203.865 37.9789C204.199 37.9077 204.548 37.7583 204.825 37.5591C205.444 37.1109 205.366 36.3355 204.647 36.0794C204.085 35.8802 203.48 35.7735 202.883 35.7308C201.871 35.6515 200.855 35.5902 199.838 35.5289C198.939 35.4747 198.039 35.4205 197.142 35.3537C195.74 35.2541 194.403 34.9411 193.144 34.2439C191.023 33.0629 190.981 30.1532 192.325 28.7162C193.314 27.6632 194.545 27.0799 195.918 26.7669C198.109 26.2689 200.329 26.1906 202.563 26.3115C204.142 26.3969 205.7 26.6175 207.159 27.272C208.759 27.9905 210.026 29.0719 210.595 30.8006C210.68 31.052 210.727 31.3129 210.777 31.5853Z" fill="#212121"/>
<path fill-rule="evenodd" clip-rule="evenodd" d="M133.042 40.6823C135.113 41.7992 137.361 42.1123 139.673 42.1621C139.9 42.145 140.127 42.1298 140.354 42.1146C140.883 42.0793 141.413 42.0439 141.935 41.9842C143.806 41.7708 145.564 41.2159 147.136 40.1416C151.155 37.4026 151.475 31.8891 147.797 28.7233C146.403 27.521 144.731 26.8807 142.931 26.5463C141.025 26.1906 139.111 26.1693 137.197 26.4112C135.404 26.6388 133.711 27.1724 132.196 28.1897C129.685 29.8829 128.511 32.7713 129.137 35.7166C129.628 38.0073 131.022 39.5938 133.042 40.6823ZM139.677 37.7619C139.673 37.7459 139.669 37.7299 139.666 37.7157C138.67 37.7086 137.681 37.6018 136.742 37.2106C135.027 36.492 134.202 34.8202 134.764 33.2124C135.063 32.3729 135.632 31.7468 136.415 31.384C138.577 30.3809 140.783 30.3524 142.924 31.3982C144.425 32.131 145.058 33.6819 144.575 35.1545C144.198 36.3213 143.315 37.0114 142.184 37.3386C141.618 37.5026 141.03 37.5937 140.444 37.6846C140.191 37.7239 139.938 37.7631 139.687 37.8081C139.684 37.7939 139.68 37.7779 139.677 37.7619Z" fill="#212121"/>
<path d="M155.883 26.6074C154.301 26.6074 153.019 27.8913 153.019 29.475V41.6896H158.746V31.9741C158.781 31.9293 158.818 31.8861 158.857 31.8446H165.256V26.6074H155.883Z" fill="#212121"/>
</svg>
