<svg width="211" height="66" viewBox="0 0 211 66" fill="none" xmlns="http://www.w3.org/2000/svg">
<path d="M34.768 9.17199C34.2386 9.10209 34.6262 8.75007 35.3864 8.77254C36.1466 8.79502 36.0271 8.524 35.0805 8.17748C33.8844 7.73965 26.398 6.68655 23.1611 7.35451C19.9242 8.02248 22.6231 6.06567 25.0743 5.55678C25.4989 5.46862 25.9518 5.36151 26.4414 5.24574C28.7776 4.69324 31.9479 3.94347 36.8617 4.11461C37.8581 4.14932 38.127 3.81453 38.044 3.72737C37.9609 3.6402 38.0129 3.44922 38.3379 3.5135C38.5346 3.55239 38.6207 3.41848 38.8408 3.44945C39.061 3.48042 42.6725 4.41274 40.7275 3.44525C38.7123 2.44288 34.6864 2.01135 33.5546 2.0768C32.4228 2.14225 29.6546 1.70792 31.6029 1.26308C33.5512 0.818235 35.0282 0.531765 42.0426 1.4286C43.9212 1.66879 45.6699 2.54835 47.3481 3.42463C54.5814 7.20144 60.4229 13.6731 63.2288 22.022C68.9889 39.1605 59.7762 57.7196 42.6518 63.4749C26.279 68.9776 8.60175 60.7836 2.04706 45.0744C1.96831 44.8084 1.87202 44.5042 1.75385 44.1526C0.644329 40.8513 -0.199591 31.1622 1.54736 26.061C3.29432 20.9599 5.79694 16.2347 6.98785 14.7847C8.17876 13.3347 7.17806 15.3506 6.70855 16.1383C6.65174 16.2336 6.55782 16.3874 6.43721 16.585C5.56087 18.0206 3.27547 21.7646 3.58048 22.1235C3.80346 22.3858 3.92101 22.0767 4.08454 21.6467C4.26436 21.1738 4.51184 20.7505 4.75599 20.3095C5.65841 18.6796 8.03045 14.3953 10.4081 12.1655C13.1994 9.54776 13.7975 9.76667 12.4489 11.0597C11.1003 12.3528 6.61687 17.1139 4.71141 21.7434C3.47823 24.7395 3.47521 24.86 3.451 25.8262C3.43781 26.3529 3.41831 27.131 3.18979 28.7633C2.54207 33.39 3.18465 38.4229 3.43997 39.8067C3.69529 41.1906 3.91205 39.963 3.75183 38.8621C3.59162 37.7612 4.34215 36.2493 4.44239 38.4201C4.54263 40.5909 5.81065 44.3638 6.56975 45.9982C7.32885 47.6327 10.3884 51.1184 11.8697 52.4052C13.3511 53.6919 14.2935 53.3752 13.0649 52.5284C11.8363 51.6816 11.647 51.4303 11.5202 51.053C11.3934 50.6757 12.2433 51.0199 11.928 50.706C11.6127 50.392 11.2743 50.0827 10.9965 49.8091C9.88294 48.7123 7.9244 46.7834 6.90818 43.2601C5.63844 38.8579 5.19292 36.9081 5.60074 36.5611C5.7523 36.4321 5.76778 35.769 5.79134 34.7603C5.83116 33.0547 5.89405 30.3611 6.67685 27.5914C7.92259 23.1836 10.1133 19.403 11.7121 17.6059C13.3108 15.8089 17.1372 12.2134 20.0262 10.8226C22.2832 9.73596 20.6867 10.9155 20.404 11.0105C20.1213 11.1055 18.7738 11.858 18.7085 11.8953C17.7672 12.4333 17.575 12.8748 15.9393 14.37C8.20995 20.4711 4.69086 30.7329 7.90631 40.3002C12.0381 52.5941 25.7254 59.0859 38.4776 54.8001C51.2298 50.5142 58.218 37.0737 54.0862 24.7798C51.1725 16.1101 43.5067 10.3259 34.768 9.17199Z" fill="#1B68E6"/>
<path d="M10.5499 36.9817C12.5699 36.9817 14.5365 36.9817 16.5231 36.9817C16.6702 38.0383 17.4595 38.4997 18.3425 38.7405C20.2689 39.2688 22.222 39.3089 24.1418 38.707C25.9545 38.1386 27.0247 36.7142 27.1317 34.8216C27.1585 34.3803 27.1384 33.9322 27.1384 33.4708C26.8976 33.3905 26.7304 33.424 26.5899 33.6915C26.1618 34.4806 25.4528 34.9554 24.6501 35.3098C23.5264 35.8047 22.3291 35.9919 21.1117 36.0922C19.5063 36.226 17.9077 36.226 16.309 35.9719C14.7505 35.7244 13.2856 35.2429 12.075 34.1596C10.6636 32.8957 10.1485 31.2907 10.2957 29.445C10.5365 26.4557 12.376 24.8574 15.0582 24.0081C16.5097 23.5467 18.0147 23.3661 19.5331 23.2992C21.9344 23.1922 24.3224 23.2992 26.6434 24.0014C29.9544 24.9978 31.8742 27.2314 32.4829 30.6153C32.8641 32.7352 32.8441 34.8551 32.3156 36.9482C31.5063 40.1716 29.4126 42.1443 26.2287 42.9936C24.2354 43.5219 22.2087 43.6022 20.1619 43.5019C18.5699 43.4283 16.9913 43.2344 15.4662 42.7328C14.3492 42.365 13.2856 41.8835 12.3826 41.1078C11.2589 40.1381 10.6301 38.9076 10.5432 37.4163C10.5432 37.2826 10.5499 37.1489 10.5499 36.9817ZM21.4461 32.4677C22.1752 32.4075 22.911 32.374 23.6401 32.2804C24.3959 32.1868 25.1317 32.0062 25.7739 31.5649C26.8441 30.8226 26.8842 29.338 25.8073 28.609C25.3591 28.3081 24.8173 28.0874 24.2889 27.967C22.5899 27.5792 20.8642 27.5992 19.1385 27.84C18.4094 27.9403 17.6936 28.1275 17.0783 28.5689C16.008 29.3313 16.0013 30.8159 17.085 31.5649C17.3793 31.7722 17.7271 31.9193 18.0749 32.033C19.1652 32.3807 20.3023 32.4209 21.4461 32.4677ZM34.0553 36.9817C36.0486 36.9817 38.0219 36.9817 40.0085 36.9817C40.1556 38.0383 40.9449 38.4997 41.8279 38.7405C43.7543 39.2688 45.7074 39.3089 47.6272 38.707C49.4399 38.1386 50.5101 36.7142 50.6171 34.8216C50.6439 34.3803 50.6238 33.9322 50.6238 33.4708C50.383 33.3905 50.2158 33.424 50.0753 33.6915C49.6472 34.4806 48.9382 34.9554 48.1355 35.3098C47.0118 35.8047 45.8145 35.9919 44.5971 36.0922C42.9917 36.226 41.3931 36.226 39.7944 35.9719C38.2359 35.7244 36.771 35.2429 35.5603 34.1596C34.149 32.8957 33.6272 31.2907 33.7811 29.445C34.0219 26.4557 35.8613 24.8574 38.5436 24.0081C39.9951 23.5467 41.5001 23.3661 43.0185 23.2992C45.4198 23.1922 47.8078 23.2992 50.1288 24.0014C53.4398 24.9978 55.3596 27.2314 55.9682 30.6153C56.3495 32.7352 56.3294 34.8551 55.801 36.9482C54.9917 40.1716 52.898 42.1443 49.7141 42.9936C47.7208 43.5219 45.6941 43.6022 43.6472 43.5019C42.0553 43.4283 40.4767 43.2344 38.9516 42.7328C37.8346 42.365 36.771 41.8835 35.868 41.1078C34.7443 40.1381 34.1155 38.9076 34.0286 37.4163C34.0219 37.316 34.0219 37.2157 34.0286 37.1154C34.0353 37.082 34.042 37.0485 34.0553 36.9817ZM44.9248 32.4677C45.6539 32.4075 46.3897 32.374 47.1188 32.2804C47.8746 32.1868 48.6104 32.0062 49.2526 31.5649C50.3228 30.8226 50.3629 29.3513 49.2994 28.6024C48.9248 28.3415 48.4833 28.1342 48.0352 28.0205C46.2158 27.5591 44.3763 27.5792 42.5302 27.8467C41.8346 27.947 41.159 28.1342 40.5703 28.5489C39.4801 29.3179 39.4867 30.8159 40.5904 31.5582C40.8914 31.7588 41.2392 31.9059 41.5871 32.0196C42.6707 32.3807 43.7944 32.4209 44.9248 32.4677Z" fill="#1B68E6"/>
<path d="M83.0806 39.6168C82.9084 40.2175 82.7364 40.8179 82.5599 41.416C82.5488 41.4495 82.5365 41.4841 82.524 41.5194C82.5046 41.574 82.4847 41.6302 82.4674 41.6864H75.3959L75.3604 41.5651C73.9067 36.5971 72.4529 31.6289 70.9922 26.6327H77.1175C77.3239 27.522 77.5302 28.4112 77.7365 29.3076C77.8668 29.8744 78.0017 30.4405 78.1366 31.0065C78.4437 32.2949 78.7507 33.5831 79.0028 34.8781C79.1504 35.6311 79.207 36.3987 79.2636 37.1678C79.2862 37.4741 79.3088 37.7806 79.3372 38.0866C79.3465 38.1937 79.3436 38.3009 79.3405 38.4161C79.3389 38.4767 79.3372 38.5396 79.3372 38.6059H79.8636C79.8669 38.5944 79.8706 38.5828 79.8743 38.5712C79.8866 38.5327 79.8992 38.4931 79.8992 38.4494C79.8494 36.4859 80.262 34.5935 80.7458 32.7082C81.0906 31.3817 81.4096 30.0519 81.7289 28.721C81.8839 28.0749 82.039 27.4285 82.1971 26.7821C82.2113 26.7394 82.2256 26.6967 82.2469 26.6398H88.2513C88.3509 27.0453 88.4505 27.4526 88.5501 27.8599C88.6497 28.2672 88.7493 28.6745 88.8489 29.08C88.9887 29.6573 89.1351 30.2332 89.2814 30.809C89.5896 32.0212 89.8977 33.2332 90.1437 34.4583C90.3308 35.3941 90.4396 36.3435 90.5501 37.3089C90.5993 37.738 90.6488 38.1703 90.7057 38.6059H91.1966C91.1966 38.4388 91.1954 38.2723 91.1943 38.1062C91.1914 37.6924 91.1885 37.2812 91.2037 36.8701C91.2521 35.6537 91.5322 34.4785 91.8118 33.3052C91.8609 33.0991 91.91 32.8931 91.9578 32.6869C92.1819 31.7193 92.4078 30.7518 92.6337 29.7843C92.8596 28.8167 93.0854 27.8492 93.3095 26.8817C93.3193 26.8279 93.3391 26.7742 93.3598 26.7182C93.3692 26.6926 93.3789 26.6665 93.3878 26.6398H99.4918C99.3148 27.2478 99.1379 27.8529 98.9616 28.4558C98.7481 29.1861 98.5355 29.9131 98.3251 30.638C98.0834 31.464 97.8413 32.29 97.5992 33.116C96.8009 35.8403 96.0022 38.5656 95.2161 41.2951C95.1237 41.601 95.0169 41.7148 94.6684 41.7148C92.5697 41.6935 90.4709 41.6935 88.3722 41.7077C88.109 41.7077 87.981 41.6437 87.9027 41.3734C87.5897 40.2956 87.2695 39.2195 86.9494 38.1435C86.6293 37.0675 86.3091 35.9914 85.9961 34.9136C85.6617 33.7469 85.5764 32.5375 85.5479 31.3281C85.5432 30.9742 85.5447 30.6234 85.5463 30.2654C85.5471 30.0836 85.5479 29.9 85.5479 29.7131H84.9716V30.6949C84.9574 32.445 84.7511 34.1595 84.2104 35.8385C83.8053 37.0875 83.4428 38.3528 83.0806 39.6168Z" fill="white"/>
<path d="M111.974 39.5955C111.783 40.2447 111.592 40.8941 111.401 41.5441C111.398 41.5647 111.389 41.5852 111.38 41.6082C111.37 41.6329 111.359 41.6603 111.351 41.6935H104.294L104.289 41.6778C102.825 36.6746 101.361 31.6714 99.8902 26.6398H106.016C106.156 27.2406 106.297 27.8394 106.438 28.437C106.763 29.8139 107.086 31.1847 107.389 32.5588C107.673 33.8394 107.922 35.1271 108.128 36.4219C108.203 36.9147 108.222 37.4216 108.241 37.9375C108.25 38.1587 108.258 38.3817 108.271 38.6059H108.755C108.757 38.6006 108.76 38.5948 108.764 38.5886C108.778 38.5616 108.797 38.5268 108.797 38.4921C108.733 36.4005 109.217 34.3872 109.729 32.3739C110.051 31.1199 110.353 29.8628 110.656 28.6046C110.802 27.9996 110.947 27.3944 111.095 26.7892C111.102 26.7394 111.116 26.6967 111.138 26.6398H117.142C117.313 27.3512 117.491 28.0769 117.669 28.7954C117.807 29.3578 117.95 29.9189 118.093 30.4799C118.429 31.7995 118.765 33.1183 119.035 34.4512C119.207 35.2878 119.287 36.1449 119.367 37.0011C119.403 37.3827 119.439 37.7641 119.483 38.1435C119.492 38.2416 119.489 38.3398 119.486 38.4439C119.484 38.4984 119.483 38.5544 119.483 38.613H120.016C120.028 38.3896 120.033 38.1662 120.037 37.9438C120.048 37.472 120.058 37.0044 120.13 36.5499C120.336 35.2409 120.571 33.939 120.856 32.6442C121.153 31.2812 121.474 29.9217 121.796 28.5633C121.929 28.0002 122.062 27.4374 122.193 26.8746C122.202 26.8199 122.22 26.7711 122.239 26.7187C122.25 26.6893 122.261 26.6588 122.272 26.6256H128.376C128.034 27.8136 127.693 28.9804 127.351 30.1471C126.975 31.4404 126.596 32.7327 126.218 34.0249C125.51 36.4431 124.803 38.8605 124.107 41.2809C124.007 41.6224 123.865 41.7077 123.524 41.7077C121.425 41.6935 119.326 41.6935 117.228 41.7077C116.964 41.7077 116.858 41.6295 116.786 41.3805C116.501 40.4021 116.21 39.4267 115.919 38.4515C115.564 37.2639 115.209 36.0767 114.866 34.8852C114.531 33.7327 114.453 32.5304 114.425 31.3352C114.42 30.981 114.421 30.6268 114.423 30.2664C114.424 30.0839 114.425 29.8997 114.425 29.7131H113.848V30.1542C113.846 30.2911 113.843 30.428 113.841 30.5648C113.819 31.9358 113.797 33.3037 113.421 34.6362C112.946 36.2912 112.46 37.9426 111.974 39.5955Z" fill="white"/>
<path fill-rule="evenodd" clip-rule="evenodd" d="M182.465 41.6864H188.078V21.0195H182.472C182.472 21.52 182.469 22.0184 182.467 22.5154C182.461 23.6293 182.455 24.7361 182.479 25.843C182.515 27.4508 182.835 29.023 183.24 30.5668C182.842 30.702 182.686 30.5455 182.558 30.2111C181.967 28.7029 180.928 27.586 179.427 26.9955C176.959 26.0208 174.433 25.971 171.936 26.8888C169.944 27.6215 168.557 29.023 167.781 31.0079C167.205 32.4806 167.098 34.0101 167.319 35.5539C167.717 38.2929 169.112 40.3276 171.694 41.4089C174.099 42.412 176.567 42.3693 179.022 41.5583C180.743 40.9892 181.917 39.8082 182.593 38.1293C182.757 37.7166 182.785 37.7024 183.248 37.8305C183.083 38.6334 182.92 39.4364 182.757 40.2429C182.66 40.7226 182.563 41.2035 182.465 41.6864ZM178.223 37.6957C178.022 37.72 177.821 37.7443 177.62 37.7735C176.681 37.7095 175.756 37.617 174.917 37.2115C173.658 36.6068 172.861 35.6677 172.861 34.2022C172.861 32.7367 173.636 31.7407 174.917 31.2C176.695 30.4459 178.531 30.453 180.309 31.1929C182.017 31.9043 182.807 33.69 182.18 35.312C181.711 36.5286 180.729 37.1831 179.513 37.489C179.09 37.5911 178.657 37.6433 178.223 37.6957Z" fill="white"/>
<path d="M210.777 31.5863C210.802 31.7225 210.827 31.8616 210.858 32.0039H210.854C208.913 32.0039 207.022 32.0039 205.117 31.9968C204.854 30.9154 204.021 30.5099 203.061 30.3392C201.531 30.0617 199.994 30.0973 198.472 30.4032C198.123 30.4672 197.768 30.6451 197.49 30.8656C196.992 31.2498 197.063 31.9256 197.654 32.1462C198.187 32.3454 198.771 32.4592 199.34 32.5019C200.341 32.5812 201.345 32.6425 202.349 32.7039C203.235 32.758 204.123 32.8122 205.01 32.879C206.554 32.9999 208.062 33.256 209.407 34.1097C210.637 34.8852 211.071 36.0377 210.972 37.4178C210.851 39.1679 209.777 40.2422 208.297 40.9821C207.045 41.6081 205.672 41.8287 204.291 41.9709C202.541 42.1488 200.784 42.1773 199.034 42.0421C197.554 41.9283 196.089 41.7148 194.716 41.1101C193.094 40.3987 191.849 39.3102 191.415 37.5103C191.342 37.221 191.316 36.9187 191.288 36.6077C191.275 36.4598 191.262 36.3099 191.244 36.1586H196.971C196.979 36.2057 196.987 36.2536 196.995 36.3019C197.019 36.4576 197.045 36.6167 197.099 36.7633C197.305 37.3538 197.782 37.6739 198.344 37.8305C198.906 37.9941 199.496 38.1079 200.08 38.1577C201.346 38.2644 202.62 38.2502 203.865 37.9799C204.199 37.9087 204.548 37.7593 204.825 37.5601C205.444 37.1119 205.366 36.3365 204.647 36.0804C204.085 35.8812 203.48 35.7744 202.883 35.7318C201.871 35.6524 200.855 35.5912 199.838 35.5299C198.939 35.4757 198.039 35.4215 197.142 35.3547C195.74 35.2551 194.403 34.9421 193.144 34.2449C191.023 33.0639 190.981 30.1542 192.325 28.7171C193.314 27.6642 194.545 27.0809 195.918 26.7678C198.109 26.2698 200.329 26.1916 202.563 26.3125C204.142 26.3979 205.7 26.6184 207.159 27.2729C208.759 27.9915 210.026 29.0728 210.595 30.8016C210.68 31.053 210.727 31.3138 210.777 31.5863Z" fill="white"/>
<path fill-rule="evenodd" clip-rule="evenodd" d="M133.042 40.6833C135.113 41.8002 137.361 42.1132 139.673 42.163C139.9 42.1459 140.127 42.1307 140.354 42.1156C140.883 42.0802 141.413 42.0449 141.935 41.9852C143.806 41.7718 145.564 41.2168 147.136 40.1426C151.155 37.4036 151.475 31.8901 147.797 28.7243C146.403 27.522 144.731 26.8817 142.931 26.5473C141.025 26.1916 139.111 26.1702 137.197 26.4121C135.404 26.6398 133.711 27.1734 132.196 28.1907C129.685 29.8839 128.511 32.7723 129.137 35.7175C129.628 38.0083 131.022 39.5948 133.042 40.6833ZM139.677 37.7629C139.673 37.7469 139.669 37.7309 139.666 37.7166C138.67 37.7095 137.681 37.6028 136.742 37.2115C135.027 36.493 134.202 34.8211 134.764 33.2133C135.063 32.3739 135.632 31.7478 136.415 31.385C138.577 30.3819 140.783 30.3534 142.924 31.3992C144.425 32.132 145.058 33.6829 144.575 35.1555C144.198 36.3223 143.315 37.0123 142.184 37.3396C141.618 37.5036 141.03 37.5947 140.444 37.6856C140.191 37.7249 139.938 37.7641 139.687 37.8091C139.684 37.7949 139.68 37.7789 139.677 37.7629Z" fill="white"/>
<path d="M155.883 26.6084C154.301 26.6084 153.019 27.8922 153.019 29.476V41.6905H158.746V31.9751C158.781 31.9303 158.818 31.887 158.857 31.8455H165.256V26.6084H155.883Z" fill="white"/>
</svg>
