<svg width="339" height="98" viewBox="0 0 339 98" fill="none" xmlns="http://www.w3.org/2000/svg">
<path d="M54.598 48.3857C54.3151 49.022 53.8785 49.2756 53.2615 49.1199C53.2348 48.4769 53.1768 47.8162 53.1813 47.1554C54.0723 47.7005 54.5401 48.1165 54.6002 48.3857H54.598ZM182.081 7.09025C181.86 7.10157 181.642 7.14044 181.431 7.20594C181.198 7.27489 180.958 7.31377 180.716 7.32162C180.924 6.57285 181.178 5.83735 181.475 5.11914C181.444 5.21258 181.564 5.49957 181.778 5.97566C181.992 6.45175 182.108 6.82996 182.081 7.09025ZM175.588 9.38395C175.634 9.6154 175.599 9.8556 175.49 10.0647C175.381 10.1849 175.18 10.216 174.808 10.2093C175.038 9.90745 175.3 9.63078 175.588 9.38395ZM191.59 8.38727C190.149 10.4073 189.389 12.7789 189.363 15.5175C189.363 15.9936 189.407 17.0548 189.467 18.7033C189.512 19.8062 189.494 20.9107 189.414 22.0115C189.251 24.0138 188.991 27.204 188.699 31.6335C188.604 32.1445 188.477 32.649 188.318 33.1441C188.154 33.6627 188.046 34.1975 187.997 34.7392C187.997 34.9617 188.158 35.3822 188.485 35.9762C188.833 36.608 189.035 37.0885 189.033 37.4356C189.033 37.687 188.795 38.2476 188.34 39.1264C187.886 40.0051 187.616 40.5725 187.616 40.8261C187.616 41.1353 187.948 42.1008 188.556 43.7182C189.164 45.3356 189.47 46.2856 189.467 46.5459C189.465 46.8062 189.193 47.9274 188.672 49.9052C188.151 51.883 187.846 53.0198 187.844 53.3291C187.885 54.054 188.004 54.7723 188.2 55.4715C188.545 56.8419 188.712 57.6384 188.835 57.9187C188.345 57.9147 187.857 57.8549 187.38 57.7407C187.137 57.665 186.889 57.6107 186.636 57.5783C186.372 57.5786 186.118 57.6761 185.921 57.8519C185.741 58.0019 185.528 58.1085 185.3 58.1634C185.198 57.9955 185.062 57.8507 184.901 57.7385C184.678 57.5783 184.56 57.4604 184.438 57.358C184.85 55.912 185.184 53.843 185.552 51.1644C185.782 49.7074 185.927 48.238 185.984 46.7639C185.984 46.5103 185.685 45.0709 184.99 42.5035C184.295 39.9362 183.93 38.5213 183.932 38.2587C183.934 37.9962 184.155 37.3933 184.627 36.3922C185.099 35.3911 185.295 34.8349 185.295 34.6547C185.295 34.401 185.046 33.945 184.469 33.2709C183.892 32.5968 183.622 32.1585 183.64 31.9538C183.658 31.7492 183.908 31.213 184.364 30.3565C184.764 29.6761 185.055 28.9375 185.226 28.1674C185.355 27.3464 185.378 26.1362 185.373 24.5321C185.373 22.4565 185.373 21.2418 185.398 20.8992C185.621 18.5654 186.086 15.1838 186.643 10.7255C187.235 10.2093 187.857 9.75993 188.481 9.25269C189.416 8.49183 189.949 7.77102 190.013 7.25043C190.292 7.47291 190.784 7.83331 191.588 8.37837L191.59 8.38727ZM167.56 14.1916C166.473 14.3473 165.575 14.3162 164.863 14.0781C165.05 14.1226 165.518 13.6532 166.299 12.681C166.326 13.2394 166.725 13.74 167.56 14.1916ZM166.001 32.7147C165.895 32.7808 165.8 32.8634 165.72 32.9594C165.638 33.0383 165.54 33.0998 165.433 33.1403C165.327 33.1808 165.213 33.1995 165.099 33.1952C164.876 33.1952 164.471 33.0039 163.956 32.579C163.609 32.292 163.232 31.9627 162.842 31.6891C160.916 30.381 158.677 27.9894 156.16 24.4409C152.253 18.9236 150.011 15.809 149.433 15.0971C149.749 14.0514 150.25 13.3173 150.874 12.8723C152.315 15.2105 154.547 18.7612 157.779 23.4999C157.835 23.58 159.283 24.8058 162.034 27.2485C164.214 29.1863 165.542 31.0306 165.996 32.7036L166.001 32.7147ZM185.656 10.3695C185.667 11.1237 185.547 13.0258 185.278 16.1204C185.01 19.1772 184.549 23.4242 184.077 28.8548C183.987 29.4248 183.783 29.971 183.478 30.4611C183.068 31.1885 182.881 31.6847 182.879 31.9449C182.876 32.2052 183.101 32.6747 183.547 33.3866C183.992 34.0985 184.215 34.5479 184.215 34.7704C184.215 35.0306 183.992 35.5112 183.547 36.1719C183.101 36.8683 182.879 37.331 182.879 37.5913C182.879 37.8516 183.208 39.4823 183.932 42.4857C184.656 45.4891 185.017 47.1287 185.015 47.3979C185.015 48.5103 184.634 51.1666 184.001 55.3424C183.877 56.1394 183.652 56.9176 183.333 57.6584C183.02 57.7465 182.695 57.7796 182.371 57.7563C181.689 57.7363 181.01 57.2624 180.366 56.3324C179.682 56.6083 178.339 57.2468 176.261 58.268C174.639 59.0666 173.681 59.5138 173.463 59.5138C172.126 59.5138 170.772 58.813 169.387 57.4515C169.409 57.0658 169.505 56.688 169.672 56.3391C169.879 55.8564 169.988 55.5249 170.05 55.358C168.522 52.0966 167.672 49.6049 167.6 47.8896C167.725 47.7116 167.571 47.6293 167.199 47.6315C166.899 47.6399 166.602 47.708 166.328 47.8318C166.043 47.9474 165.832 48.0542 165.707 48.1054C165.606 48.9342 165.435 49.7529 165.195 50.5526C164.972 51.2756 164.232 52.3324 163.19 53.8452C162.422 54.9176 161.751 56.056 161.185 57.2468C160.755 56.6439 160.005 55.9987 159.06 55.3313C157.659 54.3435 156.808 53.774 156.53 53.5671C156.347 53.0087 155.979 52.2656 155.583 51.3424C154.999 50.7217 154.013 49.6827 152.721 48.2278C151.246 50.9486 150.787 54.8085 151.251 59.8097C151.001 59.1344 150.694 58.4816 150.333 57.8586C150.021 58.3036 149.676 58.7485 149.364 59.1935C149.426 58.971 149.21 58.8931 148.807 58.9087C148.622 58.9087 148.248 59.2201 147.716 59.7986C147.183 60.377 146.78 60.6773 146.564 60.6885C145.974 60.7174 145.513 59.8564 145.063 58.1345C144.666 56.6172 144.49 55.4248 144.588 54.5749C145.055 54.2149 145.456 53.7777 145.775 53.2823C145.64 50.497 145.423 47.7049 145.212 44.9085C145.194 44.686 145.281 43.8651 145.435 42.4101C145.588 40.9551 145.738 39.8984 145.766 39.1931C145.811 38.1319 145.635 36.5234 145.426 34.3966C145.256 32.6569 145.114 30.8949 144.933 29.164C144.875 28.2499 144.902 27.3323 145.014 26.4232C145.146 25.4085 145.192 24.3843 145.149 23.3619C145.101 22.4227 144.886 21.4994 144.517 20.6344C144.55 20.1227 144.541 19.3129 144.564 18.1761C144.586 17.0392 145.201 15.7978 146.448 14.463C146.695 14.7411 146.972 15.1304 147.37 15.6021C148.208 15.6733 148.796 15.8245 149.103 16.0314C151.284 19.1105 153.471 22.1917 155.739 25.2352C160.194 31.2256 163.326 34.2016 165.134 34.163C165.413 34.163 166.074 33.9161 167.153 33.4044C168.136 32.9605 169.048 32.3718 169.857 31.658C170.302 31.2375 170.846 30.4833 171.391 29.3198C171.814 28.3742 172.285 27.4512 172.804 26.5544C174.523 24.0472 176.263 21.5221 178.032 19.0037C180.174 15.9536 181.549 13.3306 182.143 11.1726C182.215 10.9123 182.669 10.434 183.516 9.73768C184.202 9.16983 184.922 8.64313 185.672 8.16035C185.699 8.90563 185.647 9.64202 185.658 10.3695H185.656ZM180.814 58.2257C179.413 59.3892 178.539 59.9654 178.23 59.9543C177.92 59.9432 177.303 59.6139 176.408 58.9866C176.593 58.9866 177.214 58.8197 178.19 58.4927C179.165 58.1656 179.836 57.9988 180.268 58.0143C180.371 58.0089 180.475 58.026 180.571 58.0644C180.667 58.1029 180.754 58.1617 180.825 58.2368L180.814 58.2257ZM167.743 52.2345C167.743 52.5326 167.438 53.2957 166.736 54.4392C165.845 55.8986 165.295 56.7974 165.105 57.2268C165.105 56.9287 164.909 56.526 164.555 56.0744C164.255 55.6487 163.82 55.3356 163.321 55.1845C163.916 54.2946 164.506 53.3669 165.103 52.4614C165.974 51.1488 166.422 49.9853 166.397 48.9597C167.288 50.5014 167.723 51.5893 167.734 52.2412L167.743 52.2345ZM170.235 59.7118C169.696 59.6657 169.158 59.8072 168.712 60.1123C169.037 59.7176 169.34 59.3054 169.621 58.8775C169.794 59.1776 170 59.4575 170.235 59.7118ZM144.319 31.9205C144.194 31.9205 144.069 31.9405 143.947 31.9405C143.793 31.5957 143.673 31.2442 143.55 30.8815C143.671 30.8006 143.796 30.7263 143.924 30.6591C144.013 31.0918 144.145 31.5145 144.319 31.9205ZM155.788 55.2023C155.788 55.4248 155.768 55.9476 155.717 56.7863C155.666 57.3937 155.651 58.0036 155.672 58.6128C155.022 58.6462 154.113 58.6417 153.131 58.6128C152.727 58.595 152.48 58.635 152.418 58.7641C152.39 58.2332 152.311 57.7064 152.179 57.1912C152.061 56.7021 151.981 56.2045 151.941 55.7028C151.925 55.3558 152.266 53.4269 153.035 49.9185C153.652 50.3635 154.267 51.1333 154.848 52.2189C155.375 53.1339 155.696 54.1528 155.788 55.2045V55.2023ZM140.746 47.2489C140.559 47.2489 140.436 47.2489 140.28 47.28C140.222 46.7683 140.193 46.2655 140.135 45.7539C140.291 45.7338 140.445 45.7316 140.601 45.7138C140.628 46.2344 140.688 46.7372 140.746 47.2489ZM142.459 56.6217L141.993 56.6528C141.938 55.8252 141.882 54.9961 141.824 54.1656L142.289 54.1366C142.367 54.9642 142.394 55.803 142.459 56.6217ZM219.901 25.4131C219.875 25.6645 219.739 26.5255 219.418 27.9783C219.173 28.9902 219.001 30.0185 218.904 31.0551C218.623 31.1129 217.324 30.6101 214.883 29.5222C215.966 29.9271 216.705 29.3509 217.188 27.8314C217.498 26.8592 217.634 25.5466 217.678 23.8981C217.741 23.9337 218.209 24.1206 219.039 24.4476C219.661 24.6879 219.942 25.0216 219.901 25.4131ZM217.714 32.6836C217.681 33.1685 217.148 33.9072 216.182 34.9283L215.003 34.7859C214.948 33.7804 215.357 32.866 216.199 32.0406C216.459 32.1167 216.708 32.2243 216.941 32.361C217.181 32.5063 217.442 32.615 217.714 32.6836ZM214.224 30.8215C213.881 31.2998 213.629 31.7759 213.346 32.2609C213.192 32.1229 213.039 31.985 212.885 31.8359C213.197 31.3598 213.448 30.8726 213.763 30.3876C213.916 30.5345 214.07 30.6835 214.224 30.8326V30.8215ZM213.834 29.0172C212.992 29.6564 211.687 29.9805 209.92 29.9894C209.455 30.3009 208.92 31.2909 208.361 32.9439C207.802 34.5968 207.47 36.0696 207.401 37.3288C207.352 38.3633 207.726 39.7026 208.515 41.32C207.989 41.2844 207.492 41.2421 206.935 41.2065C205.719 37.7203 205.037 35.8204 205.051 35.5245C205.075 34.9194 205.815 32.5946 207.205 28.5611C207.298 28.5611 207.699 28.4766 208.508 28.3209C208.986 28.2114 209.476 28.1584 209.967 28.1629C210.576 28.2538 211.176 28.3937 211.762 28.5812C212.437 28.7975 213.132 28.9465 213.836 29.0261L213.834 29.0172ZM222.314 54.3791C222.002 54.6684 221.721 54.9687 221.441 55.249C221.187 54.9404 220.963 54.6082 220.772 54.2568C220.772 53.754 220.81 53.2601 220.846 52.7551C221.519 52.824 222.011 53.3713 222.314 54.368V54.3791ZM218.447 48.4569C218.42 49.0242 217.817 50.0899 216.783 51.6627C214.236 51.8879 211.706 52.2788 209.21 52.8329C208.893 52.8997 208.568 53.2356 208.305 53.705C208.042 54.1745 207.833 54.6394 207.86 55.0777C206.372 54.9642 205.672 54.5037 205.699 53.6739C205.726 53.1953 205.801 52.7206 205.922 52.2567C206.051 51.8122 206.137 51.3563 206.178 50.8952C206.768 50.6861 207.668 50.6149 208.907 50.7106L209.898 50.7884C210.343 50.824 210.673 50.8485 210.92 50.8663C212.479 50.9775 213.593 50.8107 214.302 50.4547C215.34 49.9341 215.988 48.8351 216.084 47.0531C216.116 46.3972 216.089 45.7397 216.003 45.0887C216.87 45.1954 217.736 45.2911 218.574 45.409C218.536 46.4235 218.476 47.4402 218.429 48.4569H218.447ZM214.533 59.2602C214.511 59.8275 214.088 60.268 213.284 60.5528C212.84 60.732 212.366 60.8234 211.887 60.822L204.639 60.0522C200.086 59.5717 197.669 59.3203 197.422 59.3025C196.96 59.3194 196.506 59.4267 196.085 59.6184C195.675 59.8071 195.231 59.9144 194.78 59.9343C194.811 59.9343 193.443 59.4204 190.637 58.377C191.24 56.1522 191.791 53.9075 192.385 51.6761C192.648 50.6883 192.753 48.9152 192.793 46.3523C192.809 45.3556 192.49 42.8484 191.944 38.8105C191.753 37.3911 191.679 35.4111 191.641 32.886C191.615 31.1062 191.599 29.0862 191.641 26.8303C191.719 23.6156 191.733 22.4876 191.726 23.4376C191.759 23.046 192.029 22.4498 192.546 21.5977C193.031 20.7946 193.546 20.3986 194.04 20.4231C194.35 20.4409 194.909 20.6122 195.68 20.9459C196.451 21.2796 196.978 21.4598 197.288 21.4865C197.598 21.5132 198.09 21.3841 198.747 21.1595C199.222 20.9725 199.727 20.8694 200.237 20.8547C200.547 20.8725 201.476 21.135 202.99 21.6489C204.505 22.1628 205.441 22.4431 205.744 22.4609C205.991 22.4765 206.461 22.3141 207.267 21.9492C208.074 21.5844 208.57 21.4131 208.882 21.4375C209.194 21.462 209.753 21.6823 210.613 22.1628C211.473 22.6433 212.034 22.8925 212.312 22.9081C212.638 22.8627 212.948 22.739 213.215 22.5477C213.56 22.2981 213.981 22.1762 214.406 22.2029C214.735 22.2421 215.052 22.3514 215.335 22.5232C215.6 22.6896 215.894 22.8044 216.202 22.8614C216.455 24.6443 216.348 26.4601 215.885 28.2007C213.195 27.4065 211.245 27.0194 210.036 26.9304C208.766 26.837 207.929 26.9593 207.399 27.2708C206.684 27.6935 205.931 29.0773 205.14 31.4221C204.447 33.4667 204.082 34.8749 204.057 35.6491C204.042 36.2164 204.968 38.4857 206.773 42.4457C208.568 42.657 211.355 43.191 215.014 44.1009C214.983 44.1854 215.057 44.3678 215.166 44.6793C215.261 45.0116 215.29 45.3592 215.253 45.7027C215.168 47.3156 214.763 48.3501 213.992 48.8307C213.424 49.1866 212.471 49.3312 211.201 49.24C211.045 49.24 210.769 49.1777 210.363 49.1221C210.025 49.0776 209.713 49.0754 209.557 49.062C208.163 48.953 207.205 49.1443 206.517 49.6204C205.617 50.2434 205.123 51.5107 205.035 53.4225C204.98 54.5949 205.612 55.6205 206.782 56.3658C207.588 56.8912 208.513 57.2063 209.472 57.2824C209.695 57.298 210.285 57.0822 211.183 56.5994C212.081 56.1166 212.676 55.9031 212.923 55.932C213.448 55.9854 213.814 56.4481 214.123 57.2668C214.383 57.8966 214.526 58.5683 214.544 59.2491L214.533 59.2602ZM217.237 62.6729C215.773 63.6325 214.654 64.0641 213.881 63.9677C213.633 63.9388 213.17 63.6919 212.337 63.2425C211.504 62.7931 210.914 62.575 210.388 62.535C210.138 62.5172 207.815 62.4327 203.538 62.3237C199.48 62.2213 196.379 62.0767 194.212 61.8565C193.856 61.5315 193.517 61.1884 193.196 60.8286C193.878 60.7775 197.936 61.04 205.434 61.6229C205.621 61.6384 206.178 61.7074 207.044 61.8186C207.911 61.9299 208.657 61.9988 209.245 62.0411C213.241 62.3748 215.337 61.5405 215.431 59.3714C215.443 58.8845 215.404 58.3976 215.315 57.9187C215.687 57.9632 216.09 58.0077 216.462 58.0611C217.091 59.5115 217.357 61.0926 217.237 62.6685V62.6729ZM194.611 67.2759C194.236 67.5562 193.925 67.6808 193.74 67.6719C193.74 66.6374 193.905 66.1146 194.277 66.1591C194.472 66.5007 194.587 66.8829 194.611 67.2759ZM255.209 48.537C255.109 49.5626 254.826 50.2256 254.483 50.4903C254.561 50.151 254.677 49.8217 254.831 49.5092C255.049 49.0309 255.207 48.7061 255.209 48.537ZM266.5 37.8405C265.975 37.796 264.023 37.618 260.769 37.3332C258.415 37.1108 256.588 36.8727 255.287 36.5635C254.325 36.8483 253.534 37.7626 252.79 39.2999C252.717 39.4534 252.345 40.6214 251.59 42.7727C250.476 46.0008 249.732 48.9419 249.585 51.6271C249.527 52.6238 249.208 55.1711 248.605 59.2735C247.974 63.5472 247.593 66.742 247.518 68.8577C247.048 69.6986 246.765 70.306 246.731 70.6886C245.188 69.8677 243.836 69.3538 242.722 69.1647C242.248 69.1201 241.771 69.1201 241.296 69.1647C240.811 69.2081 240.323 69.2014 239.84 69.1447C237.363 68.7287 233.716 67.0935 228.925 64.3459C230.192 64.9792 231.943 65.7394 234.18 66.6263C236.213 67.4316 237.521 67.841 238.015 67.9344C238.044 67.9344 239.069 67.9989 240.989 68.1235C242.42 68.1957 243.847 68.3398 245.264 68.5551C245.918 67.9633 246.457 66.1991 246.756 63.2336C246.656 64.2236 246.852 61.8987 247.484 56.2702C247.93 52.2323 248.451 48.1877 248.959 44.1476C249.054 43.6287 249.27 43.1394 249.589 42.7193C249.981 42.1498 250.222 41.7427 250.246 41.4846C250.363 39.9479 250.633 38.4268 251.053 36.9439C251.175 36.5257 251.623 36.1297 252.207 35.678C252.79 35.2264 253.233 35.0306 253.514 35.084C254.381 35.2487 255.771 35.4823 257.631 35.767C259.49 36.0518 260.82 36.2943 261.624 36.4812C262.428 36.6681 263.268 36.4812 264.202 35.9717C264.52 34.6925 265.093 32.8259 265.788 30.381C265.97 31.0684 266.106 32.2408 266.2 33.8827C266.3 35.6625 266.364 36.9751 266.514 37.8405H266.5ZM263.544 34.8282C258.772 34.7081 256.417 34.651 256.479 34.6569C256.232 34.6013 255.779 34.3165 255.058 33.8627C254.576 33.5293 254.045 33.2747 253.483 33.1085C253.017 33.0239 252.394 33.4021 251.583 34.2208C250.772 35.0395 250.233 35.7782 249.988 36.4456C248.845 39.5424 248.075 42.3011 247.734 44.7416C247.197 48.5503 246.767 52.3769 246.355 56.1923C245.943 60.0077 245.531 63.8276 245.226 67.6408C243.992 66.8666 243.034 66.4172 242.383 66.3059C242.074 66.2547 241.517 66.3415 240.8 66.5284C239.923 66.7417 239.011 66.7591 238.127 66.5796C237.815 66.5284 236.438 65.8854 233.984 64.7686C230.936 63.3826 228.823 62.5639 227.646 62.1123C228.081 57.3959 228.589 53.4358 229.027 50.2055C229.466 46.9752 229.872 44.4902 230.348 42.7549C231.431 42.9774 232.144 42.9307 232.518 42.6192C232.551 42.2277 232.616 41.8472 232.649 41.4557C232.003 40.9462 231.291 40.875 230.451 41.2621C230.787 37.2821 231.119 33.2931 231.429 29.302C230.166 27.9671 228.807 27.2129 227.6 27.0594C227.53 27.0418 227.458 27.0392 227.388 27.0516C227.318 27.064 227.251 27.0911 227.192 27.1313C227.133 27.1715 227.083 27.2238 227.046 27.2847C227.009 27.3455 226.985 27.4136 226.976 27.4844C226.97 27.5526 226.949 27.6187 226.914 27.678C226.88 27.7373 226.833 27.7883 226.777 27.8276C226.721 27.8668 226.656 27.8932 226.589 27.905C226.521 27.9168 226.452 27.9137 226.386 27.8959C225.887 27.7977 225.399 27.6486 224.931 27.451C224.406 27.2314 223.869 27.0413 223.323 26.8815C223.1 26.2407 222.619 25.4243 221.882 24.4209C222.198 23.7535 222.55 23.1306 222.826 22.4965C223.221 21.6302 223.417 20.6871 223.401 19.7356C228.747 21.1394 234.191 22.5677 239.583 24.1606C239.884 24.2496 240.947 24.2496 242.775 24.263C244.604 24.2763 245.658 24.3163 245.999 24.3742C246.339 24.432 246.89 24.739 247.781 25.3798C248.629 25.976 249.171 26.3208 249.418 26.3675C249.665 26.4143 250.193 26.3408 250.999 26.1807C251.557 26.0408 252.132 25.9868 252.706 26.0205C252.984 26.065 253.443 26.3942 254.062 26.9638C254.681 27.5333 255.203 27.8537 255.514 27.9249C255.826 27.996 256.183 27.8114 256.57 27.4799C257.016 27.0973 257.381 26.9704 257.684 27.035C258.174 27.2149 258.65 27.4337 259.105 27.689C259.694 28.0032 260.316 28.2495 260.961 28.4232C261.251 28.5011 261.551 28.5341 261.852 28.5211C262.594 28.8889 263.366 29.2508 264.168 29.6068C263.945 31.3598 263.723 33.104 263.513 34.846L263.544 34.8282ZM229.852 29.8826C228.704 30.2252 227.154 30.2808 225.174 30.0406C224.586 29.9694 224.341 29.4777 224.408 28.5723C224.84 28.7947 225.706 29.0172 227.081 29.2552C228.019 29.3912 228.946 29.601 229.852 29.8826ZM227.288 38.1141L225.185 37.3243C225.185 36.895 225.688 36.212 226.593 35.2665C226.869 35.6758 227.145 36.074 227.453 36.4923C227.419 37.0329 227.352 37.5735 227.288 38.1141ZM240.621 74.8222C240.281 74.9646 239.938 75.1047 239.628 75.2471V74.5953C239.878 74.444 240.158 74.2927 240.47 74.1503C240.505 74.3795 240.555 74.6062 240.619 74.8289L240.621 74.8222ZM230.667 70.326C230.353 70.2438 230.053 70.1172 229.776 69.95C229.52 69.8054 229.25 69.6847 228.972 69.5896C229.379 69.0757 229.847 68.5707 230.308 68.0546C230.429 68.8176 230.547 69.5718 230.667 70.326ZM284.763 64.5417C284.683 64.9555 283.22 66.4327 280.518 69.0579C277.76 71.7387 276.123 73.0201 275.617 72.88C275.279 72.7843 274.795 72.1347 274.234 70.9578C273.702 69.7952 273.099 68.6666 272.428 67.5785C271.599 66.317 270.586 65.4805 269.407 65.1735C267.491 64.6959 265.528 64.4355 263.553 64.3971C262.687 64.3682 261.727 64.9955 260.843 66.3593C260.065 67.5607 259.776 68.6107 259.769 69.3849C259.399 69.3115 259.061 69.2225 258.718 69.1625C257.697 68.9734 256.617 68.0746 255.481 66.4327C258.279 60.3325 261.201 54.2649 264.248 48.23C267.296 42.195 270.336 36.2046 273.37 30.2586C274.455 30.3654 275.208 30.8326 275.437 31.7202C276.085 34.2297 276.642 36.7726 277.219 39.2843C277.97 42.5591 278.758 45.9007 279.892 49.22C280.745 51.7451 281.812 54.1923 282.756 56.7129C284.316 60.8576 284.984 63.485 284.781 64.5551L284.763 64.5417ZM282.805 32.4544C282.36 32.886 281.719 32.6769 280.825 31.8693C281.035 31.5495 281.276 31.2514 281.545 30.9794C281.511 31.1463 281.618 31.3509 281.972 31.6468C282.268 31.8961 282.546 32.1651 282.805 32.4522V32.4544ZM286.998 54.7017C285.801 52.6995 285.316 51.2267 285.507 50.3212C285.697 49.9764 285.884 49.6115 286.104 49.2645C287.218 50.4325 287.617 51.3224 287.481 51.9875C287.296 52.8774 287.189 53.7963 286.998 54.7017ZM284.581 49.9831C284.394 49.9274 284.24 49.883 284.086 49.8273C284.026 49.4825 283.935 49.1377 283.875 48.7839C284.031 48.7461 284.218 48.7172 284.403 48.6883C284.467 49.1221 284.525 49.5492 284.585 49.9786L284.581 49.9831ZM269.287 56.3324C268.173 56.8063 267.209 56.7463 266.438 56.1255C266.973 54.8463 267.696 53.0443 268.643 50.7083C268.8 51.6364 268.908 52.5721 268.966 53.5115C269.025 54.4566 269.132 55.3981 269.287 56.3324ZM275.691 77.2449C275.484 77.7389 275.305 78.2439 275.154 78.7577C275.029 78.6354 274.876 78.5152 274.753 78.3862C274.891 77.9499 275.07 77.5275 275.288 77.1248C275.444 77.1626 275.535 77.1982 275.691 77.2449ZM268.525 73.2404C267.999 73.1025 267.634 73.5341 267.556 74.5508C267.927 74.1474 268.254 73.7068 268.534 73.236L268.525 73.2404ZM271.439 68.6196C270.826 67.3938 270.245 66.6908 269.717 66.5618C266.035 65.6541 263.527 65.5962 262.342 66.2792C261.97 66.4906 261.571 67.4049 261.083 69.0802C260.651 70.5596 260.17 71.2315 259.613 71.1113C259.116 71.0045 258.562 70.6664 257.913 70.0969C258.223 70.4325 258.501 70.7959 258.744 71.1825C259.036 71.6164 259.268 71.8744 259.544 71.9323C260.435 72.1191 261.341 72.326 262.268 72.5218C262.58 72.5886 262.845 72.5752 263.014 72.3972C263.184 72.2193 263.237 72.1525 263.201 72.1436C262.954 71.9679 262.883 71.6408 262.927 71.1759C263.021 70.0532 263.499 68.9971 264.282 68.1858C265.046 67.4027 266.222 67.1713 267.757 67.5696C270.207 68.2103 271.407 68.6107 271.439 68.6196ZM270.231 58.8064C270.361 58.0499 270.476 57.2846 270.588 56.5304C270.639 56.1834 270.588 55.031 270.394 53.0465C270.182 50.8885 270.109 49.3401 270.116 48.4369C269.235 48.9138 268.413 49.4909 267.665 50.1566C267.1 51.5204 266.155 53.5182 264.93 56.1634C265.269 56.5438 265.565 56.9554 265.883 57.3136C266.307 57.7941 266.683 58.0121 266.961 58.0722C267.115 58.1033 267.458 58.2079 267.953 58.3636C268.51 58.5372 268.944 58.6573 269.22 58.7285C269.548 58.8355 269.896 58.8607 270.236 58.8019L270.231 58.8064ZM287.938 67.3315C284.791 70.6907 281.313 73.7236 277.555 76.3839C277.246 76.3016 276.816 75.6987 276.266 74.5463C276.359 74.4062 278.005 72.8133 281.349 69.95C284.271 67.4472 285.859 65.841 286.026 64.9377C286.207 63.9944 284.518 58.8064 280.923 49.3334C280.934 48.0828 280.732 46.8394 280.326 45.656C278.484 40.5124 277.165 36.2365 276.909 32.5946C277.313 32.7208 277.716 32.8521 278.117 32.9883C278.932 36.1786 279.636 39.3733 280.315 42.5547C281.139 46.419 281.923 49.6338 282.794 52.1833C284.022 55.7807 285.775 60.7752 287.933 67.3226L287.938 67.3315ZM321.499 58.9999C321.094 59.6673 320.746 60.357 320.372 61.02C320.241 60.9483 320.107 60.8836 319.969 60.8264C320.345 60.159 320.69 59.4916 321.098 58.8241C321.23 58.889 321.365 58.9462 321.504 58.9954L321.499 58.9999ZM318.857 60.1256C318.704 60.7241 317.98 61.5272 316.734 62.5506C316.064 62.2432 315.363 62.0083 314.643 61.8498C314.538 61.6418 314.476 61.4148 314.46 61.1824C314.435 60.9326 314.374 60.6877 314.28 60.4549C314.805 60.5928 315.598 60.2925 316.703 59.6317C317.594 59.0978 318.289 58.6439 318.726 58.1923C318.729 58.4652 318.759 58.7372 318.815 59.0044C318.909 59.3692 318.925 59.7498 318.862 60.1212L318.857 60.1256ZM318.327 65.2425C317.986 65.4383 317.643 65.6452 317.271 65.8432C316.993 65.6963 316.652 65.5495 316.38 65.4205C316.973 65.0156 317.438 64.7063 317.813 64.4616C318.023 64.6973 318.198 64.9627 318.332 65.2492L318.327 65.2425ZM315.184 53.0532C314.253 53.3491 313.346 53.6272 312.451 53.9431C311.391 54.3079 310.669 54.942 310.393 55.7718C310.669 56.4392 311.003 57.3514 311.337 58.4771C310.293 56.7885 309.921 55.3914 310.154 54.3013C310.273 53.7584 310.78 53.3847 311.651 53.1889C312.522 52.9931 313.389 52.7951 314.289 52.5949C314.567 52.7328 314.877 52.9086 315.18 53.0643L315.184 53.0532ZM307.165 43.5135C306.41 43.5976 305.718 43.9728 305.236 44.5592C305.459 44.2529 305.748 44.0006 306.081 43.8208C306.415 43.6409 306.784 43.5382 307.163 43.5202L307.165 43.5135ZM306.216 41.4601C305.447 42.0053 304.833 42.7404 304.434 43.5936C304.125 43.4646 303.766 43.3489 303.505 43.2088C303.283 43.0886 303.22 42.7638 303.296 42.2877C303.416 41.5202 304.234 40.9017 305.726 40.4189C305.878 40.7616 306.031 41.1064 306.214 41.4601H306.216ZM303.592 40.0207C303.388 40.1585 303.199 40.3189 303.031 40.499C302.974 40.5815 302.891 40.6424 302.795 40.6718C302.699 40.7013 302.597 40.6976 302.503 40.6614C302.503 40.6614 302.873 40.4612 303.59 40.0274L303.592 40.0207ZM313.839 66.0122C313.716 66.0523 313.591 66.099 313.436 66.1368C313.044 64.6396 312.618 63.1423 312.226 61.634C312.351 61.5962 312.473 61.5494 312.629 61.5116C313.023 63.0178 313.416 64.5061 313.839 66.0122ZM319.363 55.7229C319.276 56.0544 318.855 56.6706 318.049 57.5027C317.315 58.27 316.5 58.9555 315.618 59.5472C315.146 59.8609 314.531 59.8342 313.696 59.4093C313.264 59.1868 312.778 57.823 312.175 55.3202C313.324 54.9309 313.977 54.7284 314.162 54.6839C314.756 54.5129 315.381 54.4741 315.993 54.5705C316.084 54.2652 316.127 53.9478 316.122 53.6294C316.12 53.2386 316.153 52.8484 316.222 52.4636C315.994 52.3234 315.777 52.1657 315.574 51.992C315.346 51.7913 315.098 51.6146 314.834 51.4647C314.487 51.2734 313.413 51.4358 311.825 52.0031C310.181 52.5927 309.301 53.0243 309.243 53.2957C309.045 54.2368 309.148 55.3536 309.531 56.6773C309.909 57.9602 310.568 59.1432 311.46 60.1412C311.578 61.1178 312.019 63.2358 312.721 66.4883C313.313 69.2381 313.567 70.7443 313.496 71.0201C313.344 71.6119 311.838 72.662 308.949 74.2438C306.02 75.8456 304.559 76.6554 304.379 76.5819C304.107 76.4859 303.826 76.4159 303.541 76.3728C303.224 76.3292 302.913 76.2493 302.614 76.1348C302.483 76.0769 302.214 75.7833 301.906 75.3183C301.599 74.8533 301.325 74.5641 301.106 74.484C300.731 74.3719 300.349 74.2871 299.962 74.2304C299.564 74.1758 299.171 74.094 298.785 73.9857C297.547 73.5407 295.997 72.3883 294.19 70.3794C292.827 68.8644 291.517 67.2448 290.181 65.6318C290.428 65.5095 290.742 65.1869 291.085 64.6663C291.381 64.2139 291.705 63.78 292.054 63.3671C292.179 63.3848 292.355 63.5895 292.609 63.9677C292.774 64.2572 292.993 64.5125 293.255 64.7197C296.819 67.0045 298.601 68.1458 298.601 68.1636C298.572 68.1369 300.244 68.1169 303.777 68.1791C303.63 66.96 303.209 65.1735 302.635 62.8665C301.696 62.0676 300.905 61.1106 300.298 60.0388C299.866 59.3114 299.663 57.9921 299.362 56.1767C299.155 54.9286 298.725 53.9809 298.048 53.3335C298.919 52.4749 299.723 51.5512 300.454 50.5704C301.61 49.0732 302.314 48.161 302.681 47.7806C303.049 47.4002 304.49 46.6682 307.221 45.7783C310.117 44.8261 311.899 44.7661 312.712 45.2066C313.05 45.3912 314.353 46.5859 316.561 48.7661C316.817 49.0175 317.343 50.101 318.185 51.9253C319.116 53.9475 319.505 55.2001 319.367 55.7295L319.363 55.7229ZM315.251 73.0024C315.122 73.5697 313.507 74.6197 310.673 76.206C307.938 77.7366 306.408 78.5887 306.069 78.5442C305.377 78.4529 304.49 78.246 303.376 78.1126C303.1 77.5186 302.949 77.1381 302.98 76.978C303.554 77.3086 304.182 77.5346 304.835 77.6454C310.994 74.3483 314.258 72.3527 314.485 71.4851C314.545 71.2626 314.507 70.682 314.373 69.7632C314.151 68.2615 313.986 67.4539 314.017 67.3693C314.95 70.5596 315.369 72.4551 315.244 73.009L315.251 73.0024ZM312.801 92.8737C312.624 92.7215 312.427 92.5942 312.215 92.4955C311.87 92.3108 311.66 92.0505 311.691 91.7524C311.814 91.1462 312.016 90.5589 312.293 90.006C312.694 89.1161 313.006 88.482 313.081 88.0037C313.12 87.6767 313.101 87.3454 313.026 87.0248C313.056 87.2459 313.118 87.4616 313.208 87.6656C313.34 87.9544 313.391 88.2735 313.355 88.5888C313.097 90.0238 312.952 91.4521 312.787 92.8803L312.801 92.8737ZM299.77 61.8654C299.602 61.9571 299.445 62.0675 299.302 62.1946C298.839 61.8809 298.411 61.565 298.008 61.2602C298.536 60.8576 299.001 60.7241 299.405 60.8798C299.539 61.2043 299.656 61.5354 299.757 61.872L299.77 61.8654ZM311.262 91.3542C311.23 91.4854 311.135 91.6056 311.103 91.7457C310.833 91.5266 310.576 91.2919 310.333 91.0427C310.333 90.8936 310.366 90.7446 310.366 90.5978C310.645 90.8469 310.983 91.1072 311.257 91.3564L311.262 91.3542ZM301.935 76.7332C301.129 76.6175 299.801 76.0102 298.041 74.929C299.204 75.3357 300.407 75.6162 301.63 75.7655C301.585 75.8478 301.708 76.1726 301.922 76.7399L301.935 76.7332ZM309.807 91.0271C309.435 90.9648 308.566 90.8425 307.236 90.6979C306.6 90.6497 305.968 90.55 305.348 90.3997C304.301 89.9971 303.091 89.1851 301.799 87.9058C302.182 88.0191 302.577 88.0856 302.975 88.1038C303.343 88.1213 303.707 88.1818 304.06 88.284C304.249 88.353 304.835 88.7468 305.818 89.4387C306.8 90.1306 307.377 90.491 307.6 90.5822C308.313 90.8122 309.051 90.9614 309.798 91.0271H309.807ZM312.181 88.1061C312.128 88.4153 311.772 89.0115 311.086 89.9392C310.483 89.8009 309.872 89.7013 309.257 89.6411C308.692 89.5887 308.133 89.4859 307.586 89.3341C307.137 89.1224 306.704 88.8793 306.29 88.6066C305.581 88.1795 305.06 87.8658 304.744 87.7012C304.04 87.3385 301.741 86.4153 297.756 85.2829C293.448 84.0593 291.319 83.5876 291.535 83.6521C290.268 83.2406 289.307 82.6866 288.639 81.9636C288.639 81.5186 288.893 81.0025 289.238 80.4063C289.2 79.9817 289.193 79.5549 289.216 79.1293C289.236 78.4619 289.287 77.9546 289.259 77.6009C289.566 77.8055 290.323 78.3284 291.417 79.2005C292.39 79.9769 292.958 80.4263 293.174 80.4953C293.39 80.5642 294.694 80.5976 297.079 80.6221C299.498 80.6443 300.768 80.7511 300.984 80.8445C301.2 80.938 301.957 81.5475 303.421 82.6933C304.918 83.8679 305.764 84.453 305.951 84.5331C306.105 84.5999 306.599 84.6466 307.437 84.6555C308.275 84.6644 308.773 84.6978 308.996 84.7868C309.331 84.9791 309.642 85.2114 309.921 85.4786C310.204 85.7527 310.526 85.9836 310.876 86.1639C310.957 86.2107 311.049 86.2342 311.142 86.2319C311.235 86.2295 311.326 86.2014 311.404 86.1505C311.488 86.0532 311.582 85.9652 311.685 85.888C311.788 86.2566 311.91 86.6197 312.05 86.9759C312.188 87.3381 312.238 87.7275 312.197 88.1127L312.181 88.1061ZM300.87 87.5477C299.324 87.1739 296.908 86.482 293.54 85.4097C292.825 85.1872 292.148 84.9514 291.435 84.7423C293.23 85.2072 294.963 85.6633 296.781 86.1461C298.117 86.5665 299.471 87.036 300.861 87.5565L300.87 87.5477ZM299.235 91.2941C299.273 91.4738 299.249 91.6609 299.169 91.8258C299.068 92.0194 298.946 92.0972 298.797 92.0483C298.882 91.7709 299.027 91.5157 299.222 91.3008L299.235 91.2941ZM34.0784 34.2498C33.6107 34.5701 32.86 35.084 31.7418 35.8071C30.6236 36.5301 29.844 37.0396 29.4074 37.3488C29.9677 36.8882 30.4988 36.3934 30.9978 35.8671C31.7864 35.0796 32.3076 34.5968 32.5571 34.49C32.8141 34.3923 33.0887 34.3491 33.3634 34.3632C33.6067 34.3801 33.8507 34.3437 34.0784 34.2564V34.2498ZM38.1703 38.9217C38.2059 39.182 38.0634 39.7226 37.756 40.528C37.3105 41.7026 37.1256 42.4056 37.061 42.6103C37.0043 42.8857 37.0461 43.1723 37.1791 43.4201C37.3145 43.727 37.4262 44.0439 37.5132 44.3678C37.8941 45.4802 38.2438 47.2288 38.6871 49.6071C39.1727 52.2078 39.4066 53.4603 39.3754 53.3491C39.4979 53.7117 40.1795 55.1978 41.3601 57.8653C42.5406 60.5327 43.1532 61.9833 43.191 62.2057C43.2133 62.3192 43.4918 63.6029 43.9729 66.059C44.454 68.5151 44.8438 70.3038 45.1468 71.4184C44.8372 71.2626 44.5565 70.9222 44.2847 70.3616C44.0866 69.9221 43.8635 69.4942 43.6165 69.0802C43.2196 68.7353 42.7847 68.4368 42.3201 68.1903C41.5561 67.7453 41.1306 67.3938 41.0571 67.0979C40.9836 66.802 40.6339 65.0957 40.0993 61.9521C39.5647 58.8086 39.2217 57.0688 39.1415 56.7774C39.0992 56.6306 38.6336 55.8586 37.7003 54.4281C36.7915 53.0376 36.2792 52.1388 36.1678 51.7717C35.9696 51.1533 35.6443 49.6138 35.3169 47.1666C34.9271 44.1721 34.8001 41.8761 34.8714 40.2699C34.8714 40.0897 35.0273 39.707 35.3169 39.0641C35.5203 38.661 35.6493 38.2247 35.6978 37.776C37.2147 37.9829 38.0879 38.3588 38.1703 38.9262V38.9217ZM54.1681 66.4572C53.9453 66.5328 53.6691 66.9021 53.355 67.5429C53.3261 67.336 53.1635 67.1246 52.8316 66.8754C52.567 66.6579 52.2453 66.5212 51.9049 66.4817C52.0943 65.9967 52.2836 65.4828 52.473 64.9778C52.5977 64.931 52.8717 65.0645 53.2459 65.356C53.6216 65.6575 53.9348 66.0293 54.1681 66.4505V66.4572ZM63.8286 74.1703C63.5747 74.8378 63.3832 75.236 63.2317 75.3472C63.0201 75.4918 62.5768 75.6275 61.8328 75.8122C61.5833 75.8745 60.9641 76.0347 59.9395 76.2438C58.8547 76.4663 58.2332 76.5975 58.0149 76.6643C57.7966 76.731 57.0415 77.1092 55.7139 77.8612C54.4287 78.5887 53.7226 79.0091 53.5043 79.0759C53.286 79.1426 52.6979 79.0425 51.6466 78.8067C50.5952 78.5709 49.976 78.473 49.7577 78.5486C49.5394 78.6243 48.6083 79.1359 46.9577 80.1193C45.3072 81.1026 44.3449 81.621 44.0954 81.6922C43.8459 81.7634 42.8525 82.0303 41.0215 82.5131C39.1259 83.0114 38.1369 83.3184 37.9164 83.403C36.3326 84.0326 35.4238 84.3796 35.21 84.5732C35.0496 84.7178 34.4727 85.1227 33.6842 85.8502C33.0983 86.3886 32.684 86.7401 32.468 86.8246C31.6492 87.1421 30.7617 87.241 29.893 87.1116C28.6545 86.9203 27.9662 86.2973 27.768 85.2695C27.734 84.8642 27.7895 84.4564 27.9306 84.0748C28.1043 83.492 28.2246 83.0648 28.1867 82.7979C27.99 81.5483 27.708 80.3137 27.3425 79.1026C26.545 76.4838 25.5861 73.9167 24.4713 71.4161C23.1771 68.415 22.6091 67.0023 22.6693 67.1691C21.8647 64.9846 21.2273 62.7424 20.7626 60.4615C20.7276 60.0366 20.7276 59.6095 20.7626 59.1846C20.7982 58.4949 20.8093 57.9899 20.7113 57.7029C20.6267 57.4604 20.3148 56.9865 19.6666 56.2746C19.0184 55.5627 18.711 55.0799 18.6531 54.8374C18.6197 54.6973 18.4148 53.7073 18.1141 51.8496C17.8134 49.992 17.6463 48.6771 17.4971 47.8851C17.653 47.7072 18.0874 47.191 18.7155 46.3123C19.3437 45.4335 19.7513 44.9529 19.9651 44.8239C20.0319 44.7839 20.6801 44.7638 21.9186 44.8506C22.97 44.9475 24.028 44.9475 25.0794 44.8506C25.7122 44.7485 26.3287 44.563 26.9126 44.2989C27.0972 43.8185 27.2352 43.3216 27.3247 42.815C28.3281 42.2859 29.2954 41.6914 30.2204 41.0352C30.6838 40.6528 31.1023 40.2192 31.4678 39.7426C31.8977 39.2265 32.2163 38.8772 32.4657 38.766C32.7152 38.6547 33.0493 38.6837 33.4904 38.7882C33.8869 38.8839 34.2321 38.944 34.5729 39.024C34.4148 39.4178 34.1943 39.8939 33.9737 40.4167C34.4883 47.2622 35.0251 51.0576 35.2323 51.7873C35.2991 52.0098 35.6778 52.6483 36.3349 53.6895C36.992 54.7306 37.4486 55.4693 37.5912 55.9364C37.7337 56.4036 37.9364 56.902 38.1079 57.4938C38.6662 59.4654 39.1191 61.4653 39.4645 63.485C39.91 65.9945 40.2151 67.2359 40.2151 67.2359C40.3065 67.4961 40.7141 67.8855 41.4781 68.4305C41.9651 68.7568 42.4194 69.1293 42.8347 69.5429C42.8636 69.5718 43.0374 70.1325 43.4428 71.207C43.7078 71.9078 44.2402 72.4328 45.1067 72.8288C45.6056 72.2193 46.1024 71.8099 46.6949 71.6074C46.9176 71.534 47.4389 71.5229 48.3677 71.5607C49.2364 71.5963 49.7933 71.5985 49.9804 71.5318C49.9804 71.5318 50.6487 71.2448 51.8782 70.6419C52.6404 70.2465 53.4423 69.9326 54.2705 69.7053C54.546 69.7646 54.825 69.8062 55.1058 69.8299C55.5067 69.9017 55.9178 69.8934 56.3154 69.8054C57.6184 69.3983 58.6052 68.8043 59.3024 68.0078C60.1934 66.9867 60.8616 66.4149 61.1445 66.2547C61.3026 66.5562 61.5218 66.8214 61.7883 67.0334C62.1129 67.2715 62.3482 67.6115 62.4565 67.9989C62.612 68.8609 62.4863 69.7499 62.0979 70.5351C61.8172 71.1581 61.5009 71.7409 61.2804 72.3283C61.7125 72.7554 62.5167 72.9645 63.6638 72.9957C63.6905 73.3872 63.7507 73.7766 63.8108 74.1592L63.8286 74.1703ZM50.6397 67.0067C50.4838 67.0645 50.2989 67.1202 50.143 67.178C50.0227 66.6663 49.9002 66.1546 49.7487 65.6341C49.9047 65.5851 50.0606 65.5295 50.2477 65.4627C50.368 65.9833 50.4883 66.495 50.6397 67.0067ZM67.357 75.0358C67.23 75.1937 66.7511 75.8033 65.9804 76.889C65.4057 77.6943 65.0114 78.1526 64.762 78.2082C64.5392 78.2572 64.0536 78.2082 63.3364 78.0503C62.5657 77.8901 62.0667 77.8567 61.8506 77.919C61.6012 77.9902 60.7124 78.5041 59.0819 79.4429C57.4514 80.3818 56.5314 80.8757 56.3131 80.9424C55.2261 81.2739 52.1567 81.3673 46.98 81.2561C47.2295 81.1805 47.724 80.8735 48.4746 80.3662C48.9212 80.0322 49.4012 79.7451 49.9069 79.5097C50.1296 79.4385 50.7444 79.523 51.7646 79.7878C52.7848 80.0525 53.3751 80.1393 53.6535 80.0547C53.8429 79.9969 54.647 79.5609 56.1037 78.7733C57.5316 78.0058 58.3446 77.592 58.554 77.5297C59.1484 77.4192 59.7498 77.35 60.3538 77.3228C60.9456 77.2885 61.5352 77.2231 62.1202 77.127C64.0759 76.6487 64.8667 75.414 64.5704 73.4228C64.5514 73.2647 64.5514 73.1049 64.5704 72.9467C64.581 72.8501 64.5712 72.7523 64.5414 72.6598C64.488 72.3883 63.9267 72.048 62.8753 71.6341C63.1292 70.7843 63.2918 69.376 63.3052 67.4072C64.018 67.5429 64.7018 67.1291 65.4525 66.1368C65.5438 66.4906 65.4903 67.1802 65.3456 68.1769C65.2008 69.1736 65.1339 69.8254 65.1785 70.0969C65.252 70.5418 65.546 71.227 65.9715 72.2259C66.4615 73.385 66.8625 74.3461 67.3481 75.0335L67.357 75.0358ZM20.0475 60.486C19.7916 60.5899 19.5424 60.7095 19.3013 60.8442L19.1187 60.3347C19.3595 60.1949 19.6096 60.0715 19.8671 59.9654C19.9129 60.1436 19.9732 60.3177 20.0475 60.486ZM46.4387 82.0526C46.216 82.1282 45.9732 82.2038 45.7883 82.275C45.7732 82.105 45.7426 81.9367 45.697 81.7722C45.9464 81.7055 46.1625 81.6388 46.412 81.5498C46.412 81.7166 46.4409 81.8835 46.4387 82.0526ZM45.4453 82.4219C41.8991 84.4464 40.0993 85.4809 40.1862 85.4431C39.4631 85.596 38.7284 85.6875 37.9899 85.7167C36.5643 85.8168 35.5397 85.8702 35.0117 85.957C35.9114 85.414 36.8582 84.9531 37.8406 84.5799C39.1119 84.111 40.4081 83.7121 41.7231 83.3852C43.4294 82.9402 44.7035 82.6221 45.4497 82.4219H45.4453ZM27.0752 82.5198C26.946 83.2094 26.7545 84.1327 26.4359 85.2895C26.3157 84.9269 25.9904 84.1104 25.4915 82.8268C25.5227 82.8268 25.8033 82.7734 26.1441 82.7289C26.4617 82.6964 26.7743 82.6262 27.0752 82.5198ZM81.7019 23.0238C81.3277 23.3241 80.6461 23.3286 79.6861 23.0238C79.8732 22.9771 80.185 22.6589 80.5927 22.0493C80.7138 22.0325 80.8372 22.0418 80.9544 22.0767C81.0716 22.1117 81.18 22.1714 81.272 22.2518C81.392 22.3425 81.492 22.4569 81.5659 22.5877C81.6399 22.7186 81.6862 22.8632 81.7019 23.0127V23.0238ZM92.4273 36.7704C92.4605 37.2016 92.4267 37.6354 92.327 38.0563C92.2446 38.4679 92.0887 38.875 92.0085 39.3155C91.9929 39.4067 92.2312 39.687 92.5609 40.1609C92.6543 40.9009 92.7941 41.6342 92.9797 42.3567C93.2848 43.5736 93.5165 44.3767 93.5833 44.8039C93.6861 45.3845 93.7242 45.9747 93.6969 46.5637C93.521 49.2 93.4942 50.7261 93.4541 51.1711C93.267 52.982 92.9039 54.3925 92.4028 55.4826C91.583 57.2624 87.7518 60.3548 80.8199 64.7375C80.5971 64.7931 80.2942 64.6885 79.891 64.4349C79.401 64.1257 79.1515 63.9544 79.0891 63.9277C81.1785 61.8743 82.7489 60.6551 83.7668 60.2102C85.8317 59.3047 87.1281 58.6306 87.685 58.2502C89.023 57.3376 90.0571 56.046 90.6542 54.5415C91.1331 53.3914 91.5652 51.7317 91.8971 49.5693C92.2112 47.5158 92.3226 46.2322 92.2624 45.745C92.2624 45.745 91.8993 44.6326 91.2311 42.4079C90.7087 40.7195 90.2855 39.002 89.9637 37.2643C89.9293 36.9127 89.9421 36.558 90.0015 36.2098C90.0621 35.8833 90.0621 35.5485 90.0015 35.222C89.7498 34.4344 89.2063 33.3554 88.4111 31.9894C88.9702 31.8827 89.3622 31.9138 89.4937 32.1407C89.6073 32.3343 90.2109 33.1641 91.2133 34.6102C91.9617 35.6892 92.3894 36.4189 92.4384 36.7837L92.4273 36.7704ZM91.1866 46.3189C91.2422 46.6082 91.1331 47.6716 90.8257 49.5159C90.6058 50.9767 90.3084 52.4248 89.9347 53.8541C89.5739 55.12 88.5782 56.4882 86.7182 57.6183C85.6713 58.2546 83.9562 58.9532 81.8957 60.2102C81.771 60.2858 81.1896 60.7975 80.1806 61.6918C79.4121 62.3726 78.9354 62.7619 78.6859 62.8175C78.4365 62.8732 78.0689 62.6796 77.4185 62.248C76.4317 61.5806 75.8593 61.2558 75.7835 61.2135C74.9683 60.8042 73.712 60.4437 71.9456 60.2213C71.3954 59.2268 70.4599 58.3659 69.1746 57.6094C67.9625 56.935 66.8599 56.0806 65.9047 55.0755C65.2411 54.2747 64.6841 53.3916 64.2474 52.4481C63.8523 51.6926 63.5358 50.8987 63.303 50.0787C62.726 47.6315 63.303 43.8829 65.3612 38.875C67.475 33.7025 69.8451 30.866 71.9278 30.2364C72.0837 30.114 72.3332 29.9071 72.6762 29.5979C73.0482 29.4755 73.7053 29.2108 74.6653 28.8125C75.1745 28.5903 75.6949 28.395 76.2246 28.2274C76.9084 28.0517 78.6147 28.3209 81.2409 29.0728C83.7512 29.7914 85.4731 30.4655 86.4353 31.0373C86.8675 31.2953 87.3263 31.8537 87.8498 32.7236C88.3732 33.5935 88.8299 34.4522 89.2598 35.2976C89.8538 38.9744 90.5005 42.6481 91.1999 46.3189H91.1866ZM64.7753 37.2376C63.1916 37.7426 62.2917 38.0073 62.011 38.0385C62.2004 37.7292 62.8864 37.0908 64.1628 36.0963C64.4412 36.2987 64.6239 36.6814 64.7753 37.2398V37.2376ZM61.6569 36.0829C61.0558 36.207 60.5098 36.5187 60.0976 36.9728C60.2739 36.7181 60.505 36.5059 60.774 36.3519C61.0431 36.1979 61.3432 36.106 61.6524 36.0829H61.6569ZM97.3767 71.9234C96.6907 72.5619 96.0402 72.92 95.4477 73.0357C95.225 73.0735 94.207 73.0357 92.2869 72.9312C90.4582 72.8244 89.3467 72.8177 89.1885 72.8489C88.6754 72.9936 88.184 73.2061 87.7273 73.4807C87.0485 73.8689 86.342 74.2065 85.6134 74.4907C85.3661 74.2949 85.2436 73.9056 85.1857 73.3472C85.7111 73.158 86.2206 72.9274 86.7093 72.6575C87.1222 72.4164 87.5598 72.2202 88.0146 72.0724C88.2374 72.0257 89.1618 72.0724 90.7722 72.2237C92.3827 72.375 93.3138 72.4462 93.5611 72.3928C94.4298 72.2282 95.343 71.7498 96.2674 70.9712C96.2986 70.9245 96.0135 70.3572 95.5346 69.2893C95.1581 68.4439 94.8909 67.8833 94.8329 67.5495C94.775 67.2158 94.8062 66.8154 94.7795 66.4372C95.7083 66.3482 96.361 66.0923 96.7976 65.6897C97.0537 69.1358 97.1963 71.2114 97.3767 71.9189V71.9234ZM82.094 67.5228C82.2321 68.2882 81.8712 68.9244 81.1518 69.3827C80.6305 69.7142 80.0625 70.0034 79.5324 70.3238C79.6928 69.5118 79.9779 68.2437 80.3343 66.5084C80.6127 66.4505 80.9223 66.3927 81.2654 66.3259C81.7532 66.7242 82.0182 67.1246 82.094 67.5228ZM94.8441 70.7176C94.6336 70.7868 94.4341 70.8857 94.2516 71.0112C94.012 71.1613 93.7505 71.2732 93.4764 71.3427C93.2537 71.385 92.3292 71.3427 90.7166 71.2092C89.1039 71.0757 88.146 71.0424 87.8966 71.0935C87.517 71.2397 87.1529 71.423 86.8096 71.6408C86.5038 71.8878 86.1495 72.0681 85.7697 72.17C85.3899 72.2719 84.9929 72.2933 84.6043 72.2326C84.275 72.1951 83.9425 72.1951 83.6131 72.2326C80.7491 72.7885 77.9568 73.6646 75.289 74.8444C75.0677 75.0238 74.8681 75.2284 74.6943 75.454C74.5093 75.7008 74.2628 75.8949 73.9793 76.0169C73.6986 76.0836 72.3376 75.8589 69.952 75.3695C69.7486 74.3948 69.714 73.3925 69.8495 72.4061C70.1903 72.3105 70.5311 72.2259 70.9053 72.1303C71.1281 72.0746 72.2686 72.1303 74.2466 72.306C76.2914 72.4973 77.365 72.5841 77.5878 72.5285C77.7148 72.4973 78.5723 71.9745 80.0781 71.0135C81.2443 70.2422 82.4721 69.568 83.749 68.9978C88.2596 67.1291 90.6542 66.1346 91.1465 66.0478C91.5774 65.989 92.0127 65.9681 92.4473 65.9856C92.9138 66.0011 93.3808 65.9795 93.8439 65.921C93.9598 66.983 94.2902 68.5833 94.8352 70.722L94.8441 70.7176ZM79.4366 66.317C79.5947 67.3271 79.1715 68.7887 78.0422 70.7509C76.5342 69.2982 75.6699 68.0078 75.465 66.8532C75.4291 66.6707 75.4112 66.4852 75.4115 66.2992C75.8995 66.4219 76.4098 66.4257 76.8995 66.3104C77.5622 66.1358 78.1511 65.7528 78.579 65.218C79.1359 65.6252 79.3898 65.9989 79.4411 66.3126L79.4366 66.317ZM86.8786 75.0424C86.7535 75.3154 86.6175 75.5834 86.471 75.8456C86.2705 76.2037 86.0255 76.4307 85.7849 76.4729C85.3216 76.5553 84.7647 76.1259 84.0274 75.216C84.9777 75.3921 85.9568 75.3325 86.8786 75.0424ZM81.742 73.9901C80.1516 75.147 79.1827 75.7188 78.8151 75.7877C77.4385 76.048 76.1154 76.4195 74.7789 76.7332C76.3382 75.4763 77.6747 74.8133 78.7617 74.6242C79.7618 74.4462 80.7486 74.1792 81.742 73.9901ZM73.4736 77.2827C72.8856 77.305 72.3265 77.325 71.7696 77.3384C71.7241 77.1648 71.6935 76.9876 71.6783 76.8089C72.2686 76.7666 72.8277 76.7266 73.4157 76.6954C73.4181 76.8923 73.436 77.0887 73.4692 77.2827H73.4736ZM76.0263 80.295C75.8392 80.631 75.6187 80.9624 75.4316 81.2962C74.9995 80.8223 74.5985 80.6287 74.3178 80.7155C74.8769 80.582 75.4316 80.4374 76.0241 80.295H76.0263ZM87.627 45.6092C87.5647 45.2844 87.3085 44.6593 86.8652 43.7316C86.422 42.8039 86.1859 42.2766 86.1324 42.1164C85.972 41.6426 85.8918 40.8772 85.8985 39.8049C85.9052 38.7326 85.8851 38.0251 85.7894 37.6736C85.5156 36.7174 85.081 35.8146 84.5041 35.004C83.8938 34.1141 83.2634 33.5512 82.6553 33.2531C81.7799 32.8237 80.3677 32.4744 78.4231 32.272C76.8104 32.1051 75.7501 32.0495 75.3247 32.1607C74.5785 32.341 73.066 34.7503 70.9365 39.4156C69.7961 41.9162 68.7647 44.3856 67.7557 46.8328C68.983 48.7461 70.7628 51.5204 73.1261 55.1311C73.8359 55.1743 74.535 55.3243 75.1999 55.576C75.5675 55.7118 76.2223 55.9809 77.0554 56.2435C78.0801 56.5549 78.7884 56.6884 79.1604 56.6039C80.1249 56.3947 81.477 55.1578 83.308 52.9264C84.3803 51.669 85.3529 50.3301 86.217 48.9219C87.2172 47.1666 87.7139 46.0542 87.627 45.6092ZM85.4152 42.7994C85.5109 43.2822 85.4798 44.1209 85.4285 45.3245C85.3684 46.7416 85.1746 47.7494 84.8806 48.3835C84.5153 49.1777 83.72 50.101 82.5083 51.1288C81.5059 51.9764 80.7263 52.4748 80.3276 52.566C80.0492 52.6283 79.764 52.5304 79.4633 52.2456C79.151 51.943 78.8215 51.6585 78.4766 51.3935C79.1292 51.1711 79.7574 50.9619 80.4033 50.7128C81.1043 50.4654 81.7055 49.9968 82.1163 49.3779C82.6353 48.5392 82.9894 47.28 83.132 45.5959C83.2567 44.1342 83.3391 42.6704 83.4104 41.2065C84.5843 41.5714 85.2726 42.0964 85.4152 42.7972V42.7994ZM82.339 34.4344C81.6649 34.7089 80.9528 34.8792 80.2274 34.9394C80.0046 34.9572 79.5123 34.717 78.6503 34.3632C78.0578 34.1163 77.6012 34.0006 77.3517 34.0629C76.7926 34.2008 76.258 34.7948 75.7278 35.8427C74.9705 37.3466 74.4715 38.3388 74.0951 38.806C73.7231 38.9395 73.164 39.1553 72.4802 39.4734C70.8942 44.6637 70.1814 47.587 70.344 48.2633C70.393 48.4636 70.9053 49.2422 71.8164 50.6772C72.5929 51.8673 73.2987 53.1019 73.9303 54.3747C70.7071 49.8273 69.0164 47.3579 68.9273 46.9218C68.8962 46.7631 69.4746 45.188 70.6626 42.1965C71.93 39.0151 73.0638 36.4411 74.0305 34.5457C74.447 33.7292 74.9393 33.2664 75.465 33.1396C75.9907 33.0128 78.2538 33.4489 82.339 34.4322V34.4344ZM82.5395 41.5536C82.3746 43.1109 81.9871 45.4046 81.4101 48.3991C81.379 48.4458 80.7709 48.8663 79.6037 49.705C78.8084 50.2767 78.2961 50.6171 78.0444 50.675C77.1133 50.8974 75.9283 50.0654 74.4337 48.3101C73.1596 46.8106 72.3866 45.7939 72.2842 45.1954C72.2374 44.9151 72.4824 43.2577 73.0616 40.1876C73.9791 40.3917 74.9296 40.3993 75.8504 40.2098C76.2392 40.0631 76.6058 39.8632 76.9396 39.6158C77.2921 39.3526 77.6797 39.1399 78.0912 38.984C78.3696 38.9195 79.0668 39.2398 80.0692 39.9139C81.6596 40.9863 82.4749 41.5135 82.5372 41.5491L82.5395 41.5536ZM120.803 30.3164C120.703 31.2063 120.636 32.0784 120.505 32.9639C120.382 32.9928 120.226 33.0039 120.073 33.0239C120.171 32.134 120.269 31.2442 120.4 30.3543C120.522 30.3342 120.647 30.3164 120.803 30.3053V30.3164ZM118.769 33.0595C118.83 33.727 118.478 34.9417 117.691 36.6903C116.927 36.8288 116.181 37.0488 115.464 37.3466C115.285 37.2024 115.138 37.022 115.034 36.8171C114.925 36.6068 114.791 36.4104 114.635 36.232C115.132 36.034 115.809 35.2687 116.571 33.9561C117.188 32.8949 117.7 32.0206 117.921 31.3109C118.012 31.5679 118.147 31.8072 118.319 32.0184C118.56 32.3198 118.718 32.6786 118.778 33.0595H118.769ZM120.222 38.3055C119.972 38.7259 119.721 39.1286 119.471 39.5491C119.128 39.578 118.787 39.618 118.446 39.667C118.823 38.9373 119.168 38.3321 119.42 37.8872C119.703 37.9929 119.972 38.1326 120.222 38.3032V38.3055ZM112.815 28.6479C112.067 29.5111 111.287 30.3565 110.537 31.2442C109.661 32.2764 109.22 33.3109 109.214 34.2987C109.901 34.8855 110.549 35.5164 111.154 36.1875C109.548 35.2642 108.703 34.2164 108.541 33.0529C108.461 32.4655 108.781 31.827 109.514 31.0729C110.247 30.3187 111.011 29.5734 111.793 28.7858C112.134 28.7369 112.475 28.6879 112.815 28.6479ZM102.141 24.9192C101.463 25.4904 100.936 26.2203 100.609 27.0439C100.899 26.2003 101.432 25.4611 102.141 24.9192ZM100.725 23.5488C100.128 24.4783 99.7301 25.5215 99.5574 26.6123C99.2478 26.659 98.9092 26.7524 98.5951 26.7836C98.3189 26.8125 98.192 26.5411 98.1363 26.0516C98.045 25.2641 98.6441 24.2029 99.9539 22.8814C100.206 23.1016 100.453 23.3241 100.729 23.5466L100.725 23.5488ZM97.8111 23.7713C97.6476 24.0063 97.52 24.2642 97.4324 24.5366C97.397 24.6566 97.3285 24.7642 97.2347 24.8472C97.141 24.9302 97.0258 24.9853 96.9023 25.006C96.9023 25.006 97.2208 24.61 97.8155 23.778L97.8111 23.7713ZM116.299 41.7493C116.201 41.8826 116.086 42.0023 115.956 42.1053C115.003 40.9262 114.081 39.7582 113.096 38.5902C113.221 38.4749 113.336 38.3491 113.439 38.2142C114.392 39.3844 115.346 40.5702 116.299 41.7493ZM117.685 28.4788C117.718 28.8503 117.491 29.718 117.016 31.0818C116.601 32.2678 116.096 33.4206 115.506 34.5301C115.194 35.1196 114.573 35.4734 113.671 35.5935C113.176 35.658 112.189 34.7036 110.746 32.7392C111.653 31.6268 112.238 31.0017 112.37 30.866C113.038 30.1763 113.617 29.7536 114.083 29.5534C114.037 29.229 113.957 28.9104 113.842 28.6034C113.713 28.2096 113.622 27.8043 113.57 27.3931C113.325 27.4155 113.077 27.4066 112.833 27.3665C112.545 27.3247 112.253 27.3202 111.964 27.3531C111.468 27.4176 110.592 28.243 109.251 29.8559C107.91 31.4689 107.265 32.4166 107.302 32.7058C107.416 33.7114 107.924 34.6747 108.801 35.6602C109.599 36.5933 110.633 37.2955 111.795 37.6937C112.348 38.5101 113.533 40.2454 115.419 42.8706C117.065 45.1621 117.858 46.4302 117.905 46.7327C118.008 47.4113 116.985 49.309 114.86 52.4436C112.697 55.6339 111.481 57.2223 111.325 57.2446C111.018 57.2973 110.719 57.3869 110.434 57.5116C110.145 57.6426 109.843 57.7411 109.532 57.8052C109.347 57.8319 109.004 57.7185 108.543 57.447C108.082 57.1756 107.77 57.0533 107.523 57.0889C107.121 57.1734 106.727 57.2879 106.342 57.4315C105.949 57.5787 105.543 57.6933 105.131 57.7741C103.794 57.9787 101.959 57.6339 99.622 56.6617C97.8155 55.9164 96.0046 55.1266 94.2427 54.3636C94.5041 53.9489 94.6763 53.4845 94.7483 52.9998C94.9287 52.1255 95.0668 51.5715 95.1314 51.3491C95.225 51.2823 95.5101 51.3491 95.9044 51.5849C96.1556 51.7563 96.439 51.8751 96.7374 51.9342C100.889 52.2412 102.934 52.4013 102.974 52.3925C102.912 52.4013 104.53 51.5115 107.828 49.7228C106.905 48.227 105.879 46.7975 104.756 45.4446C103.59 45.1926 102.482 44.7198 101.493 44.0519C100.796 43.5914 100.119 42.508 99.1565 41.0107C98.4882 39.974 97.742 39.3511 96.929 39.113C97.3965 37.8624 97.798 36.5881 98.1318 35.2954C98.6842 33.2931 98.9916 32.0295 99.181 31.5133C99.3703 30.9972 100.582 29.4955 102.899 26.9994C105.391 24.3141 107.171 22.9637 108.042 22.8413C108.412 22.7902 109.995 23.0371 112.72 23.6334C113.065 23.709 113.891 24.3764 115.281 25.5844C116.818 26.9193 117.627 27.8826 117.68 28.4766L117.685 28.4788ZM120.315 47.6849C120.39 48.3167 119.334 50.2085 117.148 53.3602C115.05 56.3814 113.896 58.0611 113.519 58.2257C112.891 58.4993 111.96 58.793 110.877 59.2758C110.385 58.8775 110.138 58.5906 110.109 58.4237C110.575 58.4482 111.194 58.3236 112.065 58.0299C116.852 51.3557 119.193 47.5737 119.052 46.6126C119.014 46.3612 118.763 45.8406 118.257 45.0553C117.411 43.7382 116.999 43.053 116.999 42.9663C119.121 45.4758 120.242 47.0509 120.315 47.676V47.6849ZM123.768 69.2448C123.553 69.1734 123.326 69.1403 123.1 69.1469C122.694 69.1202 122.465 68.9378 122.451 68.5996C122.438 68.2615 122.567 67.5406 122.808 66.4172C123.048 65.2937 123.153 64.4683 123.102 63.9188C123.073 63.5798 122.992 63.2474 122.861 62.9332C122.861 63.0155 122.982 63.1868 123.229 63.4983C123.418 63.7576 123.524 64.0677 123.534 64.3882C123.654 66.01 123.728 67.6185 123.779 69.2403L123.768 69.2448ZM101.667 46.0052C101.571 46.1921 101.444 46.379 101.353 46.5659C100.827 46.5125 100.33 46.4502 99.8047 46.379C100.15 45.7249 100.555 45.369 100.959 45.2911C101.181 45.5425 101.451 45.7739 101.667 46.0052ZM121.937 68.3794C121.877 68.5442 121.844 68.7179 121.841 68.8933C121.532 68.782 121.222 68.6708 120.912 68.544C120.924 68.3743 120.904 68.2038 120.854 68.0412C121.235 68.1502 121.574 68.2704 121.946 68.3794H121.937ZM109.046 58.7552C108.207 59.1045 106.75 59.189 104.705 59.0333C105.974 58.8561 107.216 58.5198 108.401 58.0321C108.401 58.1167 108.623 58.3481 109.046 58.7552ZM120.387 68.7887C119.952 68.9044 119.05 69.1981 117.653 69.7276C116.558 70.1458 115.871 70.395 115.633 70.4283C114.519 70.5818 113.183 70.3594 111.639 69.772C112.068 69.679 112.484 69.5395 112.882 69.356C113.231 69.1899 113.595 69.0566 113.969 68.9578C114.192 68.9267 114.86 69.009 115.974 69.1981C117.088 69.3872 117.769 69.4628 117.979 69.4383C118.795 69.2987 119.596 69.0812 120.371 68.7887H120.387ZM122.213 64.5017C122.226 64.8376 121.99 65.6585 121.514 66.9756C120.85 67.1429 120.197 67.3487 119.558 67.5918C118.565 67.9344 118.034 68.1146 117.776 68.1435C117.3 68.1557 116.824 68.1364 116.35 68.0857C115.544 68.0234 114.987 67.9878 114.553 67.9945C113.809 68.0056 111.292 68.3972 107.106 69.1936C102.509 70.0679 100.37 70.5285 100.558 70.4795C99.2545 70.6731 98.1697 70.6063 97.3968 70.2459C97.3389 69.801 97.4658 69.2025 97.6886 68.4461C97.5525 68.0591 97.4511 67.6608 97.3856 67.2559C97.307 66.7686 97.1855 66.2891 97.0225 65.8231C97.8599 65.897 98.6889 66.0459 99.4995 66.2681C100.676 66.5573 101.326 66.7019 101.573 66.6663C101.821 66.6307 103.061 66.0434 105.398 64.9488C107.788 63.8365 109.038 63.2603 109.316 63.2202C109.441 63.2024 110.463 63.3292 112.194 63.6652C113.925 64.0011 114.889 64.1546 115.074 64.1324C115.297 64.1057 115.796 63.8765 116.633 63.4249C117.471 62.9733 117.97 62.7375 118.219 62.7152C118.6 62.7292 118.976 62.8043 119.333 62.9377C119.68 63.0666 120.047 63.1365 120.418 63.1446C120.515 63.1423 120.611 63.1175 120.697 63.0719C120.783 63.0263 120.858 62.9613 120.914 62.8821C121.006 62.7384 121.09 62.5899 121.166 62.4371C121.343 62.7729 121.548 63.0929 121.779 63.3937C122.027 63.7147 122.179 64.0985 122.22 64.5017H122.213ZM110.615 69.91C108.969 70.3371 106.425 70.7999 102.888 71.2871C102.112 71.3917 101.4 71.4918 100.66 71.5874C102.522 71.2337 104.353 70.8777 106.247 70.504C107.705 70.3082 109.163 70.1102 110.621 69.91H110.615ZM109.314 74.5819C109.366 74.6641 109.399 74.7574 109.409 74.8543C109.419 74.9512 109.406 75.0491 109.372 75.1403C109.263 75.4184 109.149 75.543 108.997 75.563C109.037 75.218 109.147 74.8848 109.32 74.5841L109.314 74.5819Z" fill="white"/>
</svg>
