<svg width="24" height="24" viewBox="0 0 24 24" fill="none" xmlns="http://www.w3.org/2000/svg">
<path d="M13.3382 20.5611C13.9032 20.4739 14.4812 20.5706 14.987 20.837C15.8051 21.267 16.7392 21.4242 17.653 21.2854C18.5668 21.1467 19.4122 20.7193 20.0657 20.0657C20.7193 19.4122 21.1467 18.5668 21.2854 17.653C21.4242 16.7392 21.267 15.8051 20.837 14.987C20.5706 14.4812 20.4739 13.9032 20.5611 13.3382C20.7721 11.9901 20.6617 10.6111 20.2388 9.31372C19.816 8.01632 19.0926 6.83715 18.1278 5.87225C17.1629 4.90735 15.9837 4.18402 14.6863 3.76117C13.3889 3.33832 12.0099 3.22791 10.6618 3.43894C10.0968 3.52613 9.51882 3.4294 9.01302 3.16303C8.19481 2.73263 7.26036 2.5753 6.34632 2.71403C5.43227 2.85277 4.5866 3.2803 3.93294 3.9341C3.27929 4.5879 2.85195 5.43368 2.71343 6.34775C2.5749 7.26182 2.73245 8.19624 3.16303 9.01436C3.4294 9.52015 3.52613 10.0982 3.43894 10.6631C3.22791 12.0113 3.33832 13.3902 3.76117 14.6876C4.18402 15.985 4.90735 17.1642 5.87225 18.1291C6.83715 19.094 8.01632 19.8173 9.31372 20.2402C10.6111 20.663 11.9901 20.7721 13.3382 20.5611ZM12 23.3294C10.3644 23.3297 8.74807 22.9759 7.26219 22.2922C5.77631 21.6085 4.45608 20.6112 3.39226 19.3688C2.32843 18.1264 1.54623 16.6684 1.09941 15.0949C0.652595 13.5215 0.551761 11.87 0.803841 10.2539C0.109055 8.9324 -0.144827 7.42329 0.0793013 5.94716C0.30343 4.47104 0.993818 3.1053 2.04956 2.04956C3.1053 0.993818 4.47104 0.30343 5.94716 0.0793013C7.42329 -0.144827 8.9324 0.109055 10.2539 0.803841C12.0164 0.528534 13.819 0.673291 15.5149 1.22633C17.2108 1.77937 18.7522 2.72506 20.0136 3.98642C21.2749 5.24778 22.2206 6.78916 22.7737 8.4851C23.3267 10.181 23.4715 11.9836 23.1962 13.7461C23.8909 15.0676 24.1448 16.5767 23.9207 18.0528C23.6966 19.529 23.0062 20.8947 21.9504 21.9504C20.8947 23.0062 19.529 23.6966 18.0528 23.9207C16.5767 24.1448 15.0676 23.8909 13.7461 23.1962C13.1769 23.2841 12.5931 23.3294 12 23.3294ZM12.0706 18.6644C8.33459 18.6644 6.6685 16.825 6.6685 15.4468C6.6685 14.7377 7.18832 14.2446 7.90541 14.2446C9.50486 14.2446 9.08767 16.5438 12.0706 16.5438C13.5941 16.5438 14.4378 15.7121 14.4378 14.863C14.4378 14.3512 14.1873 13.7861 13.1809 13.5355L9.86207 12.7051C7.18832 12.0333 6.70315 10.5832 6.70315 9.22362C6.70315 6.39792 9.35824 5.33562 11.8534 5.33562C14.1459 5.33562 16.8597 6.60985 16.8597 8.30527C16.8597 9.03168 16.2199 9.45554 15.5108 9.45554C14.1473 9.45554 14.3978 7.56552 11.6455 7.56552C10.2819 7.56552 9.51818 8.18131 9.51818 9.06634C9.51818 9.95004 10.5885 10.2339 11.5202 10.4459L13.9673 10.991C16.6517 11.5935 17.3315 13.1676 17.3315 14.6511C17.3315 16.949 15.5654 18.6644 12.02 18.6644H12.0706Z" fill="black"/>
</svg>
