<svg width="339" height="98" viewBox="0 0 339 98" fill="none" xmlns="http://www.w3.org/2000/svg">
<path d="M118.315 30.7168C117.557 30.7168 116.968 30.9235 116.547 31.2955C116.126 31.7089 115.916 32.2462 115.916 32.9076C115.916 33.569 116.126 34.1064 116.547 34.5198C116.968 34.9331 117.557 35.1398 118.315 35.1398H125.764V56.7176C125.764 57.4617 125.974 58.0818 126.395 58.5365C126.816 59.0325 127.447 59.2392 128.288 59.2392C129.089 59.2392 129.719 59.0325 130.141 58.5365C130.561 58.0818 130.814 57.4617 130.814 56.7176V35.1398H138.262C139.02 35.1398 139.61 34.9331 140.03 34.5198C140.451 34.1064 140.703 33.569 140.703 32.9076C140.703 32.2462 140.451 31.7089 140.03 31.2955C139.61 30.9235 139.02 30.7168 138.262 30.7168H118.315Z" fill="white"/>
<path d="M141.433 56.9479C141.433 57.6193 141.6 58.1722 142.017 58.6066C142.436 59.041 143.021 59.2385 143.773 59.2385C144.525 59.2385 145.11 59.041 145.529 58.6066C145.946 58.1722 146.155 57.6193 146.155 56.9479V50.2737C146.155 45.7715 147.325 43.5204 149.749 43.5204C150.292 43.5204 150.961 43.6389 151.713 43.8759C152.967 44.3103 153.845 44.0338 154.346 43.007C154.722 42.2171 154.597 41.4274 153.928 40.6375C153.26 39.8871 152.131 39.4922 150.543 39.4922C149.624 39.4922 148.746 39.7292 147.994 40.2031C147.199 40.6769 146.573 41.2694 146.155 42.0197C146.155 41.4668 145.946 40.9929 145.529 40.5585C145.11 40.1241 144.525 39.8871 143.773 39.8871C143.021 39.8871 142.436 40.1241 142.017 40.5585C141.6 40.9929 141.433 41.5458 141.433 42.1777V56.9479Z" fill="white"/>
<path d="M167.453 57.2394C167.453 57.922 167.623 58.4841 168.007 58.9258C168.39 59.3675 168.986 59.5682 169.752 59.5682C170.519 59.5682 171.072 59.3675 171.455 58.9258C171.838 58.5243 172.052 57.9621 172.052 57.2394V46.9604C172.052 41.9816 169.241 39.4922 163.662 39.4922C160.596 39.4922 158.255 40.0142 156.722 40.9778C155.657 41.6202 155.316 42.4233 155.657 43.3467C155.827 43.8286 156.126 44.1097 156.593 44.2703C157.062 44.4309 157.573 44.4309 158.084 44.2703C158.297 44.2301 158.638 44.1498 159.107 43.9893L160.128 43.7081C160.342 43.6279 160.64 43.5476 160.98 43.4673C161.321 43.387 161.704 43.3467 162.044 43.3066C162.385 43.3066 162.725 43.2665 163.109 43.2665C164.812 43.2665 165.962 43.6279 166.558 44.3505C167.155 45.0733 167.453 46.037 167.453 47.3218V47.7635C166.26 47.6029 164.77 47.4825 162.981 47.4825C160.342 47.4825 158.169 48.0446 156.424 49.0886C154.677 50.1325 153.826 51.8189 153.826 54.0674C153.826 55.8742 154.422 57.3197 155.614 58.3637C156.807 59.4478 158.509 59.9698 160.64 59.9698C163.791 59.9698 166.047 58.8455 167.453 56.5167V57.2394ZM161.917 56.4364C160.852 56.4364 160.043 56.1955 159.447 55.7137C158.851 55.2318 158.553 54.5492 158.553 53.7061C158.553 51.4575 160.256 50.3332 163.662 50.3332C165.281 50.3332 166.516 50.4135 167.453 50.5341V51.2166C167.453 52.5818 166.941 53.8265 165.962 54.8704C164.941 55.9144 163.62 56.4364 161.917 56.4364Z" fill="white"/>
<path d="M177.155 65.6116C177.155 66.3161 177.322 66.8963 177.738 67.3522C178.156 67.808 178.739 68.0153 179.489 68.0153C180.239 68.0153 180.823 67.808 181.24 67.3522C181.656 66.8963 181.864 66.3161 181.864 65.6116V43.1911H187.115V65.6116C187.115 66.3161 187.282 66.8963 187.7 67.3522C188.116 67.808 188.699 68.0153 189.449 68.0153C190.2 68.0153 190.784 67.808 191.2 67.3522C191.616 66.8963 191.826 66.3161 191.826 65.6116V43.1911H195.201C196.702 43.1911 197.452 42.5695 197.452 41.2847C197.452 40.0414 196.702 39.4198 195.201 39.4198H191.826V37.9278C191.826 35.7728 192.658 34.6953 194.325 34.6953C194.951 34.6953 195.826 34.8611 196.993 35.1926C198.327 35.6071 199.201 35.2755 199.619 34.1566C200.035 32.9547 199.493 32.0431 198.076 31.38C197.077 30.9655 195.785 30.7168 194.117 30.7168C192.284 30.7168 190.825 31.1727 189.741 32.0015C188.324 31.1727 186.658 30.7168 184.74 30.7168C182.239 30.7168 180.323 31.4214 179.073 32.7475C177.781 34.1152 177.155 36.3116 177.155 39.3369V65.6116ZM187.115 39.4198H181.864V38.218C181.864 37.0576 182.074 36.1458 182.49 35.4827C182.907 34.8196 183.699 34.4882 184.824 34.4882C185.741 34.4882 186.699 34.6953 187.657 35.0683C187.282 36.1458 187.115 37.5963 187.115 39.4198Z" fill="white"/>
<path d="M201.564 56.8679C201.564 57.5627 201.72 58.1348 202.109 58.5844C202.499 59.034 203.044 59.2383 203.745 59.2383C204.446 59.2383 204.992 59.034 205.381 58.5844C205.771 58.1348 205.966 57.5627 205.966 56.8679V41.5828C205.966 40.9289 205.771 40.3568 205.381 39.9072C204.992 39.4577 204.446 39.2124 203.745 39.2124C203.044 39.2124 202.499 39.4577 202.109 39.9072C201.72 40.3568 201.564 40.9289 201.564 41.5828V56.8679ZM201.213 33.9403C201.213 34.7577 201.407 35.4116 201.875 35.8203C202.343 36.229 202.966 36.4333 203.745 36.4333C204.525 36.4333 205.148 36.229 205.615 35.7794C206.082 35.3708 206.316 34.7577 206.316 33.9403C206.316 33.2046 206.082 32.5917 205.615 32.1421C205.148 31.6925 204.525 31.4473 203.745 31.4473C202.966 31.4473 202.343 31.6925 201.875 32.1421C201.407 32.5917 201.213 33.2046 201.213 33.9403Z" fill="white"/>
<path d="M226.283 58.1227C227.469 57.1993 227.767 56.2356 227.131 55.1917C226.538 54.3083 225.605 54.1879 224.248 54.7902C222.637 55.553 221.281 55.9144 220.178 55.9144C218.567 55.9144 217.295 55.3924 216.321 54.3083C215.345 53.2644 214.879 51.7787 214.879 49.8916C214.879 47.9241 215.345 46.3582 216.278 45.2339C217.21 44.1097 218.482 43.5476 220.136 43.5476C221.068 43.5476 222.297 43.7483 223.739 44.1498C225.096 44.5514 226.028 44.2703 226.538 43.3066C227.046 42.2626 226.664 41.3391 225.478 40.6164C224.205 39.8937 222.382 39.4922 220.008 39.4922C216.871 39.4922 214.413 40.4559 212.632 42.3028C210.851 44.1498 209.961 46.6794 209.961 49.8916C209.961 53.1038 210.809 55.553 212.547 57.3197C214.243 59.0864 216.659 59.9698 219.711 59.9698C222.425 59.9698 224.63 59.3675 226.283 58.1227Z" fill="white"/>
<path d="M240.581 53.1168C240.581 57.7138 242.731 59.9705 247.076 59.9705C248.883 59.9705 250.303 59.6779 251.42 59.0511C252.796 58.2989 253.27 57.3377 252.796 56.0839C252.582 55.6243 252.238 55.3316 251.721 55.1645C251.205 55.0391 250.69 55.081 250.173 55.2899C249.312 55.6243 248.582 55.7913 247.894 55.7913C246.99 55.7913 246.345 55.5407 246.001 54.9974C245.614 54.4959 245.441 53.6182 245.441 52.4481V33.1407C245.441 32.472 245.226 31.8869 244.797 31.4272C244.366 30.9676 243.764 30.7168 242.99 30.7168C242.216 30.7168 241.614 30.9676 241.183 31.4272C240.753 31.8869 240.581 32.472 240.581 33.1407V53.1168Z" fill="white"/>
<path d="M254.783 56.8679C254.783 57.5627 254.938 58.1348 255.328 58.5844C255.718 59.034 256.263 59.2383 256.964 59.2383C257.665 59.2383 258.211 59.034 258.601 58.5844C258.991 58.1348 259.185 57.5627 259.185 56.8679V41.5828C259.185 40.9289 258.991 40.3568 258.601 39.9072C258.211 39.4577 257.665 39.2124 256.964 39.2124C256.263 39.2124 255.718 39.4577 255.328 39.9072C254.938 40.3568 254.783 40.9289 254.783 41.5828V56.8679ZM254.433 33.9403C254.433 34.7577 254.627 35.4116 255.094 35.8203C255.562 36.229 256.186 36.4333 256.964 36.4333C257.743 36.4333 258.366 36.229 258.835 35.7794C259.302 35.3708 259.536 34.7577 259.536 33.9403C259.536 33.2046 259.302 32.5917 258.835 32.1421C258.366 31.6925 257.743 31.4473 256.964 31.4473C256.186 31.4473 255.562 31.6925 255.094 32.1421C254.627 32.5917 254.433 33.2046 254.433 33.9403Z" fill="white"/>
<path d="M263.939 46.4554C263.939 48.392 264.536 49.9576 265.812 51.1525C264.28 52.3885 263.515 53.7071 263.515 55.108C263.515 56.5912 264.153 57.6625 265.514 58.363C263.471 59.5166 262.451 61.041 262.451 62.9364C262.451 64.5844 263.174 65.9853 264.663 67.0978C266.109 68.2103 268.577 68.7459 272.022 68.7459C275.425 68.7459 278.063 68.1278 279.934 66.8094C281.764 65.4909 282.699 63.8016 282.699 61.7003C282.699 59.8874 281.891 58.6101 280.36 57.8273C278.829 57.0444 276.617 56.5912 273.766 56.4676C271.299 56.3852 269.597 56.138 268.662 55.8083C267.726 55.4788 267.258 55.0255 267.258 54.4075C267.258 53.7482 267.641 53.2126 268.406 52.7182C269.555 53.1302 270.916 53.3363 272.447 53.3363C275.17 53.3363 277.254 52.7182 278.743 51.4409C280.233 50.2048 280.998 48.5155 280.998 46.4554C280.998 45.3841 280.7 44.2716 280.147 43.1592H281.636C282.913 43.1592 283.593 42.6236 283.593 41.5523C283.593 40.4811 282.913 39.9042 281.636 39.9042H275.766C274.659 39.657 273.554 39.4922 272.447 39.4922C269.725 39.4922 267.599 40.1514 266.151 41.3875C264.663 42.6648 263.939 44.3541 263.939 46.4554ZM272.405 59.9286C274.532 60.0934 275.978 60.2994 276.829 60.5878C277.68 60.9175 278.105 61.4119 278.105 62.0711C278.105 62.9776 277.595 63.7192 276.573 64.296C275.553 64.8728 274.022 65.1614 271.979 65.1614C270.193 65.1614 268.874 64.9141 268.024 64.3784C267.173 63.8428 266.79 63.1836 266.79 62.4008C266.79 61.2059 267.555 60.2582 269.087 59.5577C270.065 59.7226 271.172 59.8462 272.405 59.9286ZM268.236 46.4554C268.236 45.4665 268.577 44.6425 269.342 43.9832C270.108 43.3653 271.128 43.0356 272.447 43.0356C273.724 43.0356 274.744 43.3653 275.51 43.9832C276.276 44.6425 276.659 45.4665 276.659 46.4554C276.659 47.4855 276.276 48.3095 275.51 48.8864C274.744 49.5043 273.724 49.7928 272.447 49.7928C271.128 49.7928 270.108 49.5043 269.342 48.8864C268.577 48.3095 268.236 47.4855 268.236 46.4554Z" fill="white"/>
<path d="M286.51 56.8416C286.51 57.5444 286.671 58.1231 287.077 58.5778C287.481 59.0325 288.049 59.2392 288.778 59.2392C289.507 59.2392 290.074 59.0325 290.478 58.5778C290.884 58.1231 291.086 57.5444 291.086 56.8416V51.5092C291.086 50.2691 291.167 49.153 291.33 48.161C291.491 47.2101 291.734 46.3008 292.059 45.4327C292.382 44.5646 292.909 43.9032 293.557 43.4072C294.205 42.9525 295.015 42.7044 295.987 42.7044C298.255 42.7044 299.429 44.2753 299.429 47.3342V56.8416C299.429 57.5444 299.591 58.1231 299.997 58.5778C300.401 59.0325 300.968 59.2392 301.697 59.2392C302.426 59.2392 302.994 59.0325 303.399 58.5778C303.803 58.1231 304.007 57.5444 304.007 56.8416V47.4169C304.007 44.5233 303.48 42.2911 302.426 40.803C301.374 39.3149 299.591 38.5708 297.081 38.5708C295.784 38.5708 294.61 38.8601 293.557 39.4388C292.503 40.0175 291.653 40.8857 291.086 42.0018V33.1144C291.086 32.4529 290.884 31.8742 290.478 31.4195C290.074 30.9649 289.507 30.7168 288.778 30.7168C288.049 30.7168 287.481 30.9649 287.077 31.4195C286.671 31.8742 286.51 32.4529 286.51 33.1144V56.8416Z" fill="white"/>
<path d="M309.839 52.9929C309.839 57.6582 311.869 59.9702 316.01 59.9702C317.634 59.9702 318.973 59.6811 320.07 59.0205C321.369 58.2774 321.775 57.2866 321.328 56.1306C321.126 55.6765 320.8 55.3874 320.354 55.2224C319.867 55.0984 319.38 55.1398 318.892 55.3462C318.081 55.6765 317.39 55.8416 316.741 55.8416C315.889 55.8416 315.279 55.5939 314.954 55.0572C314.589 54.5618 314.427 53.6947 314.427 52.4974V43.2909H317.877C319.339 43.2909 320.07 42.6303 320.07 41.3092C320.07 39.988 319.339 39.3274 317.877 39.3274H314.427V36.7678C314.427 36.1072 314.223 35.5292 313.818 35.0751C313.411 34.6209 312.843 34.3732 312.112 34.3732C311.382 34.3732 310.813 34.6209 310.408 35.0751C310.001 35.5292 309.839 36.1072 309.839 36.7678V52.9929Z" fill="white"/>
<path d="M54.6777 84.8357C75.212 84.8357 91.8584 68.7915 91.8584 48.9999C91.8584 29.2083 75.212 13.1641 54.6777 13.1641C34.1434 13.1641 17.4971 29.2083 17.4971 48.9999C17.4971 68.7915 34.1434 84.8357 54.6777 84.8357Z" fill="white"/>
<path d="M49.4809 31.4473C50.331 31.4473 50.6202 32.646 49.8738 33.0763L37.6647 40.1162C37.118 40.4316 36.4512 40.0132 36.4512 39.3547V32.3148C36.4512 31.8357 36.8186 31.4473 37.2718 31.4473H49.4809Z" fill="#2A7DE1"/>
<path d="M44.5865 49.6437C44.5865 48.7397 43.8376 48.0069 42.914 48.0069H38.1265C36.4048 48.0069 35.8063 45.7681 37.3074 44.9429L53.4934 36.0456C54.0021 35.766 54.6228 35.766 55.1316 36.0456L71.3175 44.9429C72.8186 45.7681 72.2202 48.0069 70.4985 48.0069H65.8143C64.8905 48.0069 64.1418 48.7397 64.1418 49.6437V67.8409C64.1418 68.7449 63.393 69.4777 62.4693 69.4777H46.259C45.3353 69.4777 44.5865 68.7449 44.5865 67.8409V49.6437Z" fill="#2A7DE1"/>
<path d="M72.1739 39.3513C72.1739 40.02 71.4618 40.4391 70.8896 40.1073L58.7562 33.0742C57.9919 32.6312 58.3019 31.4473 59.1821 31.4473H71.3155C71.7896 31.4473 72.1739 31.8372 72.1739 32.3182V39.3513Z" fill="#2A7DE1"/>
</svg>
